<?xml version="1.0" encoding="utf-8"?>
<!-- Generator: Adobe Illustrator 16.0.0, SVG Export Plug-In . SVG Version: 6.00 Build 0)  -->
<!DOCTYPE svg PUBLIC "-//W3C//DTD SVG 1.1//EN" "http://www.w3.org/Graphics/SVG/1.1/DTD/svg11.dtd">
<svg version="1.1" xmlns="http://www.w3.org/2000/svg" xmlns:xlink="http://www.w3.org/1999/xlink" x="0px" y="0px" width="1920px"
	 height="1080px" viewBox="0 0 1920 1080" enable-background="new 0 0 1920 1080" xml:space="preserve">
<g id="Layer_2" display="none">
	<polygon display="inline" opacity="0.4" fill="#010202" points="1914.709,35.896 0,35.896 0,6.823 1920,6.823 1920,27.583 	"/>
	<g display="inline">
		<path fill="#444444" d="M1920,29.146c-4.875,9.046-6.667,18.485-6.667,35.427c0,35.945-29.138,65.083-65.083,65.083
			c-35.945,0-65.083-29.138-65.083-65.083c0-18.534-9.333-34.989-24.417-35.427c0,0,63.792-29.656,89.5-29.656
			c21.097,0,62.313,3.036,71.752,16.695"/>
	</g>
	<path display="inline" opacity="0.4" fill="#010202" d="M1437.375,29.872c-3.479-0.52-4.64-14.094-12.103-14.203
		c-6.412-0.093-12.82,0.172-19.231,0.01c-4.083-0.104-7.758-1.96-8.176-5.718c-0.131-1.173,0.2-2.487,0.895-3.638H496.178
		c-4.659,4.308-11.437,5.422-16.465,9.229c-2.515,1.904-3.983,4.584-6.134,6.741c-1.963,1.968-2.119,5.955-4.22,7.754l-10.439,0.018
		c21.548,23.784,43.562,56.783,104.211,56.783h788.737c60.721,0,82.64-32.994,104.212-56.783L1437.375,29.872z"/>
	<rect y="0.073" display="inline" fill="#444444" width="1920" height="29.073"/>
	<rect id="_x3C_Slice_x3E_" x="954" y="-9" display="inline" fill="none" width="3" height="2"/>
	<rect id="_x3C_Slice_x3E__1_" x="959" y="-20" display="inline" fill="none" width="12" height="1"/>
	<path display="inline" fill="#646463" stroke="#474747" stroke-width="5" stroke-miterlimit="10" d="M957,2.751
		c-258.632,0-517.565,0-540,0c49.369,0,51.596,75.885,145.631,75.885c42.421,0,216.287,0,394.369,0h1c178.082,0,351.947,0,394.369,0
		c94.035,0,96.262-75.885,145.631-75.885c-22.434,0-281.367,0-540,0"/>
	<g display="inline">
		<path fill="#888989" d="M1848.25,120.823c-31.017,0-56.25-25.233-56.25-56.25s25.233-56.25,56.25-56.25s56.25,25.233,56.25,56.25
			S1879.267,120.823,1848.25,120.823z"/>
		<path fill="#875B13" d="M1848.25,9.823c30.189,0,54.75,24.561,54.75,54.75s-24.561,54.75-54.75,54.75s-54.75-24.561-54.75-54.75
			S1818.061,9.823,1848.25,9.823 M1848.25,6.823c-31.895,0-57.75,25.855-57.75,57.75s25.855,57.75,57.75,57.75
			S1906,96.468,1906,64.573S1880.145,6.823,1848.25,6.823L1848.25,6.823z"/>
	</g>
	<g display="inline">
		
			<radialGradient id="SVGID_1_" cx="568.4482" cy="38.0957" r="30.3189" gradientTransform="matrix(1 0 0 1.06 0 -2.2857)" gradientUnits="userSpaceOnUse">
			<stop  offset="0.4892" style="stop-color:#000000;stop-opacity:0.95"/>
			<stop  offset="0.8152" style="stop-color:#000000;stop-opacity:0.6512"/>
			<stop  offset="0.9785" style="stop-color:#000000;stop-opacity:0"/>
		</radialGradient>
		<ellipse fill="url(#SVGID_1_)" cx="568.448" cy="38.096" rx="29.268" ry="31.335"/>
		
			<ellipse fill="#F4B934" stroke="#865B13" stroke-width="4" stroke-miterlimit="10" cx="568.448" cy="38.096" rx="20.614" ry="22.07"/>
		<text transform="matrix(1 0 0 1 557.3857 48.6816)" fill="#9B6716" font-family="'ComicSansMS-Bold'" font-size="42">c</text>
	</g>
</g>
<g id="Layer_3">
	<g id="Layer_5" display="none">
		<rect y="111.261" display="inline" opacity="0.9" fill="#393A39" width="578.658" height="976.239"/>
	</g>
	<g display="none">
		<linearGradient id="SVGID_2_" gradientUnits="userSpaceOnUse" x1="17.0337" y1="109.291" x2="112.5337" y2="109.291">
			<stop  offset="0" style="stop-color:#A6A6A5"/>
			<stop  offset="0.0061" style="stop-color:#A7A7A6"/>
			<stop  offset="0.1277" style="stop-color:#BDBDBD"/>
			<stop  offset="0.2353" style="stop-color:#CACAC9"/>
			<stop  offset="0.3172" style="stop-color:#CECECE"/>
			<stop  offset="0.4973" style="stop-color:#BEBEBD"/>
			<stop  offset="0.6559" style="stop-color:#B2B2B2"/>
			<stop  offset="0.723" style="stop-color:#B7B7B7"/>
			<stop  offset="0.8145" style="stop-color:#C5C5C5"/>
			<stop  offset="0.9196" style="stop-color:#DBDBDB"/>
			<stop  offset="1" style="stop-color:#EFEEEE"/>
		</linearGradient>
		<circle display="inline" fill="url(#SVGID_2_)" cx="64.784" cy="109.291" r="47.75"/>
		<g display="inline">
			<path fill="#5B5B5B" d="M108.176,109.795c-0.345,23.883-18.42,44.985-43.145,44.627c-24.276-0.351-43.299-22.043-43.64-45.636
				C21.045,84.888,40.33,63.809,64.536,64.159C88.812,64.51,107.835,86.202,108.176,109.795c0.056,3.842,8.758,2.017,8.715-1.009
				C116.567,86.4,102.313,67.66,80.973,61.023c-21.188-6.59-44.927,2.099-58.324,19.267c-13.848,17.746-12.754,43.176,0.849,60.608
				c13.704,17.561,38.707,22.941,59.147,15.294c19.951-7.464,33.935-25.913,34.246-47.406
				C116.946,104.968,108.221,106.738,108.176,109.795z"/>
		</g>
	</g>
	<g>
		<linearGradient id="SVGID_3_" gradientUnits="userSpaceOnUse" x1="164.2378" y1="150.6509" x2="211.9961" y2="67.9311">
			<stop  offset="0" style="stop-color:#A6A6A5"/>
			<stop  offset="0.0061" style="stop-color:#A7A7A6"/>
			<stop  offset="0.1277" style="stop-color:#BDBDBD"/>
			<stop  offset="0.2353" style="stop-color:#CACAC9"/>
			<stop  offset="0.3172" style="stop-color:#CECECE"/>
			<stop  offset="0.4973" style="stop-color:#BEBEBD"/>
			<stop  offset="0.6559" style="stop-color:#B2B2B2"/>
			<stop  offset="0.723" style="stop-color:#B7B7B7"/>
			<stop  offset="0.8145" style="stop-color:#C5C5C5"/>
			<stop  offset="0.9196" style="stop-color:#DBDBDB"/>
			<stop  offset="1" style="stop-color:#EFEEEE"/>
		</linearGradient>
		<circle fill="url(#SVGID_3_)" cx="188.117" cy="109.291" r="47.75"/>
		<g>
			<path fill="#5B5B5B" d="M231.51,109.795c-0.345,23.883-18.42,44.985-43.146,44.627c-24.275-0.351-43.299-22.043-43.64-45.636
				c-0.346-23.898,18.939-44.978,43.146-44.627C212.146,64.51,231.169,86.202,231.51,109.795c0.056,3.842,8.758,2.017,8.715-1.009
				c-0.324-22.387-14.579-41.126-35.918-47.764c-21.188-6.59-44.927,2.099-58.324,19.267c-13.848,17.746-12.754,43.176,0.849,60.608
				c13.704,17.561,38.707,22.941,59.147,15.294c19.951-7.464,33.935-25.913,34.246-47.406
				C240.28,104.968,231.554,106.738,231.51,109.795z"/>
		</g>
	</g>
	<g display="none">
		<g display="inline">
			<path fill="#875B13" d="M91.125,85.239c0,0-0.125,0.276-0.361,0.794c-0.249,0.504-0.588,1.271-1.079,2.185
				c-0.479,0.926-1.06,2.052-1.766,3.301c-0.356,0.621-0.736,1.281-1.137,1.977c-0.195,0.355-0.493,0.614-0.804,0.858
				c-0.313,0.246-0.578,0.556-0.871,0.849c-1.154,1.19-2.404,2.479-3.727,3.842c-1.334,1.337-2.686,2.867-4.106,4.403
				c-1.412,1.552-2.889,3.124-4.35,4.79c-1.469,1.653-2.962,3.332-4.455,5.01c-1.5,1.688-3,3.375-4.478,5.036
				c-1.462,1.667-2.973,3.277-4.403,4.849c-1.444,1.563-2.803,3.101-4.188,4.491c-1.363,1.405-2.652,2.733-3.842,3.959
				c-0.293,0.312-0.602,0.593-0.855,0.918c-0.23,0.347-0.525,0.619-0.909,0.786c-0.728,0.37-1.418,0.721-2.067,1.051
				c-1.283,0.668-2.441,1.199-3.387,1.638c-0.936,0.449-1.709,0.755-2.219,0.981c-0.521,0.212-0.799,0.326-0.799,0.326
				s0.13-0.275,0.373-0.791c0.255-0.501,0.604-1.264,1.094-2.173c0.482-0.919,1.057-2.039,1.762-3.263
				c0.345-0.616,0.713-1.272,1.1-1.964c0.177-0.361,0.453-0.634,0.776-0.876c0.311-0.255,0.577-0.566,0.873-0.861
				c1.163-1.198,2.422-2.497,3.755-3.87c1.349-1.352,2.694-2.875,4.115-4.413c1.412-1.552,2.889-3.124,4.35-4.791
				c1.469-1.652,2.962-3.331,4.454-5.01c1.5-1.688,3.001-3.375,4.478-5.036c1.462-1.668,2.973-3.277,4.403-4.849
				c1.446-1.565,2.798-3.096,4.197-4.501c1.374-1.415,2.672-2.752,3.871-3.987c0.295-0.313,0.606-0.597,0.856-0.931
				c0.244-0.344,0.516-0.632,0.882-0.803c0.715-0.366,1.393-0.712,2.03-1.038c1.282-0.644,2.435-1.167,3.383-1.6
				c0.937-0.445,1.72-0.745,2.235-0.969C90.843,85.351,91.125,85.239,91.125,85.239z"/>
		</g>
		<g display="inline">
			<path fill="#875B13" d="M44.44,134.584c0,0-0.543,0.869-1.418,2.11c-0.432,0.626-0.933,1.361-1.498,2.119
				c-0.549,0.774-1.177,1.556-1.791,2.353c-0.629,0.781-1.102,1.721-1.749,2.396c-0.659,0.661-1.443,1.107-2.156,1.447
				c-0.718,0.335-1.397,0.532-1.911,0.63c-0.51,0.104-0.851,0.111-0.851,0.111l-0.28-0.285c0,0,0.014-0.342,0.126-0.849
				c0.108-0.512,0.317-1.188,0.666-1.899c0.353-0.707,0.813-1.482,1.487-2.129c0.686-0.635,1.634-1.09,2.427-1.705
				c0.808-0.599,1.602-1.212,2.386-1.747c0.768-0.55,1.512-1.037,2.146-1.458c1.258-0.852,2.136-1.379,2.136-1.379L44.44,134.584z"
				/>
		</g>
		<g display="inline">
			<path fill="#875B13" d="M33.374,123.997c0,0,0.568,0.056,1.491,0.241c0.462,0.091,1.024,0.201,1.634,0.368
				c0.309,0.079,0.638,0.163,0.984,0.25c0.178,0.039,0.295,0.156,0.399,0.295c0.106,0.137,0.249,0.235,0.381,0.352
				c2.16,1.821,5.04,4.25,7.92,6.678c2.88,2.428,5.76,4.856,7.92,6.678c0.138,0.11,0.259,0.235,0.408,0.321
				c0.159,0.073,0.283,0.183,0.344,0.359c0.146,0.327,0.284,0.637,0.414,0.928c0.267,0.574,0.471,1.108,0.643,1.543
				c0.342,0.873,0.502,1.413,0.502,1.413s-0.56-0.067-1.478-0.256c-0.458-0.096-1.019-0.207-1.63-0.373
				c-0.309-0.079-0.638-0.163-0.984-0.25c-0.184-0.031-0.313-0.134-0.413-0.279c-0.11-0.132-0.253-0.23-0.385-0.348
				c-2.16-1.821-5.04-4.25-7.92-6.678c-2.88-2.428-5.76-4.856-7.92-6.678c-0.138-0.111-0.259-0.235-0.412-0.316
				c-0.154-0.079-0.29-0.175-0.358-0.343c-0.146-0.327-0.284-0.637-0.414-0.928c-0.268-0.573-0.471-1.108-0.639-1.548
				C33.525,124.547,33.374,123.997,33.374,123.997z"/>
		</g>
	</g>
	<g display="none">
		<g display="inline">
			<path fill="#875B13" d="M36.25,84.329c0,0,0.283,0.111,0.814,0.318c0.518,0.222,1.303,0.52,2.243,0.961
				c0.952,0.429,2.109,0.949,3.396,1.587c0.64,0.324,1.32,0.668,2.038,1.031c0.368,0.17,0.642,0.458,0.89,0.796
				c0.253,0.33,0.567,0.609,0.867,0.917c1.212,1.215,2.526,2.532,3.916,3.925c1.409,1.385,2.8,2.885,4.275,4.422
				c1.463,1.542,3.001,3.124,4.507,4.758c1.518,1.628,3.059,3.283,4.601,4.937c1.535,1.647,3.07,3.295,4.582,4.917
				c1.505,1.633,3.016,3.187,4.465,4.713c1.456,1.516,2.841,3.011,4.211,4.355c1.357,1.361,2.641,2.647,3.825,3.835
				c0.301,0.292,0.573,0.601,0.888,0.853c0.33,0.238,0.608,0.512,0.789,0.874c0.394,0.692,0.767,1.35,1.118,1.967
				c0.716,1.225,1.299,2.345,1.788,3.263c0.497,0.908,0.85,1.669,1.107,2.17c0.246,0.514,0.377,0.789,0.377,0.789
				s-0.279-0.113-0.803-0.324c-0.512-0.225-1.289-0.528-2.229-0.974c-0.948-0.436-2.11-0.96-3.395-1.622
				c-0.65-0.326-1.341-0.672-2.07-1.038c-0.384-0.164-0.679-0.435-0.915-0.777c-0.257-0.321-0.57-0.599-0.867-0.906
				c-1.206-1.209-2.512-2.519-3.894-3.904c-1.398-1.373-2.794-2.879-4.269-4.415c-1.463-1.542-3-3.124-4.507-4.758
				c-1.517-1.628-3.059-3.283-4.6-4.937c-1.536-1.647-3.071-3.295-4.582-4.917c-1.505-1.633-3.016-3.186-4.464-4.713
				c-1.455-1.515-2.845-3.015-4.204-4.348c-1.349-1.354-2.625-2.633-3.802-3.814c-0.299-0.291-0.569-0.598-0.888-0.842
				c-0.317-0.242-0.617-0.499-0.814-0.854c-0.405-0.695-0.789-1.354-1.149-1.974c-0.714-1.248-1.302-2.372-1.787-3.297
				c-0.497-0.913-0.84-1.679-1.093-2.183C36.377,84.605,36.25,84.329,36.25,84.329z"/>
		</g>
		<g display="inline">
			<path fill="#875B13" d="M83.124,131.563c0,0,1.066,0.681,2.608,1.764c0.776,0.536,1.685,1.157,2.63,1.853
				c0.961,0.679,1.944,1.447,2.942,2.201c0.982,0.77,2.118,1.377,2.982,2.158c0.853,0.793,1.481,1.707,1.98,2.533
				c0.494,0.831,0.826,1.607,1.02,2.189c0.199,0.579,0.263,0.961,0.263,0.961l-0.276,0.289c0,0-0.387-0.044-0.977-0.213
				c-0.595-0.164-1.39-0.456-2.249-0.905c-0.854-0.455-1.802-1.034-2.64-1.842c-0.826-0.82-1.493-1.919-2.314-2.857
				c-0.806-0.954-1.625-1.893-2.355-2.814c-0.745-0.905-1.414-1.778-1.99-2.522c-1.164-1.478-1.9-2.504-1.9-2.504L83.124,131.563z"
				/>
		</g>
		<g display="inline">
			<path fill="#875B13" d="M95.73,122.566c0,0-0.154,0.55-0.496,1.427c-0.17,0.439-0.375,0.974-0.646,1.545
				c-0.131,0.291-0.27,0.601-0.417,0.927c-0.069,0.168-0.205,0.264-0.359,0.342c-0.153,0.081-0.275,0.205-0.413,0.315
				c-2.168,1.813-5.06,4.23-7.951,6.648c-2.891,2.417-5.782,4.834-7.951,6.647c-0.133,0.117-0.276,0.215-0.387,0.346
				c-0.1,0.145-0.229,0.247-0.414,0.277c-0.347,0.087-0.676,0.169-0.986,0.247c-0.612,0.163-1.173,0.272-1.632,0.366
				c-0.919,0.186-1.479,0.25-1.479,0.25s0.163-0.54,0.509-1.411c0.173-0.435,0.38-0.968,0.649-1.542
				c0.131-0.291,0.271-0.6,0.417-0.926c0.063-0.176,0.187-0.286,0.346-0.358c0.149-0.085,0.271-0.209,0.409-0.319
				c2.168-1.813,5.06-4.23,7.951-6.648c2.891-2.417,5.782-4.834,7.951-6.647c0.133-0.117,0.276-0.214,0.383-0.351
				c0.104-0.139,0.223-0.255,0.4-0.293c0.347-0.087,0.676-0.169,0.986-0.247c0.61-0.165,1.173-0.272,1.635-0.362
				C95.161,122.62,95.73,122.566,95.73,122.566z"/>
		</g>
	</g>
	<g>
		<path fill="#9B7132" d="M187.286,89.192c0.636-2.22-0.674-4.561,0.977-7.485c1.327-2.411,4.45-3.334,5.896-5.056
			c-0.514,1.777,0.093,5.545-1.107,7.548C191.814,86.9,188.791,87.376,187.286,89.192z"/>
		<path fill="#9B7132" d="M187.346,89.192c-0.635-2.22,0.674-4.561-0.977-7.485c-1.327-2.411-4.45-3.334-5.897-5.056
			c0.514,1.777-0.093,5.545,1.107,7.548C182.818,86.9,185.842,87.376,187.346,89.192z"/>
		<path fill="#875B13" d="M187.545,90.663c-0.675-2.979-3.682-4.862-3.625-9.302c0.007-3.639,3.042-6.696,3.625-9.611
			c0.534,2.389,3.632,6.372,3.513,9.457C191.339,85.127,188.135,87.6,187.545,90.663z"/>
		<path fill="#875B13" d="M188.374,101.454c-0.221-3.688-0.506-8.768,2.339-10.792c3.31-2.951,4.721-2.403,8.79-6.79
			c-0.211,1.859,0.505,9.404-5.438,13.24C191.213,99.021,188.69,101.19,188.374,101.454z"/>
		<path fill="#875B13" d="M188.374,114.493c-0.221-3.688-0.506-8.768,2.339-10.791c3.31-2.951,4.721-2.402,8.79-6.791
			c-0.211,1.859,0.505,9.405-5.438,13.241C191.213,112.061,188.69,114.229,188.374,114.493z"/>
		<path fill="#875B13" d="M188.374,128.151c-0.221-3.689-0.506-8.768,2.339-10.792c3.31-2.951,4.721-2.403,8.79-6.79
			c-0.211,1.858,0.505,9.403-5.438,13.24C191.213,125.717,188.69,127.887,188.374,128.151z"/>
		<path fill="#875B13" d="M188.374,141.527c-0.221-3.688-0.506-8.768,2.339-10.791c3.31-2.951,4.721-2.403,8.79-6.791
			c-0.211,1.858,0.505,9.404-5.438,13.24C191.213,139.094,188.69,141.264,188.374,141.527z"/>
		<path fill="#875B13" d="M186.558,101.454c0.221-3.688,0.506-8.768-2.339-10.792c-3.31-2.951-4.721-2.403-8.789-6.79
			c0.21,1.859-0.506,9.404,5.438,13.24C183.719,99.021,186.242,101.19,186.558,101.454z"/>
		<path fill="#875B13" d="M186.558,114.493c0.221-3.688,0.506-8.768-2.339-10.791c-3.31-2.951-4.721-2.402-8.789-6.791
			c0.21,1.859-0.506,9.405,5.438,13.241C183.719,112.061,186.242,114.229,186.558,114.493z"/>
		<path fill="#875B13" d="M186.558,128.151c0.221-3.689,0.506-8.768-2.339-10.792c-3.31-2.951-4.721-2.403-8.789-6.79
			c0.21,1.858-0.506,9.403,5.438,13.24C183.719,125.717,186.242,127.887,186.558,128.151z"/>
		<path fill="#875B13" d="M186.558,141.527c0.221-3.688,0.506-8.768-2.339-10.791c-3.31-2.951-4.721-2.403-8.789-6.791
			c0.21,1.858-0.506,9.404,5.438,13.24C183.719,139.094,186.242,141.264,186.558,141.527z"/>
		<path fill="#875B13" d="M187.636,148.518c-0.257-1.98-1.998-3.901-3.418-4.911c-3.31-2.951-4.721-2.403-8.789-6.791
			c0.21,1.858-0.506,9.403,5.438,13.24c2.852,1.909,5.375,4.078,5.691,4.342h1.816c0.316-0.264,2.839-2.433,5.691-4.342
			c5.943-3.836,5.227-11.381,5.438-13.24c-4.068,4.387-5.48,3.839-8.79,6.791C189.317,144.6,187.903,146.579,187.636,148.518"/>
	</g>
</g>
</svg>
