<?xml version="1.0" encoding="utf-8"?>
<!-- Generator: Adobe Illustrator 16.0.0, SVG Export Plug-In . SVG Version: 6.00 Build 0)  -->
<!DOCTYPE svg PUBLIC "-//W3C//DTD SVG 1.1//EN" "http://www.w3.org/Graphics/SVG/1.1/DTD/svg11.dtd">
<svg version="1.1" xmlns="http://www.w3.org/2000/svg" xmlns:xlink="http://www.w3.org/1999/xlink" x="0px" y="0px" width="1920px"
	 height="1080px" viewBox="0 0 1920 1080" enable-background="new 0 0 1920 1080" xml:space="preserve">
<g id="UPPER_PANEL">
	<rect y="111.261" display="none" opacity="0.9" fill="#393A39" width="578.658" height="976.239"/>
	<rect y="6.829" opacity="0.4" fill="#020304" enable-background="new    " width="1920" height="29.073"/>
	<path opacity="0.4" fill="#020304" enable-background="new    " d="M1432.417,37.088c-3.479-0.52,0.319-21.306-7.145-21.415
		c-6.412-0.093-12.82,0.172-19.231,0.01c-4.083-0.104-7.758-1.96-8.176-5.718c-0.131-1.173,0.2-2.487,0.895-3.638H496.178
		c-4.659,4.308-11.437,5.422-16.465,9.229c-2.515,1.904-3.983,4.584-6.134,6.741c-1.963,1.968-2.119,5.955-4.22,7.754l-2.031,1.917
		c21.548,23.784,35.153,54.884,95.803,54.884h788.737c60.721,0,73.979-30.807,95.55-54.596L1432.417,37.088z"/>
	
		<linearGradient id="SVGID_1_" gradientUnits="userSpaceOnUse" x1="-539.04" y1="1313.6543" x2="1380.96" y2="1313.6543" gradientTransform="matrix(1 0 0 -1 539.04 1324.3398)">
		<stop  offset="0.15" style="stop-color:#585857"/>
		<stop  offset="0.1952" style="stop-color:#4B4D4D"/>
		<stop  offset="0.2605" style="stop-color:#3E4142"/>
		<stop  offset="0.3432" style="stop-color:#373B3D"/>
		<stop  offset="0.5" style="stop-color:#34393B"/>
		<stop  offset="0.6568" style="stop-color:#373C3E"/>
		<stop  offset="0.7395" style="stop-color:#414446"/>
		<stop  offset="0.8048" style="stop-color:#535555"/>
		<stop  offset="0.85" style="stop-color:#656464"/>
	</linearGradient>
	<rect y="0.005" fill="url(#SVGID_1_)" width="1920" height="21.359"/>
	<g>
		
			<linearGradient id="SVGID_2_" gradientUnits="userSpaceOnUse" x1="1323.7036" y1="1196.2676" x2="1295.6659" y2="1340.5093" gradientTransform="matrix(1 0 0 -1 539.04 1324.3398)">
			<stop  offset="0" style="stop-color:#34393B"/>
			<stop  offset="0.8226" style="stop-color:#626262"/>
		</linearGradient>
		<path fill="url(#SVGID_2_)" d="M1751.51,0.005c-5.724,8.675-2.01,21.359-2.01,21.359c15.083,0.438,33.667,24.679,33.667,43.213
			c0,35.945,29.138,65.083,65.083,65.083c35.944,0,65.083-29.138,65.083-65.083c0-16.942,1.792-26.381,6.667-35.427
			c7.228-13.413,11.864-23.082,10.421-29.146L1751.51,0.005L1751.51,0.005z"/>
	</g>
	<g>
		<path fill="#888989" d="M1848.25,120.829c-31.017,0-56.25-25.233-56.25-56.25c0-31.017,25.233-56.25,56.25-56.25
			s56.25,25.233,56.25,56.25C1904.5,95.595,1879.267,120.829,1848.25,120.829z"/>
		<path fill="#875C13" d="M1848.25,9.829c30.188,0,54.75,24.561,54.75,54.75c0,30.188-24.562,54.75-54.75,54.75
			s-54.75-24.562-54.75-54.75C1793.5,34.389,1818.062,9.829,1848.25,9.829 M1848.25,6.829c-31.896,0-57.75,25.854-57.75,57.75
			c0,31.895,25.854,57.75,57.75,57.75S1906,96.473,1906,64.579C1906,32.683,1880.146,6.829,1848.25,6.829L1848.25,6.829z"/>
	</g>
	
		<linearGradient id="SVGID_3_" gradientUnits="userSpaceOnUse" x1="362.4849" y1="1484.8945" x2="486.9265" y2="1123.49" gradientTransform="matrix(1 0 0 -1 539.04 1324.3398)">
		<stop  offset="0.0968" style="stop-color:#878787"/>
		<stop  offset="0.2454" style="stop-color:#6D7172"/>
		<stop  offset="0.4211" style="stop-color:#565B5E"/>
		<stop  offset="0.5376" style="stop-color:#4E5457"/>
		<stop  offset="0.6288" style="stop-color:#595F61"/>
		<stop  offset="0.7881" style="stop-color:#787B7C"/>
		<stop  offset="0.8978" style="stop-color:#919292"/>
		<stop  offset="1" style="stop-color:#949494"/>
	</linearGradient>
	<path fill="url(#SVGID_3_)" d="M429.415,2.005c38.118,12.115,47.743,78.636,133.216,78.636c42.421,0,216.287,0,394.369,0h1
		c178.082,0,351.947,0,394.369,0c85.473,0,95.099-66.521,133.216-78.636H429.415z"/>
</g>
<g id="UPPER_ICONS_1_">
	
		<linearGradient id="SVGID_4_" gradientUnits="userSpaceOnUse" x1="314.0796" y1="1277.5391" x2="341.3775" y2="1259.8116" gradientTransform="matrix(1 0 0 -1 539.04 1324.3398)">
		<stop  offset="0" style="stop-color:#CFCECE"/>
		<stop  offset="0.1077" style="stop-color:#DEDEDE"/>
		<stop  offset="0.2266" style="stop-color:#EAEAEA"/>
		<stop  offset="0.3172" style="stop-color:#EFEEEE"/>
		<stop  offset="0.5138" style="stop-color:#DBDBDB"/>
		<stop  offset="0.6559" style="stop-color:#D0D0D0"/>
		<stop  offset="0.7329" style="stop-color:#D6D6D6"/>
		<stop  offset="0.838" style="stop-color:#E2E1E1"/>
		<stop  offset="0.9587" style="stop-color:#F8F7F7"/>
		<stop  offset="1" style="stop-color:#FFFFFF"/>
	</linearGradient>
	<path fill="url(#SVGID_4_)" d="M881.154,63.393v-11.25c0-5.667-5.698-10.263-12.729-10.263h-4.405
		c-7.029,0-12.729,4.595-12.729,10.263v11.25H881.154z"/>
	
		<linearGradient id="SVGID_5_" gradientUnits="userSpaceOnUse" x1="318.2363" y1="1302.6787" x2="335.85" y2="1291.2402" gradientTransform="matrix(1 0 0 -1 539.04 1324.3398)">
		<stop  offset="0" style="stop-color:#CFCECE"/>
		<stop  offset="0.1077" style="stop-color:#DEDEDE"/>
		<stop  offset="0.2266" style="stop-color:#EAEAEA"/>
		<stop  offset="0.3172" style="stop-color:#EFEEEE"/>
		<stop  offset="0.5138" style="stop-color:#DBDBDB"/>
		<stop  offset="0.6559" style="stop-color:#D0D0D0"/>
		<stop  offset="0.7329" style="stop-color:#D6D6D6"/>
		<stop  offset="0.838" style="stop-color:#E2E1E1"/>
		<stop  offset="0.9587" style="stop-color:#F8F7F7"/>
		<stop  offset="1" style="stop-color:#FFFFFF"/>
	</linearGradient>
	<circle fill="url(#SVGID_5_)" cx="866.083" cy="27.38" r="10.5"/>
	
		<linearGradient id="SVGID_6_" gradientUnits="userSpaceOnUse" x1="337.6714" y1="1282.6465" x2="356.0205" y2="1261.5382" gradientTransform="matrix(1 0 0 -1 539.04 1324.3398)">
		<stop  offset="0.0645" style="stop-color:#989797"/>
		<stop  offset="0.3446" style="stop-color:#73787C"/>
		<stop  offset="0.5161" style="stop-color:#636B6F"/>
		<stop  offset="0.618" style="stop-color:#676F72"/>
		<stop  offset="0.7213" style="stop-color:#747A7E"/>
		<stop  offset="0.8253" style="stop-color:#878D90"/>
		<stop  offset="0.9291" style="stop-color:#A4A6A7"/>
		<stop  offset="0.9946" style="stop-color:#BBBABA"/>
	</linearGradient>
	<path fill="url(#SVGID_6_)" d="M882.162,41.993h-4.185c-0.597,0-1.178,0.049-1.75,0.12c4.608,0.722,8.151,4.981,8.151,10.143
		v11.249h9.871v-11.25C894.25,46.588,888.838,41.993,882.162,41.993z"/>
	
		<linearGradient id="SVGID_7_" gradientUnits="userSpaceOnUse" x1="334.3584" y1="1304.4287" x2="347.0901" y2="1289.7827" gradientTransform="matrix(1 0 0 -1 539.04 1324.3398)">
		<stop  offset="0.0645" style="stop-color:#989797"/>
		<stop  offset="0.3446" style="stop-color:#73787C"/>
		<stop  offset="0.5161" style="stop-color:#636B6F"/>
		<stop  offset="0.618" style="stop-color:#676F72"/>
		<stop  offset="0.7213" style="stop-color:#747A7E"/>
		<stop  offset="0.8253" style="stop-color:#878D90"/>
		<stop  offset="0.9291" style="stop-color:#A4A6A7"/>
		<stop  offset="0.9946" style="stop-color:#BBBABA"/>
	</linearGradient>
	<path fill="url(#SVGID_7_)" d="M879.228,17.457c-1.396,0-2.722,0.287-3.927,0.801c2.804,1.517,4.77,5.03,4.77,9.123
		s-1.966,7.606-4.77,9.123c1.205,0.514,2.531,0.801,3.927,0.801c5.507,0,9.972-4.443,9.972-9.924S884.733,17.457,879.228,17.457z"/>
	<g>
		<path opacity="0.43" d="M552.064,54.988c2.568,1.746,5.613,2.502,8.663,2.782c2.082,0.191,3.948,0.294,6.019,0.037
			c1.952-0.244,3.941-0.653,5.754-1.358c0.672-0.262,1.37-0.45,1.983-0.828c0.599-0.37,1.144-0.82,1.728-1.212
			c0.582-0.39,1.08-0.707,1.484-1.306c0.382-0.566,0.886-0.935,1.184-1.563c0.302-0.637,0.526-1.308,0.706-1.989
			c0.192-0.721,0.211-1.408,0.15-2.147c-0.021-0.261-0.479-2.646-0.432-2.679c-0.685,0.451-1.827-0.241-2.533-0.415
			c-0.845-0.208-1.705-0.342-2.564-0.467c-5.956-0.865-12.109-0.488-18.095-0.169c-1.424,0.076-2.843,0.21-4.267,0.277
			c-0.619,0.029-1.241,0.01-1.858,0.039c-0.385,0.018-0.721,0.26-1.092,0.266c-0.245,0.004-0.454-0.181-0.653-0.304
			c-0.143-0.089-0.221,1.054-0.222,1.089c-0.015,0.464-0.028,0.928-0.033,1.392c-0.017,1.444-0.189,3.212,0.488,4.549
			C549.322,52.659,550.574,53.976,552.064,54.988z"/>
		<g>
			<path fill="#B98124" d="M579.632,48.072c0,4.834-7.071,8.753-15.793,8.753c-8.723,0-15.793-3.919-15.793-8.753
				c0,0,0.008-3.281,0.004-3.474c-0.004-0.193,31.582-0.551,31.582-0.551V48.072z"/>
			<ellipse fill="#FAF29D" cx="563.839" cy="44.801" rx="15.793" ry="8.752"/>
			<ellipse fill="#EABC24" cx="563.839" cy="44.405" rx="15.793" ry="8.357"/>
			<linearGradient id="SVGID_8_" gradientUnits="userSpaceOnUse" x1="550.5107" y1="42.3853" x2="577.1675" y2="45.6583">
				<stop  offset="0.0699" style="stop-color:#FDD496"/>
				<stop  offset="0.2796" style="stop-color:#FFCC07"/>
				<stop  offset="0.5322" style="stop-color:#B37D11"/>
				<stop  offset="0.7688" style="stop-color:#AD7713"/>
				<stop  offset="1" style="stop-color:#EBC604"/>
			</linearGradient>
			<path fill="#D6A815" stroke="url(#SVGID_8_)" stroke-width="2" stroke-miterlimit="10" d="M576.336,44.021
				c0,3.547-5.596,6.415-12.497,6.415c-6.902,0-12.497-2.867-12.497-6.415c0-3.547,5.595-6.414,12.497-6.414
				C570.74,37.607,576.336,40.475,576.336,44.021z"/>
		</g>
		<path opacity="0.43" d="M552.064,48.855c2.568,1.745,5.613,2.501,8.663,2.782c2.082,0.192,3.948,0.295,6.019,0.036
			c1.952-0.243,3.941-0.653,5.754-1.358c0.672-0.262,1.37-0.45,1.983-0.828c0.599-0.37,1.144-0.82,1.728-1.211
			c0.582-0.39,1.08-0.706,1.484-1.306c0.382-0.566,0.886-0.936,1.184-1.563c0.302-0.637,0.526-1.308,0.706-1.989
			c0.192-0.721,0.211-1.408,0.15-2.147c-0.021-0.261-0.479-2.646-0.432-2.678c-0.685,0.45-1.827-0.242-2.533-0.416
			c-0.845-0.208-1.705-0.342-2.564-0.467c-5.956-0.865-12.109-0.489-18.095-0.169c-1.424,0.076-2.843,0.21-4.267,0.277
			c-0.619,0.03-1.241,0.01-1.858,0.039c-0.385,0.018-0.721,0.26-1.092,0.266c-0.245,0.004-0.454-0.181-0.653-0.304
			c-0.143-0.088-0.221,1.055-0.222,1.09c-0.015,0.464-0.028,0.928-0.033,1.392c-0.017,1.444-0.189,3.213,0.488,4.549
			C549.322,46.525,550.574,47.842,552.064,48.855z"/>
		<g>
			<path fill="#B98124" d="M579.632,41.773c0,4.833-7.071,8.752-15.793,8.752c-8.723,0-15.793-3.919-15.793-8.752
				c0,0,0.008-3.281,0.004-3.474c-0.004-0.193,31.582-0.551,31.582-0.551V41.773z"/>
			<ellipse fill="#FAF29D" cx="563.839" cy="38.502" rx="15.793" ry="8.752"/>
			<ellipse fill="#EABC24" cx="563.839" cy="38.105" rx="15.793" ry="8.357"/>
			<linearGradient id="SVGID_9_" gradientUnits="userSpaceOnUse" x1="550.5107" y1="36.0864" x2="577.1675" y2="39.3595">
				<stop  offset="0.0699" style="stop-color:#FDD496"/>
				<stop  offset="0.2796" style="stop-color:#FFCC07"/>
				<stop  offset="0.5322" style="stop-color:#B37D11"/>
				<stop  offset="0.7688" style="stop-color:#AD7713"/>
				<stop  offset="1" style="stop-color:#EBC604"/>
			</linearGradient>
			<path fill="#D6A815" stroke="url(#SVGID_9_)" stroke-width="2" stroke-miterlimit="10" d="M576.336,37.722
				c0,3.547-5.596,6.415-12.497,6.415c-6.902,0-12.497-2.867-12.497-6.415s5.595-6.414,12.497-6.414
				C570.74,31.308,576.336,34.175,576.336,37.722z"/>
		</g>
		<path opacity="0.43" d="M552.064,42.313c2.568,1.746,5.613,2.501,8.663,2.782c2.082,0.192,3.948,0.295,6.019,0.037
			c1.952-0.243,3.941-0.653,5.754-1.358c0.672-0.262,1.37-0.45,1.983-0.828c0.599-0.37,1.144-0.82,1.728-1.212
			c0.582-0.39,1.08-0.707,1.484-1.306c0.382-0.566,0.886-0.935,1.184-1.563c0.302-0.637,0.526-1.308,0.706-1.989
			c0.192-0.721,0.211-1.408,0.15-2.148c-0.021-0.261-0.479-2.646-0.432-2.678c-0.685,0.45-1.827-0.242-2.533-0.416
			c-0.845-0.208-1.705-0.342-2.564-0.467c-5.956-0.865-12.109-0.488-18.095-0.169c-1.424,0.076-2.843,0.21-4.267,0.277
			c-0.619,0.029-1.241,0.01-1.858,0.039c-0.385,0.018-0.721,0.26-1.092,0.266c-0.245,0.004-0.454-0.181-0.653-0.304
			c-0.143-0.088-0.221,1.054-0.222,1.09c-0.015,0.464-0.028,0.928-0.033,1.392c-0.017,1.444-0.189,3.212,0.488,4.549
			C549.322,39.983,550.574,41.3,552.064,42.313z"/>
		<g>
			<path fill="#B98124" d="M579.632,35.474c0,4.833-7.071,8.752-15.793,8.752c-8.723,0-15.793-3.919-15.793-8.752
				c0,0,0.008-3.281,0.004-3.474c-0.004-0.193,31.582-0.551,31.582-0.551V35.474z"/>
			<ellipse fill="#FAF29D" cx="563.839" cy="32.203" rx="15.793" ry="8.752"/>
			<ellipse fill="#EABC24" cx="563.839" cy="31.806" rx="15.793" ry="8.356"/>
			<linearGradient id="SVGID_10_" gradientUnits="userSpaceOnUse" x1="550.5112" y1="29.7861" x2="577.168" y2="33.0592">
				<stop  offset="0.0699" style="stop-color:#FDD496"/>
				<stop  offset="0.2796" style="stop-color:#FFCC07"/>
				<stop  offset="0.5322" style="stop-color:#B37D11"/>
				<stop  offset="0.7688" style="stop-color:#AD7713"/>
				<stop  offset="1" style="stop-color:#EBC604"/>
			</linearGradient>
			<path fill="#D6A815" stroke="url(#SVGID_10_)" stroke-width="2" stroke-miterlimit="10" d="M576.336,31.423
				c0,3.547-5.596,6.415-12.497,6.415c-6.902,0-12.497-2.867-12.497-6.415s5.595-6.415,12.497-6.415
				C570.74,25.008,576.336,27.875,576.336,31.423z"/>
		</g>
		<path opacity="0.43" d="M552.064,35.771c2.568,1.745,5.613,2.501,8.663,2.782c2.082,0.191,3.948,0.294,6.019,0.036
			c1.952-0.243,3.941-0.652,5.754-1.358c0.672-0.261,1.37-0.449,1.983-0.828c0.599-0.37,1.144-0.82,1.728-1.212
			c0.582-0.39,1.08-0.707,1.484-1.306c0.382-0.566,0.886-0.935,1.184-1.563c0.302-0.637,0.526-1.309,0.706-1.989
			c0.192-0.721,0.211-1.408,0.15-2.148c-0.021-0.261-0.479-2.646-0.432-2.678c-0.685,0.45-1.827-0.242-2.533-0.416
			c-0.845-0.208-1.705-0.342-2.564-0.467c-5.956-0.865-12.109-0.488-18.095-0.169c-1.424,0.076-2.843,0.21-4.267,0.277
			c-0.619,0.029-1.241,0.01-1.858,0.039c-0.385,0.018-0.721,0.26-1.092,0.267c-0.245,0.004-0.454-0.181-0.653-0.305
			c-0.143-0.088-0.221,1.055-0.222,1.09c-0.015,0.463-0.028,0.927-0.033,1.392c-0.017,1.444-0.189,3.212,0.488,4.548
			C549.322,33.441,550.574,34.758,552.064,35.771z"/>
		<g>
			<path fill="#B98124" d="M579.632,29.046c0,4.833-7.071,8.752-15.793,8.752c-8.723,0-15.793-3.919-15.793-8.752
				c0,0,0.008-3.281,0.004-3.474c-0.004-0.193,31.582-0.551,31.582-0.551V29.046z"/>
			<ellipse fill="#FAF29D" cx="563.839" cy="25.775" rx="15.793" ry="8.752"/>
			<ellipse fill="#EABC24" cx="563.839" cy="25.379" rx="15.793" ry="8.357"/>
			<linearGradient id="SVGID_11_" gradientUnits="userSpaceOnUse" x1="550.5107" y1="23.3584" x2="577.168" y2="26.6315">
				<stop  offset="0.0699" style="stop-color:#FDD496"/>
				<stop  offset="0.2796" style="stop-color:#FFCC07"/>
				<stop  offset="0.5322" style="stop-color:#B37D11"/>
				<stop  offset="0.7688" style="stop-color:#AD7713"/>
				<stop  offset="1" style="stop-color:#EBC604"/>
			</linearGradient>
			<path fill="#D6A815" stroke="url(#SVGID_11_)" stroke-width="2" stroke-miterlimit="10" d="M576.336,24.996
				c0,3.547-5.596,6.415-12.497,6.415c-6.902,0-12.497-2.867-12.497-6.415c0-3.547,5.595-6.414,12.497-6.414
				C570.74,18.582,576.336,21.449,576.336,24.996z"/>
		</g>
		<path opacity="0.43" d="M552.064,29.638c2.568,1.745,5.613,2.501,8.663,2.782c2.082,0.192,3.948,0.295,6.019,0.037
			c1.952-0.244,3.941-0.653,5.754-1.358c0.672-0.262,1.37-0.45,1.983-0.828c0.599-0.37,1.144-0.82,1.728-1.212
			c0.582-0.39,1.08-0.706,1.484-1.306c0.382-0.566,0.886-0.935,1.184-1.563c0.302-0.637,0.526-1.308,0.706-1.988
			c0.192-0.721,0.211-1.408,0.15-2.148c-0.021-0.26-0.479-2.646-0.432-2.678c-0.685,0.45-1.827-0.242-2.533-0.416
			c-0.845-0.208-1.705-0.342-2.564-0.467c-5.956-0.865-12.109-0.489-18.095-0.169c-1.424,0.076-2.843,0.21-4.267,0.277
			c-0.619,0.03-1.241,0.01-1.858,0.039c-0.385,0.018-0.721,0.26-1.092,0.267c-0.245,0.004-0.454-0.182-0.653-0.304
			c-0.143-0.088-0.221,1.054-0.222,1.089c-0.015,0.464-0.028,0.928-0.033,1.392c-0.017,1.444-0.189,3.212,0.488,4.549
			C549.322,27.308,550.574,28.625,552.064,29.638z"/>
		<g>
			<path fill="#B98124" d="M579.632,22.708c0,4.834-7.071,8.753-15.793,8.753c-8.723,0-15.793-3.919-15.793-8.753
				c0,0,0.008-3.281,0.004-3.474c-0.004-0.193,31.582-0.551,31.582-0.551V22.708z"/>
			<ellipse fill="#FAF29D" cx="563.839" cy="19.438" rx="15.793" ry="8.753"/>
			<ellipse fill="#EABC24" cx="563.839" cy="19.041" rx="15.793" ry="8.357"/>
			<linearGradient id="SVGID_12_" gradientUnits="userSpaceOnUse" x1="550.5107" y1="17.0215" x2="577.1675" y2="20.2945">
				<stop  offset="0.0699" style="stop-color:#FDD496"/>
				<stop  offset="0.2796" style="stop-color:#FFCC07"/>
				<stop  offset="0.5322" style="stop-color:#B37D11"/>
				<stop  offset="0.7688" style="stop-color:#AD7713"/>
				<stop  offset="1" style="stop-color:#EBC604"/>
			</linearGradient>
			<path fill="#D6A815" stroke="url(#SVGID_12_)" stroke-width="2" stroke-miterlimit="10" d="M576.336,18.658
				c0,3.547-5.596,6.415-12.497,6.415c-6.902,0-12.497-2.867-12.497-6.415c0-3.546,5.595-6.414,12.497-6.414
				C570.74,12.244,576.336,15.111,576.336,18.658z"/>
		</g>
		<path opacity="0.43" d="M569.238,65.211c2.567,1.745,5.613,2.501,8.663,2.781c2.081,0.192,3.947,0.295,6.019,0.037
			c1.952-0.243,3.941-0.653,5.754-1.358c0.672-0.262,1.369-0.45,1.982-0.828c0.6-0.37,1.144-0.82,1.729-1.212
			c0.582-0.39,1.08-0.707,1.484-1.306c0.381-0.566,0.886-0.935,1.184-1.563c0.302-0.637,0.525-1.308,0.707-1.989
			c0.191-0.721,0.21-1.408,0.15-2.147c-0.021-0.261-0.48-2.646-0.432-2.679c-0.685,0.451-1.827-0.241-2.534-0.416
			c-0.844-0.207-1.705-0.342-2.565-0.467c-5.956-0.865-12.109-0.488-18.095-0.169c-1.423,0.076-2.842,0.21-4.267,0.277
			c-0.619,0.03-1.24,0.01-1.858,0.039c-0.384,0.018-0.721,0.26-1.092,0.266c-0.244,0.004-0.454-0.181-0.652-0.304
			c-0.143-0.088-0.221,1.055-0.223,1.09c-0.016,0.464-0.028,0.928-0.034,1.392c-0.016,1.444-0.189,3.213,0.488,4.549
			C566.496,62.881,567.747,64.198,569.238,65.211z"/>
		<g>
			<path fill="#B98124" d="M596.783,58.46c0,4.834-7.071,8.753-15.793,8.753c-8.723,0-15.793-3.919-15.793-8.753
				c0,0,0.008-3.28,0.004-3.474c-0.004-0.193,31.582-0.551,31.582-0.551V58.46z"/>
			<ellipse fill="#FAF29D" cx="580.99" cy="55.189" rx="15.793" ry="8.753"/>
			<ellipse fill="#EABC24" cx="580.99" cy="54.793" rx="15.793" ry="8.357"/>
			<linearGradient id="SVGID_13_" gradientUnits="userSpaceOnUse" x1="567.6611" y1="52.7739" x2="594.3184" y2="56.047">
				<stop  offset="0.0699" style="stop-color:#FDD496"/>
				<stop  offset="0.2796" style="stop-color:#FFCC07"/>
				<stop  offset="0.5322" style="stop-color:#B37D11"/>
				<stop  offset="0.7688" style="stop-color:#AD7713"/>
				<stop  offset="1" style="stop-color:#EBC604"/>
			</linearGradient>
			<path fill="#D6A815" stroke="url(#SVGID_13_)" stroke-width="2" stroke-miterlimit="10" d="M593.486,54.41
				c0,3.547-5.595,6.415-12.497,6.415c-6.902,0-12.497-2.868-12.497-6.415c0-3.547,5.595-6.414,12.497-6.414
				C587.891,47.996,593.486,50.863,593.486,54.41z"/>
		</g>
		<path opacity="0.54" d="M571.032,53.447c0.274,0.869,0.625,1.743,1.27,2.411c0.9,0.931,2.308,1.496,3.567,1.726
			c1.172,0.213,2.36,0.302,3.548,0.388c1.042,0.075,1.948,0.451,2.977,0.609c1.124,0.173,2.267,0.133,3.394,0.023
			c0.999-0.098,2.23-0.558,3.216-0.462c-0.688-0.066-1.455-0.541-2.122-0.746c-1.044-0.321-1.829-0.946-2.777-1.433
			c-0.875-0.449-1.846-0.643-2.701-1.168c-1.591-0.977-3.438-2.115-4.576-3.632c-0.893-1.191-0.866-2.817-1.475-4.151
			c-1.038-2.271-2.549-4.274-3.474-6.612c-0.511-1.293-0.685-2.687-0.732-4.068c-0.02-0.582-0.047-1.16-0.045-1.742
			c0.002-0.559,0.02-0.698,0.486-1.075c0.38-0.308,0.802-0.55,1.195-0.838c0.675-0.496,1.334-1.173,1.732-1.916
			c-0.41,0.402-1.113,0.679-1.619,0.894c-0.906,0.385-1.799,1.027-2.793,1.21c-0.475,0.087-0.973,0.148-1.458,0.236
			c-0.29,0.052-0.63,0.012-0.907,0.125c-0.244,0.1-0.42,0.442-0.687,0.371c0.456-0.094,2.993-0.477,1.767,0.407
			c-0.835,0.601-0.733,1.86-1.537,2.559c-0.528,0.458-1.229,0.828-1.689,1.35c0.527-0.102,1.024-0.071,1.56-0.087
			c0.685-0.02,2.361-0.529,2.279,0.583c-0.029,0.397-0.396,0.733-0.706,0.936c-0.815,0.534-1.932,0.542-2.87,0.649
			c-0.202,0.023-0.4,0.003-0.598,0.035c-0.275,0.044-0.505,0.175-0.783,0.042c0.619,0.297,1.418,0.11,2.015,0.522
			c0.834,0.578-0.055,1.887-0.479,2.459c-0.237,0.32-0.578,0.636-0.934,0.818c-0.395,0.202-0.868,0.213-1.223,0.496
			c0.178,0.038,0.36-0.079,0.548-0.084c0.176-0.005,0.388-0.009,0.564,0.001c0.362,0.021,0.682,0.09,1.03,0.162
			c0.6,0.122,1.204,0.016,1.792-0.114c0.417-0.092,0.846-0.357,1.243-0.425c0.533-0.091,1.281-0.318,1.303,0.424
			c0.012,0.422-0.313,1.1-0.666,1.349c-0.697,0.492-1.528,0.405-2.333,0.454c-0.852,0.052-1.722,0.189-2.58,0.271
			c0.401,0.175,0.883,0.069,1.323,0.088c0.63,0.027,1.984-0.21,1.207,0.854c-0.402,0.55-0.822,1.084-1.261,1.605
			c-0.323,0.384-0.61,0.733-1.02,1.032c-0.441,0.321-0.808,0.302-1.291,0.45c0.639,0.182,1.21,0.04,1.848,0.057
			c0.623,0.016,1.359,0.094,1.903-0.308c0.077,0.351-0.481,0.681-0.684,0.912c-0.322,0.367-0.7,0.762-0.82,1.249
			c0.19-0.295,0.422-0.544,0.673-0.792c0.529-0.521,1.217-1.129,1.993-1.196c1.886-0.162,0.664,1.04,0.126,1.757
			c0.367-0.488,0.861-0.98,1.303-1.407c0.287-0.278,0.895-0.854,1.323-0.477c0.466,0.412-0.975,1.388-1.208,1.608
			c-0.314,0.296-0.552,0.625-0.748,1.008c0.173-0.338,0.499-0.728,0.924-0.618C570.895,52.367,570.894,53.014,571.032,53.447z"/>
		<g>
			<path fill="#B98124" d="M590.624,57.863c-3.92,2.827-11.234-0.618-16.335-7.693c-5.102-7.076-6.057-15.103-2.136-17.93
				c0,0,2.666-1.912,2.82-2.028c0.155-0.116,18.916,25.297,18.916,25.297L590.624,57.863z"/>
			
				<ellipse transform="matrix(0.5848 0.8112 -0.8112 0.5848 277.5025 -455.8593)" fill="#FAF29D" cx="584.042" cy="43.139" rx="15.793" ry="8.753"/>
			
				<ellipse transform="matrix(0.5848 0.8112 -0.8112 0.5848 277.4435 -456.2133)" fill="#EABC24" cx="584.363" cy="42.907" rx="15.793" ry="8.357"/>
			
				<linearGradient id="SVGID_14_" gradientUnits="userSpaceOnUse" x1="718.3076" y1="1370.5859" x2="744.9648" y2="1373.859" gradientTransform="matrix(0.5848 0.8112 -0.8112 0.5848 1269.9492 -1353.2695)">
				<stop  offset="0.0699" style="stop-color:#FDD496"/>
				<stop  offset="0.2796" style="stop-color:#FFCC07"/>
				<stop  offset="0.5322" style="stop-color:#B37D11"/>
				<stop  offset="0.7688" style="stop-color:#AD7713"/>
				<stop  offset="1" style="stop-color:#EBC604"/>
			</linearGradient>
			<path fill="#D6A815" stroke="url(#SVGID_14_)" stroke-width="2" stroke-miterlimit="10" d="M591.982,52.82
				c-2.878,2.074-8.475-0.788-12.511-6.386c-4.036-5.599-4.982-11.814-2.105-13.889c2.877-2.074,8.476,0.788,12.511,6.386
				C593.913,44.53,594.859,50.746,591.982,52.82z"/>
		</g>
	</g>
</g>
<g id="HOME_BUTTON_1_" display="none">
	<g display="inline">
		
			<linearGradient id="SVGID_15_" gradientUnits="userSpaceOnUse" x1="-267.3013" y1="1099.7197" x2="-219.543" y2="1182.4396" gradientTransform="matrix(1 0 0 -1 539.04 1324.3398)">
			<stop  offset="0" style="stop-color:#A6A5A4"/>
			<stop  offset="0.0061" style="stop-color:#A7A6A6"/>
			<stop  offset="0.1277" style="stop-color:#BDBDBC"/>
			<stop  offset="0.2353" style="stop-color:#CBCAC9"/>
			<stop  offset="0.3172" style="stop-color:#CFCECE"/>
			<stop  offset="0.4973" style="stop-color:#BFBEBD"/>
			<stop  offset="0.6559" style="stop-color:#B3B2B2"/>
			<stop  offset="0.723" style="stop-color:#B7B7B7"/>
			<stop  offset="0.8145" style="stop-color:#C6C5C6"/>
			<stop  offset="0.9196" style="stop-color:#DBDBDB"/>
			<stop  offset="1" style="stop-color:#EFEEEE"/>
		</linearGradient>
		<circle fill="url(#SVGID_15_)" cx="295.617" cy="183.261" r="47.75"/>
		<g>
			<path fill="#5C5C5C" d="M339.01,183.766c-0.345,23.883-18.42,44.985-43.146,44.627c-24.275-0.351-43.299-22.043-43.64-45.636
				c-0.346-23.898,18.939-44.978,43.146-44.627C319.646,138.48,338.669,160.172,339.01,183.766c0.056,3.842,8.758,2.017,8.715-1.009
				c-0.324-22.387-14.579-41.126-35.918-47.764c-21.188-6.59-44.927,2.099-58.324,19.267c-13.848,17.746-12.754,43.176,0.849,60.608
				c13.704,17.561,38.707,22.941,59.147,15.294c19.951-7.464,33.935-25.913,34.246-47.406
				C347.78,178.938,339.054,180.708,339.01,183.766z"/>
		</g>
	</g>
	<path display="inline" fill="#9C7232" d="M323.979,167.913c0.581-0.58-24.494-20.321-26.388-20.316
		c-1.894,0.005-27.048,19.559-26.333,20.274C271.974,168.587,323.398,168.493,323.979,167.913z"/>
	<path display="inline" fill="#9C7232" d="M319.551,173.265h-43.935c0,0-1.262,38.121,0,39.383c1.262,1.262,13.25,0,14.286,0
		c1.037,0-0.386-0.812-0.386-1.287v-13.534c0-1.3,1.054-2.354,2.354-2.354h11.474c1.3,0,2.354,1.054,2.354,2.354v13.534
		c0,0.476-1.313,1.287-0.386,1.287s13.1,1.14,14.24,0C320.692,211.508,319.551,173.265,319.551,173.265z M292.768,188.817
		c0,1.3-1.053,2.354-2.354,2.354h-5.843c-1.301,0-2.354-1.054-2.354-2.354v-5.843c0-1.3,1.053-2.354,2.354-2.354h5.843
		c1.3,0,2.354,1.054,2.354,2.354V188.817z M312.752,188.817c0,1.3-1.053,2.354-2.354,2.354h-5.843c-1.3,0-2.354-1.054-2.354-2.354
		v-5.843c0-1.3,1.053-2.354,2.354-2.354h5.843c1.3,0,2.354,1.054,2.354,2.354V188.817z"/>
	<path display="inline" fill="#875C13" d="M321.979,169.913c0.581-0.58-24.494-20.321-26.388-20.316
		c-1.894,0.005-27.048,19.559-26.333,20.274C269.974,170.587,321.398,170.493,321.979,169.913z"/>
	<path display="inline" fill="#875C13" d="M317.551,175.265h-43.935c0,0-1.262,38.121,0,39.383c1.262,1.262,13.25,0,14.286,0
		c1.037,0-0.386-0.812-0.386-1.287v-13.534c0-1.3,1.054-2.354,2.354-2.354h11.474c1.3,0,2.354,1.054,2.354,2.354v13.534
		c0,0.476-1.313,1.287-0.386,1.287s13.1,1.14,14.24,0C318.692,213.508,317.551,175.265,317.551,175.265z M290.768,190.817
		c0,1.3-1.053,2.354-2.354,2.354h-5.843c-1.301,0-2.354-1.054-2.354-2.354v-5.843c0-1.3,1.053-2.354,2.354-2.354h5.843
		c1.3,0,2.354,1.054,2.354,2.354V190.817z M310.752,190.817c0,1.3-1.053,2.354-2.354,2.354h-5.843c-1.3,0-2.354-1.054-2.354-2.354
		v-5.843c0-1.3,1.053-2.354,2.354-2.354h5.843c1.3,0,2.354,1.054,2.354,2.354V190.817z"/>
</g>
<g id="INVENTORY" display="none">
	<g display="inline">
		
			<linearGradient id="SVGID_16_" gradientUnits="userSpaceOnUse" x1="-47.5972" y1="1105.1953" x2="0.1606" y2="1187.9143" gradientTransform="matrix(1 0 0 -1 539.04 1324.3398)">
			<stop  offset="0" style="stop-color:#A6A5A4"/>
			<stop  offset="0.0061" style="stop-color:#A7A6A6"/>
			<stop  offset="0.1277" style="stop-color:#BDBDBC"/>
			<stop  offset="0.2353" style="stop-color:#CBCAC9"/>
			<stop  offset="0.3172" style="stop-color:#CFCECE"/>
			<stop  offset="0.4973" style="stop-color:#BFBEBD"/>
			<stop  offset="0.6559" style="stop-color:#B3B2B2"/>
			<stop  offset="0.723" style="stop-color:#B7B7B7"/>
			<stop  offset="0.8145" style="stop-color:#C6C5C6"/>
			<stop  offset="0.9196" style="stop-color:#DBDBDB"/>
			<stop  offset="1" style="stop-color:#EFEEEE"/>
		</linearGradient>
		<circle fill="url(#SVGID_16_)" cx="515.321" cy="177.785" r="47.75"/>
		<g>
			<path fill="#5C5C5C" d="M558.714,178.291c-0.345,23.883-18.42,44.985-43.146,44.627c-24.275-0.351-43.299-22.043-43.64-45.636
				c-0.346-23.898,18.939-44.978,43.146-44.627C539.35,133.004,558.373,154.696,558.714,178.291
				c0.056,3.842,8.758,2.017,8.715-1.009c-0.324-22.387-14.579-41.126-35.918-47.764c-21.188-6.59-44.927,2.099-58.324,19.267
				c-13.848,17.746-12.754,43.176,0.849,60.608c13.704,17.561,38.707,22.941,59.147,15.294
				c19.951-7.464,33.935-25.913,34.246-47.406C567.484,173.462,558.758,175.232,558.714,178.291z"/>
		</g>
	</g>
	<path display="inline" fill="#875C13" d="M536.258,164.623h-41.736c0,0-1.199,8.475,0,8.755h16.588v-4.231h8.306v4.231h16.842
		C537.342,173.125,536.258,164.623,536.258,164.623z"/>
	<path display="inline" fill="#875C13" d="M536.157,179.167h-4.074v1.375h-12.646v0.927h-8.327v-0.927h-12.667v-1.375h-4.022
		c0,0-1.199,25.278,0,26.115h41.737C537.241,204.525,536.157,179.167,536.157,179.167z"/>
	<rect x="498.938" y="182.208" display="inline" fill="#9C7232" width="2.396" height="21.313"/>
	<rect x="506.229" y="182.208" display="inline" fill="#9C7232" width="2.396" height="21.313"/>
	<rect x="521.938" y="182.208" display="inline" fill="#9C7232" width="2.396" height="21.313"/>
	<rect x="529.229" y="182.208" display="inline" fill="#9C7232" width="2.396" height="21.313"/>
	<rect x="513.938" y="183.792" display="inline" fill="#9C7232" width="2.396" height="19.729"/>
	<rect x="498.938" y="165.688" display="inline" fill="#9C7232" width="2.396" height="6.354"/>
	<rect x="506.229" y="165.688" display="inline" fill="#9C7232" width="2.396" height="6.354"/>
	<rect x="521.938" y="165.688" display="inline" fill="#9C7232" width="2.396" height="6.354"/>
	<rect x="529.229" y="165.688" display="inline" fill="#9C7232" width="2.396" height="6.354"/>
	<rect x="513.938" y="165.688" display="inline" fill="#9C7232" width="2.396" height="2.687"/>
</g>
<g id="MILITARY_BUTTON_1_" display="none">
	<g display="inline">
		
			<linearGradient id="SVGID_17_" gradientUnits="userSpaceOnUse" x1="-525.4014" y1="1138.6846" x2="-429.9014" y2="1138.6846" gradientTransform="matrix(1 0 0 -1 539.04 1324.3398)">
			<stop  offset="0" style="stop-color:#A6A5A4"/>
			<stop  offset="0.0061" style="stop-color:#A7A6A6"/>
			<stop  offset="0.1277" style="stop-color:#BDBDBC"/>
			<stop  offset="0.2353" style="stop-color:#CBCAC9"/>
			<stop  offset="0.3172" style="stop-color:#CFCECE"/>
			<stop  offset="0.4973" style="stop-color:#BFBEBD"/>
			<stop  offset="0.6559" style="stop-color:#B3B2B2"/>
			<stop  offset="0.723" style="stop-color:#B7B7B7"/>
			<stop  offset="0.8145" style="stop-color:#C6C5C6"/>
			<stop  offset="0.9196" style="stop-color:#DBDBDB"/>
			<stop  offset="1" style="stop-color:#EFEEEE"/>
		</linearGradient>
		<circle fill="url(#SVGID_17_)" cx="61.389" cy="185.655" r="47.75"/>
		<g>
			<path fill="#5C5C5C" d="M104.78,186.159c-0.345,23.883-18.42,44.985-43.145,44.627c-24.276-0.351-43.299-22.043-43.64-45.636
				c-0.346-23.898,18.939-44.977,43.145-44.627C85.417,140.874,104.439,162.566,104.78,186.159c0.056,3.842,8.758,2.017,8.715-1.009
				c-0.324-22.386-14.578-41.126-35.918-47.763c-21.188-6.59-44.927,2.099-58.324,19.267C5.405,174.4,6.5,199.83,20.103,217.262
				c13.704,17.561,38.707,22.941,59.147,15.294c19.951-7.464,33.935-25.913,34.246-47.406
				C113.55,181.332,104.826,183.102,104.78,186.159z"/>
		</g>
	</g>
	<g display="inline">
		<g>
			<path fill="#875C13" d="M87.729,161.604c0,0-0.125,0.276-0.361,0.794c-0.249,0.504-0.588,1.271-1.079,2.185
				c-0.479,0.926-1.06,2.052-1.766,3.301c-0.356,0.621-0.736,1.281-1.137,1.977c-0.195,0.355-0.493,0.614-0.804,0.858
				c-0.313,0.246-0.578,0.556-0.871,0.849c-1.154,1.19-2.404,2.479-3.727,3.842c-1.334,1.337-2.686,2.867-4.106,4.403
				c-1.412,1.552-2.889,3.124-4.35,4.79c-1.469,1.653-2.962,3.332-4.455,5.01c-1.5,1.688-3,3.375-4.478,5.036
				c-1.462,1.667-2.973,3.277-4.403,4.849c-1.444,1.563-2.803,3.101-4.188,4.491c-1.363,1.405-2.652,2.733-3.842,3.959
				c-0.293,0.312-0.602,0.593-0.855,0.918c-0.23,0.347-0.525,0.619-0.909,0.786c-0.728,0.37-1.418,0.721-2.067,1.051
				c-1.283,0.668-2.441,1.199-3.387,1.638c-0.936,0.449-1.709,0.755-2.219,0.981c-0.521,0.212-0.799,0.326-0.799,0.326
				s0.13-0.275,0.373-0.791c0.255-0.501,0.604-1.264,1.094-2.173c0.482-0.919,1.057-2.039,1.762-3.263
				c0.345-0.616,0.713-1.272,1.1-1.964c0.177-0.361,0.453-0.634,0.776-0.876c0.311-0.255,0.577-0.566,0.873-0.861
				c1.163-1.198,2.422-2.497,3.755-3.87c1.349-1.352,2.694-2.875,4.115-4.413c1.412-1.552,2.889-3.124,4.35-4.791
				c1.469-1.652,2.962-3.331,4.454-5.01c1.5-1.688,3.001-3.375,4.478-5.036c1.462-1.668,2.973-3.277,4.403-4.849
				c1.446-1.565,2.798-3.096,4.197-4.501c1.374-1.415,2.672-2.752,3.871-3.987c0.295-0.313,0.606-0.597,0.856-0.931
				c0.244-0.344,0.516-0.632,0.882-0.803c0.715-0.366,1.393-0.712,2.03-1.038c1.282-0.644,2.435-1.167,3.383-1.6
				c0.937-0.445,1.72-0.745,2.235-0.969C87.447,161.715,87.729,161.604,87.729,161.604z"/>
		</g>
		<g>
			<path fill="#875C13" d="M41.044,210.948c0,0-0.543,0.869-1.418,2.11c-0.432,0.626-0.933,1.361-1.498,2.119
				c-0.549,0.774-1.177,1.556-1.791,2.353c-0.629,0.781-1.102,1.721-1.749,2.396c-0.659,0.661-1.443,1.107-2.156,1.447
				c-0.718,0.335-1.397,0.532-1.911,0.63c-0.51,0.104-0.851,0.111-0.851,0.111l-0.28-0.285c0,0,0.014-0.342,0.126-0.849
				c0.108-0.512,0.317-1.188,0.666-1.899c0.353-0.707,0.813-1.482,1.487-2.129c0.686-0.635,1.634-1.09,2.427-1.705
				c0.808-0.599,1.602-1.212,2.386-1.747c0.768-0.55,1.512-1.037,2.146-1.458c1.258-0.852,2.136-1.379,2.136-1.379L41.044,210.948z"
				/>
		</g>
		<g>
			<path fill="#875C13" d="M29.979,200.361c0,0,0.568,0.056,1.491,0.241c0.462,0.091,1.024,0.201,1.634,0.368
				c0.309,0.079,0.638,0.163,0.984,0.25c0.178,0.039,0.295,0.156,0.399,0.295c0.106,0.137,0.249,0.235,0.381,0.352
				c2.16,1.821,5.04,4.25,7.92,6.678c2.88,2.428,5.76,4.856,7.92,6.678c0.138,0.11,0.259,0.235,0.408,0.321
				c0.159,0.073,0.283,0.183,0.344,0.359c0.146,0.327,0.284,0.637,0.414,0.928c0.267,0.574,0.471,1.108,0.643,1.543
				c0.342,0.873,0.502,1.413,0.502,1.413s-0.56-0.067-1.478-0.256c-0.458-0.096-1.019-0.207-1.63-0.373
				c-0.309-0.079-0.638-0.163-0.984-0.25c-0.184-0.031-0.313-0.134-0.413-0.279c-0.11-0.132-0.253-0.23-0.385-0.348
				c-2.16-1.821-5.04-4.25-7.92-6.678c-2.88-2.428-5.76-4.856-7.92-6.678c-0.138-0.111-0.259-0.235-0.412-0.316
				c-0.154-0.079-0.29-0.175-0.358-0.343c-0.146-0.327-0.284-0.637-0.414-0.928c-0.268-0.573-0.471-1.108-0.639-1.548
				C30.129,200.911,29.979,200.361,29.979,200.361z"/>
		</g>
	</g>
	<g display="inline">
		<g>
			<path fill="#875C13" d="M32.854,160.693c0,0,0.283,0.111,0.814,0.318c0.518,0.222,1.303,0.52,2.243,0.961
				c0.952,0.429,2.109,0.949,3.396,1.587c0.64,0.324,1.32,0.668,2.038,1.031c0.368,0.17,0.642,0.458,0.89,0.796
				c0.253,0.33,0.567,0.609,0.867,0.917c1.212,1.215,2.526,2.532,3.916,3.925c1.409,1.385,2.8,2.885,4.275,4.422
				c1.463,1.542,3.001,3.124,4.507,4.758c1.518,1.628,3.059,3.283,4.601,4.937c1.535,1.647,3.07,3.295,4.582,4.917
				c1.505,1.633,3.016,3.187,4.465,4.713c1.456,1.516,2.841,3.011,4.211,4.355c1.357,1.361,2.641,2.647,3.825,3.835
				c0.301,0.292,0.573,0.601,0.888,0.853c0.33,0.238,0.608,0.512,0.789,0.874c0.394,0.692,0.767,1.35,1.118,1.967
				c0.716,1.225,1.299,2.345,1.788,3.263c0.497,0.908,0.85,1.669,1.107,2.17c0.246,0.514,0.377,0.789,0.377,0.789
				s-0.279-0.113-0.803-0.324c-0.512-0.225-1.289-0.528-2.229-0.974c-0.948-0.436-2.11-0.96-3.395-1.622
				c-0.65-0.326-1.341-0.672-2.07-1.038c-0.384-0.164-0.679-0.435-0.915-0.777c-0.257-0.321-0.57-0.599-0.867-0.906
				c-1.206-1.209-2.512-2.519-3.894-3.904c-1.398-1.373-2.794-2.879-4.269-4.415c-1.463-1.542-3-3.124-4.507-4.758
				c-1.517-1.628-3.059-3.283-4.6-4.937c-1.536-1.647-3.071-3.295-4.582-4.917c-1.505-1.633-3.016-3.186-4.464-4.713
				c-1.455-1.515-2.845-3.015-4.204-4.348c-1.349-1.354-2.625-2.633-3.802-3.814c-0.299-0.291-0.569-0.598-0.888-0.842
				c-0.317-0.242-0.617-0.499-0.814-0.854c-0.405-0.695-0.789-1.354-1.149-1.974c-0.714-1.248-1.302-2.372-1.787-3.297
				c-0.497-0.913-0.84-1.679-1.093-2.183C32.981,160.969,32.854,160.693,32.854,160.693z"/>
		</g>
		<g>
			<path fill="#875C13" d="M79.729,207.927c0,0,1.066,0.681,2.608,1.764c0.776,0.536,1.685,1.157,2.63,1.853
				c0.961,0.679,1.944,1.447,2.942,2.201c0.982,0.77,2.118,1.377,2.982,2.158c0.853,0.793,1.481,1.707,1.98,2.533
				c0.494,0.831,0.826,1.607,1.02,2.188c0.199,0.579,0.263,0.961,0.263,0.961l-0.276,0.289c0,0-0.387-0.044-0.977-0.213
				c-0.595-0.164-1.39-0.456-2.249-0.905c-0.854-0.455-1.802-1.034-2.64-1.842c-0.826-0.82-1.493-1.919-2.314-2.857
				c-0.806-0.954-1.625-1.893-2.355-2.814c-0.745-0.905-1.414-1.778-1.99-2.522c-1.164-1.478-1.9-2.504-1.9-2.504L79.729,207.927z"
				/>
		</g>
		<g>
			<path fill="#875C13" d="M92.334,198.93c0,0-0.154,0.55-0.496,1.427c-0.17,0.439-0.375,0.974-0.646,1.545
				c-0.131,0.291-0.27,0.601-0.417,0.927c-0.069,0.168-0.205,0.264-0.359,0.342c-0.153,0.081-0.275,0.205-0.413,0.315
				c-2.168,1.813-5.06,4.23-7.951,6.648c-2.891,2.417-5.782,4.834-7.951,6.647c-0.133,0.117-0.276,0.215-0.387,0.346
				c-0.1,0.145-0.229,0.247-0.414,0.277c-0.347,0.087-0.676,0.169-0.986,0.247c-0.612,0.163-1.173,0.272-1.632,0.366
				c-0.919,0.186-1.479,0.25-1.479,0.25s0.163-0.54,0.509-1.411c0.173-0.435,0.38-0.968,0.649-1.542
				c0.131-0.291,0.271-0.6,0.417-0.926c0.063-0.176,0.187-0.286,0.346-0.358c0.149-0.085,0.271-0.209,0.409-0.319
				c2.168-1.813,5.06-4.23,7.951-6.648c2.891-2.417,5.782-4.834,7.951-6.647c0.133-0.117,0.276-0.214,0.383-0.351
				c0.104-0.139,0.223-0.255,0.4-0.293c0.347-0.087,0.676-0.169,0.986-0.247c0.61-0.165,1.173-0.272,1.635-0.362
				C91.766,198.984,92.334,198.93,92.334,198.93z"/>
		</g>
	</g>
</g>
<g id="FARM_BUTTON_1_" display="none">
	<g display="inline">
		
			<linearGradient id="SVGID_18_" gradientUnits="userSpaceOnUse" x1="-378.1968" y1="1097.3252" x2="-330.4385" y2="1180.045" gradientTransform="matrix(1 0 0 -1 539.04 1324.3398)">
			<stop  offset="0" style="stop-color:#A6A5A4"/>
			<stop  offset="0.0061" style="stop-color:#A7A6A6"/>
			<stop  offset="0.1277" style="stop-color:#BDBDBC"/>
			<stop  offset="0.2353" style="stop-color:#CBCAC9"/>
			<stop  offset="0.3172" style="stop-color:#CFCECE"/>
			<stop  offset="0.4973" style="stop-color:#BFBEBD"/>
			<stop  offset="0.6559" style="stop-color:#B3B2B2"/>
			<stop  offset="0.723" style="stop-color:#B7B7B7"/>
			<stop  offset="0.8145" style="stop-color:#C6C5C6"/>
			<stop  offset="0.9196" style="stop-color:#DBDBDB"/>
			<stop  offset="1" style="stop-color:#EFEEEE"/>
		</linearGradient>
		<circle fill="url(#SVGID_18_)" cx="184.722" cy="185.655" r="47.75"/>
		<g>
			<path fill="#5C5C5C" d="M228.114,186.159c-0.345,23.883-18.42,44.985-43.146,44.627c-24.275-0.351-43.299-22.043-43.64-45.636
				c-0.346-23.898,18.939-44.978,43.146-44.627C208.75,140.874,227.773,162.566,228.114,186.159
				c0.056,3.842,8.758,2.017,8.715-1.009c-0.324-22.387-14.579-41.126-35.918-47.764c-21.188-6.59-44.927,2.099-58.324,19.267
				c-13.848,17.746-12.754,43.176,0.849,60.608c13.704,17.561,38.707,22.941,59.147,15.294
				c19.951-7.464,33.935-25.913,34.246-47.406C236.885,181.332,228.159,183.102,228.114,186.159z"/>
		</g>
	</g>
	<g display="inline">
		<path fill="#9C7232" d="M183.891,165.556c0.636-2.22-0.674-4.561,0.977-7.485c1.327-2.411,4.45-3.334,5.896-5.056
			c-0.514,1.777,0.093,5.545-1.107,7.548C188.418,163.264,185.396,163.74,183.891,165.556z"/>
		<path fill="#9C7232" d="M183.951,165.556c-0.635-2.22,0.674-4.561-0.977-7.485c-1.327-2.411-4.45-3.334-5.897-5.056
			c0.514,1.777-0.093,5.545,1.107,7.548C179.422,163.264,182.446,163.74,183.951,165.556z"/>
		<path fill="#875C13" d="M184.149,167.027c-0.675-2.979-3.682-4.862-3.625-9.302c0.007-3.639,3.042-6.696,3.625-9.611
			c0.534,2.389,3.632,6.372,3.513,9.457C187.943,161.491,184.739,163.964,184.149,167.027z"/>
		<path fill="#875C13" d="M184.979,177.818c-0.221-3.688-0.506-8.768,2.339-10.792c3.31-2.951,4.721-2.403,8.79-6.79
			c-0.211,1.859,0.505,9.404-5.438,13.24C187.817,175.385,185.294,177.554,184.979,177.818z"/>
		<path fill="#875C13" d="M184.979,190.857c-0.221-3.688-0.506-8.768,2.339-10.791c3.31-2.951,4.721-2.402,8.79-6.791
			c-0.211,1.859,0.505,9.405-5.438,13.241C187.817,188.425,185.294,190.593,184.979,190.857z"/>
		<path fill="#875C13" d="M184.979,204.515c-0.221-3.689-0.506-8.768,2.339-10.792c3.31-2.951,4.721-2.403,8.79-6.79
			c-0.211,1.858,0.505,9.403-5.438,13.24C187.817,202.081,185.294,204.251,184.979,204.515z"/>
		<path fill="#875C13" d="M184.979,217.891c-0.221-3.688-0.506-8.768,2.339-10.791c3.31-2.951,4.721-2.403,8.79-6.791
			c-0.211,1.858,0.505,9.404-5.438,13.24C187.817,215.458,185.294,217.628,184.979,217.891z"/>
		<path fill="#875C13" d="M183.163,177.818c0.221-3.688,0.506-8.768-2.339-10.792c-3.31-2.951-4.721-2.403-8.789-6.79
			c0.21,1.859-0.506,9.404,5.438,13.24C180.323,175.385,182.847,177.554,183.163,177.818z"/>
		<path fill="#875C13" d="M183.163,190.857c0.221-3.688,0.506-8.768-2.339-10.791c-3.31-2.951-4.721-2.402-8.789-6.791
			c0.21,1.859-0.506,9.405,5.438,13.241C180.323,188.425,182.847,190.593,183.163,190.857z"/>
		<path fill="#875C13" d="M183.163,204.515c0.221-3.689,0.506-8.768-2.339-10.792c-3.31-2.951-4.721-2.403-8.789-6.79
			c0.21,1.858-0.506,9.403,5.438,13.24C180.323,202.081,182.847,204.251,183.163,204.515z"/>
		<path fill="#875C13" d="M183.163,217.891c0.221-3.688,0.506-8.768-2.339-10.791c-3.31-2.951-4.721-2.403-8.789-6.791
			c0.21,1.858-0.506,9.404,5.438,13.24C180.323,215.458,182.847,217.628,183.163,217.891z"/>
		<path fill="#875C13" d="M184.24,224.882c-0.257-1.98-1.998-3.901-3.418-4.911c-3.31-2.951-4.721-2.403-8.789-6.791
			c0.21,1.858-0.506,9.403,5.438,13.24c2.852,1.909,5.375,4.078,5.691,4.342h1.816c0.316-0.264,2.839-2.433,5.691-4.342
			c5.943-3.836,5.227-11.381,5.438-13.24c-4.068,4.387-5.48,3.839-8.79,6.791C185.921,220.964,184.507,222.943,184.24,224.882"/>
	</g>
</g>
</svg>
