<?xml version="1.0" encoding="utf-8"?>
<!-- Generator: Adobe Illustrator 16.0.0, SVG Export Plug-In . SVG Version: 6.00 Build 0)  -->
<!DOCTYPE svg PUBLIC "-//W3C//DTD SVG 1.1//EN" "http://www.w3.org/Graphics/SVG/1.1/DTD/svg11.dtd">
<svg version="1.1" id="Layer_1" xmlns="http://www.w3.org/2000/svg" xmlns:xlink="http://www.w3.org/1999/xlink" x="0px" y="0px"
	 width="1920px" height="1080px" viewBox="0 0 1920 1080" enable-background="new 0 0 1920 1080" xml:space="preserve">
<g id="UPPER_PANEL" display="none">
	<rect y="111.261" opacity="0.9" fill="#393A39" enable-background="new    " width="578.658" height="976.239"/>
	<rect y="6.829" display="inline" opacity="0.4" fill="#020304" enable-background="new    " width="1920" height="29.073"/>
	<path display="inline" opacity="0.4" fill="#020304" enable-background="new    " d="M1432.417,37.088
		c-3.479-0.52,0.319-21.306-7.145-21.415c-6.412-0.093-12.82,0.172-19.231,0.01c-4.083-0.104-7.758-1.96-8.176-5.718
		c-0.131-1.173,0.2-2.487,0.895-3.638H496.178c-4.659,4.308-11.437,5.422-16.465,9.229c-2.515,1.904-3.983,4.584-6.134,6.741
		c-1.963,1.968-2.119,5.955-4.22,7.754l-2.031,1.917c21.548,23.784,35.153,54.884,95.803,54.884h788.737
		c60.721,0,73.979-30.807,95.55-54.596L1432.417,37.088z"/>
	
		<linearGradient id="SVGID_1_" gradientUnits="userSpaceOnUse" x1="-1078.0801" y1="-475.9951" x2="841.9199" y2="-475.9951" gradientTransform="matrix(1 0 0 1 1078.0801 486.6797)">
		<stop  offset="0.15" style="stop-color:#585857"/>
		<stop  offset="0.1952" style="stop-color:#4B4D4D"/>
		<stop  offset="0.2605" style="stop-color:#3E4142"/>
		<stop  offset="0.3432" style="stop-color:#373B3D"/>
		<stop  offset="0.5" style="stop-color:#34393B"/>
		<stop  offset="0.6568" style="stop-color:#373C3E"/>
		<stop  offset="0.7395" style="stop-color:#414446"/>
		<stop  offset="0.8048" style="stop-color:#535555"/>
		<stop  offset="0.85" style="stop-color:#656464"/>
	</linearGradient>
	<rect y="0.005" display="inline" fill="url(#SVGID_1_)" width="1920" height="21.359"/>
	<g display="inline">
		
			<linearGradient id="SVGID_2_" gradientUnits="userSpaceOnUse" x1="784.6631" y1="-358.606" x2="756.6254" y2="-502.8467" gradientTransform="matrix(1 0 0 1 1078.0801 486.6797)">
			<stop  offset="0" style="stop-color:#34393B"/>
			<stop  offset="0.8226" style="stop-color:#626262"/>
		</linearGradient>
		<path fill="url(#SVGID_2_)" d="M1751.51,0.005c-5.724,8.675-2.01,21.359-2.01,21.359c15.083,0.438,33.667,24.679,33.667,43.213
			c0,35.945,29.138,65.083,65.083,65.083c35.944,0,65.083-29.138,65.083-65.083c0-16.942,1.792-26.381,6.667-35.427
			c7.228-13.413,11.864-23.082,10.421-29.146L1751.51,0.005L1751.51,0.005z"/>
	</g>
	<g display="inline">
		<path fill="#888989" d="M1848.25,120.829c-31.017,0-56.25-25.233-56.25-56.25s25.233-56.25,56.25-56.25s56.25,25.233,56.25,56.25
			C1904.5,95.595,1879.267,120.829,1848.25,120.829z"/>
		<path fill="#875C13" d="M1848.25,9.829c30.188,0,54.75,24.561,54.75,54.75c0,30.188-24.562,54.75-54.75,54.75
			s-54.75-24.562-54.75-54.75C1793.5,34.389,1818.062,9.829,1848.25,9.829 M1848.25,6.829c-31.896,0-57.75,25.854-57.75,57.75
			c0,31.895,25.854,57.75,57.75,57.75S1906,96.473,1906,64.579C1906,32.683,1880.146,6.829,1848.25,6.829L1848.25,6.829z"/>
	</g>
	
		<linearGradient id="SVGID_3_" gradientUnits="userSpaceOnUse" x1="-176.5547" y1="-647.2358" x2="-52.1129" y2="-285.8307" gradientTransform="matrix(1 0 0 1 1078.0801 486.6797)">
		<stop  offset="0.0968" style="stop-color:#878787"/>
		<stop  offset="0.2454" style="stop-color:#6D7172"/>
		<stop  offset="0.4211" style="stop-color:#565B5E"/>
		<stop  offset="0.5376" style="stop-color:#4E5457"/>
		<stop  offset="0.6288" style="stop-color:#595F61"/>
		<stop  offset="0.7881" style="stop-color:#787B7C"/>
		<stop  offset="0.8978" style="stop-color:#919292"/>
		<stop  offset="1" style="stop-color:#949494"/>
	</linearGradient>
	<path display="inline" fill="url(#SVGID_3_)" d="M429.415,2.005c38.118,12.115,47.743,78.636,133.216,78.636
		c42.421,0,216.287,0,394.369,0h1c178.082,0,351.947,0,394.369,0c85.473,0,95.099-66.521,133.216-78.636H429.415z"/>
</g>
<g id="UPPER_ICONS_1_" display="none">
	<g id="UPPER_ICONS" display="inline">
		
			<radialGradient id="SVGID_4_" cx="-509.6323" cy="-421.3701" r="27.8197" gradientTransform="matrix(1 0 0 1.06 1078.0801 484.4425)" gradientUnits="userSpaceOnUse">
			<stop  offset="0" style="stop-color:#010202;stop-opacity:0.95"/>
			<stop  offset="0.9301" style="stop-color:#010202;stop-opacity:0"/>
		</radialGradient>
		<ellipse fill="url(#SVGID_4_)" cx="568.448" cy="37.79" rx="26.854" ry="28.751"/>
		
			<linearGradient id="SVGID_5_" gradientUnits="userSpaceOnUse" x1="-224.9609" y1="-439.8779" x2="-197.6624" y2="-422.1501" gradientTransform="matrix(1 0 0 1 1078.0801 486.6797)">
			<stop  offset="0" style="stop-color:#CFCECE"/>
			<stop  offset="0.1077" style="stop-color:#DEDEDE"/>
			<stop  offset="0.2266" style="stop-color:#EAEAEA"/>
			<stop  offset="0.3172" style="stop-color:#EFEEEE"/>
			<stop  offset="0.5138" style="stop-color:#DBDBDB"/>
			<stop  offset="0.6559" style="stop-color:#D0D0D0"/>
			<stop  offset="0.7329" style="stop-color:#D6D6D6"/>
			<stop  offset="0.838" style="stop-color:#E2E1E1"/>
			<stop  offset="0.9587" style="stop-color:#F8F7F7"/>
			<stop  offset="1" style="stop-color:#FFFFFF"/>
		</linearGradient>
		<path fill="url(#SVGID_5_)" d="M881.154,63.393v-11.25c0-5.667-5.698-10.263-12.729-10.263h-4.404
			c-7.029,0-12.729,4.595-12.729,10.263v11.25H881.154z"/>
		
			<linearGradient id="SVGID_6_" gradientUnits="userSpaceOnUse" x1="-220.8037" y1="-465.0186" x2="-203.19" y2="-453.5801" gradientTransform="matrix(1 0 0 1 1078.0801 486.6797)">
			<stop  offset="0" style="stop-color:#CFCECE"/>
			<stop  offset="0.1077" style="stop-color:#DEDEDE"/>
			<stop  offset="0.2266" style="stop-color:#EAEAEA"/>
			<stop  offset="0.3172" style="stop-color:#EFEEEE"/>
			<stop  offset="0.5138" style="stop-color:#DBDBDB"/>
			<stop  offset="0.6559" style="stop-color:#D0D0D0"/>
			<stop  offset="0.7329" style="stop-color:#D6D6D6"/>
			<stop  offset="0.838" style="stop-color:#E2E1E1"/>
			<stop  offset="0.9587" style="stop-color:#F8F7F7"/>
			<stop  offset="1" style="stop-color:#FFFFFF"/>
		</linearGradient>
		<circle fill="url(#SVGID_6_)" cx="866.083" cy="27.38" r="10.5"/>
		
			<linearGradient id="SVGID_7_" gradientUnits="userSpaceOnUse" x1="-201.3701" y1="-444.9873" x2="-183.0216" y2="-423.8798" gradientTransform="matrix(1 0 0 1 1078.0801 486.6797)">
			<stop  offset="0.0645" style="stop-color:#989797"/>
			<stop  offset="0.3446" style="stop-color:#73787C"/>
			<stop  offset="0.5161" style="stop-color:#636B6F"/>
			<stop  offset="0.618" style="stop-color:#676F72"/>
			<stop  offset="0.7213" style="stop-color:#747A7E"/>
			<stop  offset="0.8253" style="stop-color:#878D90"/>
			<stop  offset="0.9291" style="stop-color:#A4A6A7"/>
			<stop  offset="0.9946" style="stop-color:#BBBABA"/>
		</linearGradient>
		<path fill="url(#SVGID_7_)" d="M882.162,41.993h-4.185c-0.598,0-1.179,0.049-1.75,0.12c4.607,0.722,8.15,4.981,8.15,10.143v11.249
			h9.871v-11.25C894.25,46.588,888.838,41.993,882.162,41.993z"/>
		
			<linearGradient id="SVGID_8_" gradientUnits="userSpaceOnUse" x1="-204.6821" y1="-466.7686" x2="-191.9498" y2="-452.1218" gradientTransform="matrix(1 0 0 1 1078.0801 486.6797)">
			<stop  offset="0.0645" style="stop-color:#989797"/>
			<stop  offset="0.3446" style="stop-color:#73787C"/>
			<stop  offset="0.5161" style="stop-color:#636B6F"/>
			<stop  offset="0.618" style="stop-color:#676F72"/>
			<stop  offset="0.7213" style="stop-color:#747A7E"/>
			<stop  offset="0.8253" style="stop-color:#878D90"/>
			<stop  offset="0.9291" style="stop-color:#A4A6A7"/>
			<stop  offset="0.9946" style="stop-color:#BBBABA"/>
		</linearGradient>
		<path fill="url(#SVGID_8_)" d="M879.228,17.457c-1.396,0-2.722,0.287-3.927,0.801c2.804,1.517,4.771,5.03,4.771,9.123
			c0,4.093-1.967,7.606-4.771,9.123c1.205,0.514,2.531,0.801,3.927,0.801c5.508,0,9.973-4.443,9.973-9.924
			S884.733,17.457,879.228,17.457z"/>
		
			<linearGradient id="SVGID_9_" gradientUnits="userSpaceOnUse" x1="-523.4175" y1="-472.4561" x2="-495.8463" y2="-424.7011" gradientTransform="matrix(1 0 0 1 1078.0801 486.6797)">
			<stop  offset="0.0699" style="stop-color:#FDD496"/>
			<stop  offset="0.2796" style="stop-color:#FFCC07"/>
			<stop  offset="0.3811" style="stop-color:#E2AD02"/>
			<stop  offset="0.499" style="stop-color:#C58F0A"/>
			<stop  offset="0.5967" style="stop-color:#B37D11"/>
			<stop  offset="0.6613" style="stop-color:#AD7713"/>
			<stop  offset="0.8817" style="stop-color:#EBC604"/>
		</linearGradient>
		
			<ellipse fill="url(#SVGID_9_)" stroke="#865C13" stroke-width="2" stroke-miterlimit="10" cx="568.448" cy="38.101" rx="28.052" ry="27.404"/>
		
			<linearGradient id="SVGID_10_" gradientUnits="userSpaceOnUse" x1="-514.6357" y1="-431.1602" x2="-503.461" y2="-463.6139" gradientTransform="matrix(1 0 0 1 1078.0801 486.6797)">
			<stop  offset="0" style="stop-color:#FFCF54"/>
			<stop  offset="0.2084" style="stop-color:#FED26D"/>
			<stop  offset="0.5215" style="stop-color:#FDD496"/>
			<stop  offset="0.636" style="stop-color:#FBD179"/>
			<stop  offset="0.7948" style="stop-color:#F3CB52"/>
			<stop  offset="0.9218" style="stop-color:#F1CA35"/>
			<stop  offset="1" style="stop-color:#F0C92A"/>
		</linearGradient>
		<path fill="#624A27" stroke="url(#SVGID_10_)" stroke-miterlimit="10" d="M579.447,46.111c0.226,0.119,0.442,0.267,0.653,0.45
			c5.67,4.934-7.832,8.093-10.166,8.396c-5.729,0.744-11.386-0.362-14.561-5.692c-3.321-5.576-2.117-12.408,0.854-17.763
			c4.357-7.849,14.845-11.959,22.373-5.529c1.829,1.561,3.588,5.154,0.688,6.797c-2.562,1.45-5.068-1.729-7.329-2.457
			c-10.275-3.304-16.438,20.7-2.018,18.177C572.532,48.037,576.565,44.603,579.447,46.111z"/>
	</g>
</g>
<g id="HOME_BUTTON_1_" display="none">
	<g display="inline">
		
			<linearGradient id="SVGID_11_" gradientUnits="userSpaceOnUse" x1="-806.3408" y1="-262.0586" x2="-758.5828" y2="-344.778" gradientTransform="matrix(1 0 0 1 1078.0801 486.6797)">
			<stop  offset="0" style="stop-color:#A6A5A4"/>
			<stop  offset="0.0061" style="stop-color:#A7A6A6"/>
			<stop  offset="0.1277" style="stop-color:#BDBDBC"/>
			<stop  offset="0.2353" style="stop-color:#CBCAC9"/>
			<stop  offset="0.3172" style="stop-color:#CFCECE"/>
			<stop  offset="0.4973" style="stop-color:#BFBEBD"/>
			<stop  offset="0.6559" style="stop-color:#B3B2B2"/>
			<stop  offset="0.723" style="stop-color:#B7B7B7"/>
			<stop  offset="0.8145" style="stop-color:#C6C5C6"/>
			<stop  offset="0.9196" style="stop-color:#DBDBDB"/>
			<stop  offset="1" style="stop-color:#EFEEEE"/>
		</linearGradient>
		<circle fill="url(#SVGID_11_)" cx="295.617" cy="183.261" r="47.75"/>
		<g>
			<path fill="#5C5C5C" d="M339.01,183.766c-0.345,23.883-18.42,44.985-43.146,44.627c-24.275-0.351-43.299-22.043-43.64-45.636
				c-0.346-23.898,18.939-44.978,43.146-44.627C319.646,138.48,338.669,160.172,339.01,183.766c0.056,3.842,8.758,2.017,8.715-1.009
				c-0.324-22.387-14.579-41.126-35.918-47.764c-21.188-6.59-44.927,2.099-58.324,19.267c-13.848,17.746-12.754,43.176,0.849,60.608
				c13.704,17.561,38.707,22.941,59.147,15.294c19.951-7.464,33.935-25.913,34.246-47.406
				C347.78,178.938,339.054,180.708,339.01,183.766z"/>
		</g>
	</g>
	<path display="inline" fill="#9C7232" d="M323.979,167.913c0.581-0.58-24.494-20.321-26.388-20.316
		c-1.894,0.005-27.048,19.559-26.333,20.274C271.974,168.587,323.398,168.493,323.979,167.913z"/>
	<path display="inline" fill="#9C7232" d="M319.551,173.265h-43.935c0,0-1.262,38.121,0,39.383c1.262,1.262,13.25,0,14.286,0
		c1.037,0-0.386-0.812-0.386-1.287v-13.534c0-1.3,1.054-2.354,2.354-2.354h11.474c1.3,0,2.354,1.054,2.354,2.354v13.534
		c0,0.476-1.313,1.287-0.386,1.287s13.1,1.14,14.24,0C320.692,211.508,319.551,173.265,319.551,173.265z M292.768,188.817
		c0,1.3-1.053,2.354-2.354,2.354h-5.843c-1.301,0-2.354-1.054-2.354-2.354v-5.843c0-1.3,1.053-2.354,2.354-2.354h5.843
		c1.3,0,2.354,1.054,2.354,2.354V188.817z M312.752,188.817c0,1.3-1.053,2.354-2.354,2.354h-5.843c-1.3,0-2.354-1.054-2.354-2.354
		v-5.843c0-1.3,1.053-2.354,2.354-2.354h5.843c1.3,0,2.354,1.054,2.354,2.354V188.817z"/>
	<path display="inline" fill="#875C13" d="M321.979,169.913c0.581-0.58-24.494-20.321-26.388-20.316
		c-1.894,0.005-27.048,19.559-26.333,20.274C269.974,170.587,321.398,170.493,321.979,169.913z"/>
	<path display="inline" fill="#875C13" d="M317.551,175.265h-43.935c0,0-1.262,38.121,0,39.383c1.262,1.262,13.25,0,14.286,0
		c1.037,0-0.386-0.812-0.386-1.287v-13.534c0-1.3,1.054-2.354,2.354-2.354h11.474c1.3,0,2.354,1.054,2.354,2.354v13.534
		c0,0.476-1.313,1.287-0.386,1.287s13.1,1.14,14.24,0C318.692,213.508,317.551,175.265,317.551,175.265z M290.768,190.817
		c0,1.3-1.053,2.354-2.354,2.354h-5.843c-1.301,0-2.354-1.054-2.354-2.354v-5.843c0-1.3,1.053-2.354,2.354-2.354h5.843
		c1.3,0,2.354,1.054,2.354,2.354V190.817z M310.752,190.817c0,1.3-1.053,2.354-2.354,2.354h-5.843c-1.3,0-2.354-1.054-2.354-2.354
		v-5.843c0-1.3,1.053-2.354,2.354-2.354h5.843c1.3,0,2.354,1.054,2.354,2.354V190.817z"/>
</g>
<g id="INVENTORY">
	<g>
		
			<linearGradient id="SVGID_12_" gradientUnits="userSpaceOnUse" x1="-691.1689" y1="-259.7412" x2="-643.4109" y2="-342.4606" gradientTransform="matrix(1 0 0 1 1078.0801 486.6797)">
			<stop  offset="0" style="stop-color:#A6A5A4"/>
			<stop  offset="0.0061" style="stop-color:#A7A6A6"/>
			<stop  offset="0.1277" style="stop-color:#BDBDBC"/>
			<stop  offset="0.2353" style="stop-color:#CBCAC9"/>
			<stop  offset="0.3172" style="stop-color:#CFCECE"/>
			<stop  offset="0.4973" style="stop-color:#BFBEBD"/>
			<stop  offset="0.6559" style="stop-color:#B3B2B2"/>
			<stop  offset="0.723" style="stop-color:#B7B7B7"/>
			<stop  offset="0.8145" style="stop-color:#C6C5C6"/>
			<stop  offset="0.9196" style="stop-color:#DBDBDB"/>
			<stop  offset="1" style="stop-color:#EFEEEE"/>
		</linearGradient>
		<circle fill="url(#SVGID_12_)" cx="410.789" cy="185.578" r="47.75"/>
		<g>
			<path fill="#5C5C5C" d="M454.182,186.083c-0.344,23.883-18.42,44.985-43.145,44.627c-24.275-0.351-43.3-22.043-43.641-45.636
				c-0.346-23.898,18.939-44.978,43.146-44.627C434.818,140.797,453.842,162.489,454.182,186.083
				c0.058,3.842,8.76,2.017,8.717-1.009c-0.324-22.387-14.579-41.126-35.919-47.764c-21.188-6.59-44.927,2.099-58.323,19.267
				c-13.849,17.746-12.754,43.176,0.849,60.608c13.705,17.561,38.707,22.941,59.147,15.294c19.95-7.464,33.935-25.913,34.246-47.406
				C462.953,181.255,454.227,183.025,454.182,186.083z"/>
		</g>
	</g>
	<path fill="#875C13" d="M431.727,172.415H389.99c0,0-1.199,8.475,0,8.755h16.588v-4.231h8.307v4.231h16.843
		C432.812,180.917,431.727,172.415,431.727,172.415z"/>
	<path fill="#875C13" d="M431.625,186.959h-4.073v1.375h-12.646v0.927h-8.328v-0.927h-12.666v-1.375h-4.023
		c0,0-1.199,25.278,0,26.115h41.738C432.709,212.318,431.625,186.959,431.625,186.959z"/>
	<rect x="394.406" y="190.001" fill="#9C7232" width="2.396" height="21.313"/>
	<rect x="401.697" y="190.001" fill="#9C7232" width="2.396" height="21.313"/>
	<rect x="417.406" y="190.001" fill="#9C7232" width="2.396" height="21.313"/>
	<rect x="424.697" y="190.001" fill="#9C7232" width="2.396" height="21.313"/>
	<rect x="409.406" y="191.584" fill="#9C7232" width="2.396" height="19.729"/>
	<rect x="394.406" y="173.48" fill="#9C7232" width="2.396" height="6.354"/>
	<rect x="401.697" y="173.48" fill="#9C7232" width="2.396" height="6.354"/>
	<rect x="417.406" y="173.48" fill="#9C7232" width="2.396" height="6.354"/>
	<rect x="424.697" y="173.48" fill="#9C7232" width="2.396" height="6.354"/>
	<rect x="409.406" y="173.48" fill="#9C7232" width="2.396" height="2.687"/>
</g>
<g id="MILITARY_BUTTON_1_" display="none">
	<g display="inline">
		
			<linearGradient id="SVGID_13_" gradientUnits="userSpaceOnUse" x1="-1064.4409" y1="-301.0244" x2="-968.9409" y2="-301.0244" gradientTransform="matrix(1 0 0 1 1078.0801 486.6797)">
			<stop  offset="0" style="stop-color:#A6A5A4"/>
			<stop  offset="0.0061" style="stop-color:#A7A6A6"/>
			<stop  offset="0.1277" style="stop-color:#BDBDBC"/>
			<stop  offset="0.2353" style="stop-color:#CBCAC9"/>
			<stop  offset="0.3172" style="stop-color:#CFCECE"/>
			<stop  offset="0.4973" style="stop-color:#BFBEBD"/>
			<stop  offset="0.6559" style="stop-color:#B3B2B2"/>
			<stop  offset="0.723" style="stop-color:#B7B7B7"/>
			<stop  offset="0.8145" style="stop-color:#C6C5C6"/>
			<stop  offset="0.9196" style="stop-color:#DBDBDB"/>
			<stop  offset="1" style="stop-color:#EFEEEE"/>
		</linearGradient>
		<circle fill="url(#SVGID_13_)" cx="61.389" cy="185.655" r="47.75"/>
		<g>
			<path fill="#5C5C5C" d="M104.78,186.159c-0.345,23.883-18.42,44.985-43.146,44.627c-24.276-0.351-43.299-22.043-43.64-45.636
				c-0.346-23.898,18.939-44.977,43.145-44.627C85.417,140.874,104.439,162.566,104.78,186.159c0.056,3.842,8.758,2.017,8.715-1.009
				c-0.324-22.386-14.578-41.126-35.918-47.763c-21.188-6.59-44.927,2.099-58.324,19.267C5.405,174.4,6.5,199.83,20.103,217.262
				c13.704,17.562,38.707,22.941,59.147,15.294c19.951-7.464,33.935-25.913,34.246-47.406
				C113.55,181.332,104.826,183.102,104.78,186.159z"/>
		</g>
	</g>
	<g display="inline">
		<g>
			<path fill="#875C13" d="M87.729,161.604c0,0-0.125,0.276-0.361,0.794c-0.249,0.504-0.588,1.271-1.079,2.185
				c-0.479,0.926-1.06,2.052-1.766,3.301c-0.356,0.621-0.736,1.281-1.137,1.977c-0.195,0.355-0.493,0.614-0.804,0.858
				c-0.313,0.246-0.578,0.556-0.871,0.849c-1.154,1.19-2.404,2.479-3.727,3.842c-1.334,1.337-2.686,2.867-4.106,4.403
				c-1.412,1.552-2.889,3.124-4.35,4.79c-1.469,1.653-2.962,3.332-4.455,5.01c-1.5,1.688-3,3.375-4.479,5.036
				c-1.462,1.667-2.973,3.277-4.403,4.849c-1.444,1.563-2.803,3.101-4.188,4.491c-1.363,1.405-2.652,2.733-3.842,3.959
				c-0.293,0.312-0.602,0.593-0.855,0.918c-0.23,0.347-0.525,0.619-0.909,0.786c-0.728,0.37-1.418,0.721-2.067,1.051
				c-1.283,0.668-2.441,1.199-3.387,1.638c-0.936,0.449-1.709,0.755-2.219,0.981c-0.521,0.212-0.799,0.326-0.799,0.326
				s0.13-0.275,0.373-0.791c0.255-0.501,0.604-1.264,1.094-2.173c0.482-0.919,1.057-2.039,1.762-3.263
				c0.345-0.616,0.713-1.272,1.1-1.964c0.177-0.361,0.453-0.634,0.776-0.876c0.311-0.255,0.577-0.566,0.873-0.861
				c1.163-1.198,2.422-2.497,3.755-3.87c1.349-1.352,2.694-2.875,4.115-4.413c1.412-1.552,2.889-3.124,4.35-4.791
				c1.469-1.652,2.962-3.331,4.454-5.01c1.5-1.688,3.001-3.375,4.478-5.036c1.462-1.668,2.973-3.277,4.403-4.849
				c1.446-1.565,2.798-3.096,4.197-4.501c1.374-1.415,2.672-2.752,3.871-3.987c0.295-0.313,0.606-0.597,0.856-0.931
				c0.244-0.344,0.516-0.632,0.882-0.803c0.715-0.366,1.393-0.712,2.03-1.038c1.282-0.644,2.435-1.167,3.383-1.6
				c0.938-0.445,1.72-0.745,2.235-0.969C87.447,161.715,87.729,161.604,87.729,161.604z"/>
		</g>
		<g>
			<path fill="#875C13" d="M41.044,210.948c0,0-0.543,0.869-1.418,2.11c-0.432,0.626-0.933,1.361-1.498,2.119
				c-0.549,0.774-1.177,1.556-1.791,2.354c-0.629,0.781-1.102,1.721-1.749,2.396c-0.659,0.661-1.443,1.107-2.156,1.447
				c-0.718,0.335-1.397,0.532-1.911,0.63c-0.51,0.104-0.851,0.111-0.851,0.111l-0.28-0.285c0,0,0.014-0.342,0.126-0.849
				c0.108-0.512,0.317-1.188,0.666-1.899c0.353-0.707,0.813-1.482,1.487-2.129c0.686-0.635,1.634-1.09,2.427-1.705
				c0.808-0.599,1.602-1.212,2.386-1.747c0.768-0.55,1.512-1.037,2.146-1.458c1.258-0.852,2.136-1.379,2.136-1.379L41.044,210.948z"
				/>
		</g>
		<g>
			<path fill="#875C13" d="M29.979,200.361c0,0,0.568,0.056,1.491,0.241c0.462,0.091,1.024,0.201,1.634,0.368
				c0.309,0.079,0.638,0.163,0.984,0.25c0.178,0.039,0.295,0.156,0.399,0.295c0.106,0.137,0.249,0.235,0.381,0.352
				c2.16,1.821,5.04,4.25,7.92,6.678c2.88,2.428,5.76,4.856,7.92,6.678c0.138,0.11,0.259,0.235,0.408,0.321
				c0.159,0.073,0.283,0.183,0.344,0.359c0.146,0.327,0.284,0.637,0.414,0.928c0.267,0.574,0.471,1.108,0.643,1.543
				c0.342,0.873,0.502,1.413,0.502,1.413s-0.56-0.067-1.478-0.256c-0.458-0.096-1.019-0.207-1.63-0.373
				c-0.309-0.079-0.638-0.163-0.984-0.25c-0.184-0.031-0.313-0.134-0.413-0.279c-0.11-0.132-0.253-0.23-0.385-0.348
				c-2.16-1.821-5.04-4.25-7.92-6.678c-2.88-2.428-5.76-4.856-7.92-6.678c-0.138-0.111-0.259-0.235-0.412-0.316
				c-0.154-0.079-0.29-0.175-0.358-0.343c-0.146-0.327-0.284-0.637-0.414-0.928c-0.268-0.573-0.471-1.108-0.639-1.548
				C30.129,200.911,29.979,200.361,29.979,200.361z"/>
		</g>
	</g>
	<g display="inline">
		<g>
			<path fill="#875C13" d="M32.854,160.693c0,0,0.283,0.111,0.814,0.318c0.518,0.222,1.303,0.521,2.243,0.961
				c0.952,0.429,2.109,0.949,3.396,1.587c0.64,0.324,1.32,0.668,2.038,1.031c0.368,0.17,0.642,0.458,0.89,0.796
				c0.253,0.33,0.567,0.609,0.867,0.917c1.212,1.215,2.526,2.532,3.916,3.925c1.409,1.385,2.8,2.885,4.275,4.422
				c1.463,1.542,3.001,3.124,4.507,4.758c1.518,1.628,3.059,3.283,4.601,4.937c1.535,1.647,3.07,3.295,4.582,4.917
				c1.505,1.633,3.016,3.188,4.465,4.713c1.456,1.516,2.841,3.011,4.211,4.355c1.357,1.361,2.641,2.647,3.825,3.835
				c0.301,0.292,0.573,0.601,0.888,0.853c0.33,0.238,0.608,0.512,0.789,0.874c0.394,0.692,0.767,1.35,1.118,1.967
				c0.716,1.225,1.299,2.345,1.788,3.263c0.497,0.908,0.85,1.669,1.107,2.17c0.246,0.514,0.377,0.789,0.377,0.789
				s-0.279-0.113-0.803-0.324c-0.512-0.225-1.289-0.528-2.229-0.974c-0.948-0.436-2.11-0.96-3.395-1.622
				c-0.65-0.326-1.341-0.672-2.07-1.038c-0.384-0.164-0.679-0.435-0.915-0.777c-0.257-0.321-0.57-0.599-0.867-0.906
				c-1.206-1.209-2.512-2.519-3.894-3.904c-1.398-1.373-2.794-2.879-4.269-4.415c-1.463-1.542-3-3.124-4.507-4.758
				c-1.517-1.628-3.059-3.283-4.6-4.937c-1.536-1.647-3.071-3.295-4.582-4.917c-1.505-1.633-3.016-3.186-4.464-4.713
				c-1.455-1.515-2.845-3.015-4.204-4.348c-1.349-1.354-2.625-2.633-3.802-3.814c-0.299-0.291-0.569-0.598-0.888-0.842
				c-0.317-0.242-0.617-0.499-0.814-0.854c-0.405-0.695-0.789-1.354-1.149-1.974c-0.714-1.248-1.302-2.372-1.787-3.297
				c-0.497-0.913-0.84-1.679-1.093-2.183C32.981,160.969,32.854,160.693,32.854,160.693z"/>
		</g>
		<g>
			<path fill="#875C13" d="M79.729,207.927c0,0,1.066,0.681,2.608,1.764c0.776,0.536,1.685,1.157,2.63,1.853
				c0.961,0.679,1.944,1.447,2.942,2.201c0.982,0.77,2.118,1.377,2.982,2.158c0.853,0.793,1.481,1.707,1.98,2.533
				c0.494,0.831,0.826,1.607,1.02,2.188c0.199,0.579,0.263,0.961,0.263,0.961l-0.276,0.289c0,0-0.387-0.044-0.977-0.213
				c-0.595-0.164-1.39-0.456-2.249-0.905c-0.854-0.455-1.802-1.034-2.64-1.842c-0.826-0.82-1.493-1.919-2.314-2.857
				c-0.806-0.954-1.625-1.893-2.355-2.814c-0.745-0.905-1.414-1.778-1.99-2.522c-1.164-1.478-1.9-2.504-1.9-2.504L79.729,207.927z"
				/>
		</g>
		<g>
			<path fill="#875C13" d="M92.334,198.93c0,0-0.154,0.55-0.496,1.427c-0.17,0.439-0.375,0.974-0.646,1.545
				c-0.131,0.291-0.27,0.601-0.417,0.927c-0.069,0.168-0.205,0.264-0.359,0.342c-0.153,0.081-0.275,0.205-0.413,0.315
				c-2.168,1.813-5.06,4.23-7.951,6.648c-2.891,2.417-5.782,4.834-7.951,6.647c-0.133,0.117-0.276,0.215-0.387,0.346
				c-0.1,0.145-0.229,0.247-0.414,0.277c-0.347,0.087-0.676,0.169-0.986,0.247c-0.612,0.163-1.173,0.272-1.632,0.366
				c-0.919,0.186-1.479,0.25-1.479,0.25s0.163-0.54,0.509-1.411c0.173-0.435,0.38-0.968,0.649-1.542
				c0.131-0.291,0.271-0.6,0.417-0.926c0.063-0.176,0.187-0.286,0.346-0.358c0.149-0.085,0.271-0.209,0.409-0.319
				c2.168-1.813,5.06-4.23,7.951-6.648c2.891-2.417,5.782-4.834,7.951-6.647c0.133-0.117,0.276-0.214,0.383-0.351
				c0.104-0.139,0.223-0.255,0.4-0.293c0.347-0.087,0.676-0.169,0.986-0.247c0.61-0.165,1.173-0.272,1.635-0.362
				C91.766,198.984,92.334,198.93,92.334,198.93z"/>
		</g>
	</g>
</g>
<g id="FARM_BUTTON_1_" display="none">
	<g display="inline">
		
			<linearGradient id="SVGID_14_" gradientUnits="userSpaceOnUse" x1="-917.2373" y1="-259.6646" x2="-869.4794" y2="-342.3837" gradientTransform="matrix(1 0 0 1 1078.0801 486.6797)">
			<stop  offset="0" style="stop-color:#A6A5A4"/>
			<stop  offset="0.0061" style="stop-color:#A7A6A6"/>
			<stop  offset="0.1277" style="stop-color:#BDBDBC"/>
			<stop  offset="0.2353" style="stop-color:#CBCAC9"/>
			<stop  offset="0.3172" style="stop-color:#CFCECE"/>
			<stop  offset="0.4973" style="stop-color:#BFBEBD"/>
			<stop  offset="0.6559" style="stop-color:#B3B2B2"/>
			<stop  offset="0.723" style="stop-color:#B7B7B7"/>
			<stop  offset="0.8145" style="stop-color:#C6C5C6"/>
			<stop  offset="0.9196" style="stop-color:#DBDBDB"/>
			<stop  offset="1" style="stop-color:#EFEEEE"/>
		</linearGradient>
		<circle fill="url(#SVGID_14_)" cx="184.722" cy="185.655" r="47.75"/>
		<g>
			<path fill="#5C5C5C" d="M228.114,186.159c-0.345,23.883-18.42,44.985-43.146,44.627c-24.275-0.351-43.299-22.043-43.64-45.636
				c-0.346-23.898,18.939-44.978,43.146-44.627C208.75,140.874,227.773,162.566,228.114,186.159
				c0.056,3.842,8.758,2.017,8.715-1.009c-0.324-22.387-14.579-41.126-35.918-47.764c-21.188-6.59-44.927,2.099-58.324,19.267
				c-13.848,17.746-12.754,43.176,0.849,60.608c13.704,17.562,38.707,22.941,59.147,15.294
				c19.951-7.464,33.935-25.913,34.246-47.406C236.885,181.332,228.159,183.102,228.114,186.159z"/>
		</g>
	</g>
	<g display="inline">
		<path fill="#9C7232" d="M183.891,165.556c0.636-2.22-0.674-4.561,0.977-7.485c1.327-2.411,4.45-3.334,5.896-5.056
			c-0.514,1.777,0.093,5.545-1.107,7.548C188.418,163.264,185.396,163.74,183.891,165.556z"/>
		<path fill="#9C7232" d="M183.951,165.556c-0.635-2.22,0.674-4.561-0.977-7.485c-1.327-2.411-4.45-3.334-5.897-5.056
			c0.514,1.777-0.093,5.545,1.107,7.548C179.422,163.264,182.446,163.74,183.951,165.556z"/>
		<path fill="#875C13" d="M184.149,167.027c-0.675-2.979-3.682-4.862-3.625-9.302c0.007-3.639,3.042-6.696,3.625-9.611
			c0.534,2.389,3.632,6.372,3.513,9.457C187.943,161.491,184.739,163.964,184.149,167.027z"/>
		<path fill="#875C13" d="M184.979,177.818c-0.221-3.688-0.506-8.768,2.339-10.792c3.31-2.951,4.721-2.403,8.79-6.79
			c-0.211,1.859,0.505,9.404-5.438,13.24C187.817,175.385,185.294,177.554,184.979,177.818z"/>
		<path fill="#875C13" d="M184.979,190.857c-0.221-3.688-0.506-8.768,2.339-10.791c3.31-2.951,4.721-2.402,8.79-6.791
			c-0.211,1.859,0.505,9.405-5.438,13.241C187.817,188.425,185.294,190.593,184.979,190.857z"/>
		<path fill="#875C13" d="M184.979,204.515c-0.221-3.689-0.506-8.768,2.339-10.792c3.31-2.951,4.721-2.403,8.79-6.79
			c-0.211,1.858,0.505,9.403-5.438,13.24C187.817,202.081,185.294,204.251,184.979,204.515z"/>
		<path fill="#875C13" d="M184.979,217.891c-0.221-3.688-0.506-8.768,2.339-10.791c3.31-2.951,4.721-2.403,8.79-6.791
			c-0.211,1.858,0.505,9.404-5.438,13.24C187.817,215.458,185.294,217.628,184.979,217.891z"/>
		<path fill="#875C13" d="M183.163,177.818c0.221-3.688,0.506-8.768-2.339-10.792c-3.31-2.951-4.721-2.403-8.789-6.79
			c0.21,1.859-0.506,9.404,5.438,13.24C180.323,175.385,182.847,177.554,183.163,177.818z"/>
		<path fill="#875C13" d="M183.163,190.857c0.221-3.688,0.506-8.768-2.339-10.791c-3.31-2.951-4.721-2.402-8.789-6.791
			c0.21,1.859-0.506,9.405,5.438,13.241C180.323,188.425,182.847,190.593,183.163,190.857z"/>
		<path fill="#875C13" d="M183.163,204.515c0.221-3.689,0.506-8.768-2.339-10.792c-3.31-2.951-4.721-2.403-8.789-6.79
			c0.21,1.858-0.506,9.403,5.438,13.24C180.323,202.081,182.847,204.251,183.163,204.515z"/>
		<path fill="#875C13" d="M183.163,217.891c0.221-3.688,0.506-8.768-2.339-10.791c-3.31-2.951-4.721-2.403-8.789-6.791
			c0.21,1.858-0.506,9.404,5.438,13.24C180.323,215.458,182.847,217.628,183.163,217.891z"/>
		<path fill="#875C13" d="M184.24,224.882c-0.257-1.98-1.998-3.901-3.418-4.911c-3.31-2.951-4.721-2.403-8.789-6.791
			c0.21,1.858-0.506,9.403,5.438,13.24c2.852,1.909,5.375,4.078,5.691,4.342h1.816c0.316-0.264,2.839-2.433,5.691-4.342
			c5.943-3.836,5.227-11.381,5.438-13.24c-4.068,4.387-5.48,3.839-8.79,6.791C185.921,220.964,184.507,222.943,184.24,224.882"/>
	</g>
</g>
</svg>
