<?xml version="1.0" encoding="utf-8"?>
<!-- Generator: Adobe Illustrator 26.3.1, SVG Export Plug-In . SVG Version: 6.00 Build 0)  -->
<svg version="1.1" id="Layer_1" xmlns="http://www.w3.org/2000/svg" xmlns:xlink="http://www.w3.org/1999/xlink" x="0px" y="0px"
	 viewBox="0 0 1920 1080" style="enable-background:new 0 0 1920 1080;" xml:space="preserve">
<style type="text/css">
	.st0{fill:none;stroke:#000000;stroke-width:5.0168;stroke-miterlimit:10;}
	.st1{fill:#FFFFFF;}
</style>
<g>
	<g>
		<path class="st0" d="M343.24,225.28"/>
	</g>
</g>
<g>
	<g>
		<path class="st1" d="M359.26,610.55c-0.23-9.01,1.58-17.72,3.39-26.34c2.15-10.26,4.34-20.66,8.94-29.75
			c8.17-16.13,12.96-22.73,19.97-28.07l6.16-3.85c-8.04-8.71-19.34-15.56-29.77-20.17l-7.66,13.97c-11.5,20.76-16.7,23.6-18.5,49.63
			"/>
	</g>
	<g>
		<path class="st1" d="M282.35,189.6c1.95,0,4.48-1.39,6.52-1.66c2.39-0.31,4.8-0.35,7.21-0.23c3.75,0.18,7.61,0.43,11.04,2.09
			c3.1,1.5,6.47,2.27,8.75,5.12c0.89,1.12,1.51,2.43,2.12,3.72c0.62,1.33,1.45,2.69,1.72,4.12c0.29,1.53,0.51,3.08,0.83,4.6
			c0.56,2.63,1.05,5.38,0.67,8.07c-2.26,16.26-4.39,32.56-5.51,48.95c-0.29,4.29-0.39,9.01,2.27,12.38
			c4.8-4.53,5.94-11.62,6.81-18.16c2.81-21.16,4.19-42.29,8.54-63.08c3.34-15.96,6.68-31.91,10.03-47.87c0.2-0.96,0.4-1.91,0.6-2.87
			c0,0,3.11-2.16,3.11-2.16c10.19-0.04,20.58-0.05,30.27,2.86c9.69,2.91,18.75,9.28,21.82,18.29c2.37,6.96,0.95,14.49-0.5,21.67
			c-10.42,51.7-20.83,103.4-31.25,155.1c-4.02,19.94-8.04,39.89-11.01,60.01c-0.41,2.77-0.8,5.55-1.16,8.33
			c-1.83,13.85-2.03,27.88-2.03,41.85c-0.09,4.47-0.26,8.54,0.17,13.07c0.46,4.84,0.97,9.68,1.37,14.53
			c0.39,4.69,0.64,9.35,1.2,14.08c0.13,1.09,0.26,2.18,0.3,3.28c0.17,4.86-1.48,9.63-3.71,13.96c-2.23,4.33-5.04,8.32-7.45,12.55
			c-4.98,8.75-8.17,18.5-9.41,28.49c-0.31,2.5-0.49,5.01-0.55,7.52c-0.05,2.27-0.41,5.22,0.25,7.41c0.6,2.02,1.71,4,2.36,6.07
			c0.77,2.42,1.51,4.85,2.45,7.22c2.02,5.09,4.3,10.07,6.58,15.05c1.19,2.6,2.38,5.19,3.56,7.79c3.23,7.07,5.39,12.89,4.58,20.81
			c-0.43,4.18-0.34,8.46-0.66,12.7c-0.71,9.32-1.5,18.63-2.26,27.95c-0.57,7.01-1,14.03-1.19,21.13
			c-0.42,15.47-0.75,30.93-0.88,46.4c-0.25,29.37,0.18,58.79,2.56,88.07c0.16,1.95,0.33,3.9,0.5,5.84c0.01,0.08-0.07,0.14-0.15,0.12
			l-15.36-3.76c-12.81,4.94-27.4,5.78-40.77,2.37c-3.61-0.92-7.29-2.24-9.72-4.88c-3.96-4.29-3.51-10.61-2.82-16.22
			c1.81-14.85,3.67-29.7,5.46-44.55c3.75-31.08,7.26-62.2,9.65-93.42c0.53-6.98,1.57-14.2,0.92-21.2
			c-0.39-4.19,0.43-24.57,0.92-28.81c1.64-14.31,2.59-24.06,6.93-37.78c3.24-10.23,11.12-41.8,13.27-52.31
			c2.76-13.51,6.78-19.95,5.28-27.98c-2.3-12.38-5.66-33.58-7.42-43.57c-1.61-9.12,0.58-9.44-2.32-22.84
			c-1.21-5.59-39.6-1.71-39.6-1.71s-5.59-22.39-6.97-27.44c-3.77-13.73-11.57-27.45-17.74-40.23c-6.41-13.26-13.19-26.33-20.1-39.34
			c-13.84-26.06-28.21-51.85-41.15-78.38c-8.79-18.02-16.9-36.32-24.29-54.87l1.08-8.47c17.33-8.69,34.66-17.38,51.99-26.07
			c2.17-1.09,4.68-2.21,7-1.43c2.03,0.68,3.22,2.59,4.24,4.35c4.74,8.24,6.62,16.93,9.73,25.89c3.75,10.79,8.01,21.39,12.78,31.77
			c9.27,20.17,20.41,39.41,32.27,58.15c5.94,9.39,12.08,18.66,18.26,27.88c2.58,3.85,5.85,7.69,7.23,12.18
			c1.08,3.53,1.57,6.88,3.13,10.3c0.5,1.1,7.43,14.7,6.92,15.07c2.4-1.72,4.79-3.44,7.19-5.16c-2.29-4.49-4.56-8.98-6.83-13.48
			c-5.27-10.46-10.49-20.95-15.67-31.46c-2.59-5.25-5.18-10.51-7.76-15.77c-1.16-2.37-2.17-4.96-3.57-7.16
			c-1.46-2.3-3.31-4.43-4.95-6.61c-2.97-3.97-5.94-7.94-8.73-12.03c-4.18-6.13-7.99-12.6-10.33-19.65
			c-1.42-4.26-2.29-8.74-2.35-13.24c-0.03-2.19,0.14-4.37,0.51-6.52c0.29-1.69,0.03-3.45,0.69-5.06
			C271.98,196.08,277.14,191.68,282.35,189.6z"/>
	</g>
	<g>
		<path class="st1" d="M306.33,566.38c-0.85-10.64-4.06-20.73-7.25-30.69c-2.78-8.69-5.56-17.43-9.56-25.72
			c-2.38-4.93-6.8-9.16-9.82-13.83c-2.23-3.46-3.97-7.03-6.73-10.12c-2.99-3.35-4.83-8.08-6.81-12c-2.12-4.19-4.09-8.44-5.86-12.75
			c-2.7-6.57-4.99-13.36-8.97-19.35c-0.48-0.73-1-1.47-1.17-2.31c-0.17-0.84,0.1-1.83,0.9-2.26c0.53-0.29,1.19-0.29,1.81-0.28
			c2.57,0.04,5.43-0.23,7.95,0.31c1.69,0.36,3.11,1.32,4.77,1.78c5.15,1.43,10.64-0.38,15.8-0.8c3.67-0.3,7.31-1.22,11.01-1.17
			c4.46,0.06,8.96,0.05,13.43,0.02c0.57,0,1.17,0,1.66,0.27c1,0.54,1.07,1.83,1.02,2.91c-0.4,7.93,0.8,15.46,2.01,23.28
			c1.24,7.98,2.67,15.94,4.61,23.78c1.19,4.8,2.56,9.55,4.12,14.25"/>
	</g>
</g>
<g>
	<g>
		<path class="st1" d="M474.95,414.42h32.62c31.64,0,45.45,23.9,45.45,72.33v20.84c0,44.94-7,82.2-46.83,82.2h-18.07v156.59h-13.17
			V414.42z M488.12,572.36h17.65c29.98,0,33.75-27.63,33.75-64.31v-19.31c0-29.69-5.1-56.87-32.68-56.87h-18.72V572.36z"/>
		<path class="st1" d="M593.34,414.42v331.97h-13.17V414.42H593.34z"/>
		<path class="st1" d="M643.37,584.68v161.72H630.2V414.42h30.9c33.95,0,47.14,22.8,47.14,72.72v17.78
			c0,39.03-7.35,63.13-23.31,70.54c15.71,6.52,21.58,24.32,21.58,68.08c0,28.8-0.34,81.02,2.39,102.85h-13.15
			c-2.75-21.34-2.4-78.43-2.4-100.84c0-45.61-4.77-60.88-29.69-60.88H643.37z M643.37,567.23h21.97c24.88,0,29.39-26.48,29.39-61.29
			V487.7c0-35.08-7.79-55.83-33.71-55.83h-17.65V567.23z"/>
		<path class="st1" d="M752.25,622.92l-13.92,123.47h-13.19l38.35-331.97h19.19l40.06,331.97h-13.88l-14.61-123.47H752.25z
			 M792.16,605.37c-10.84-90.19-17.32-149.7-19.06-174.82h-0.7c-0.69,23.93-10.23,102.29-18.04,174.82H792.16z"/>
		<path class="st1" d="M845.63,657.25v17.95c0,37.97,9.83,57.72,28.57,57.72c19.08,0,28.54-15.48,28.54-67
			c0-42.1-6.49-61.3-30.15-87.68c-24.34-27.35-36.03-42.81-36.03-91.53c0-40.33,8.25-76.78,38.65-76.29
			c25.73,0.49,37.27,22.34,37.27,70.77v13.03h-13.17V481.7c0-32.1-4.75-53.8-24.45-53.8c-20.03,0-25.13,25.6-25.13,55.73
			c0,38.43,5.43,50.35,27.33,75.12c29.24,32.88,38.86,50.36,38.86,105.05c0,46.24-6.95,86.59-41.41,86.59
			c-31.43,0-42.05-30.99-42.05-74.73v-18.42H845.63z"/>
		<path class="st1" d="M956.18,622.92l-13.92,123.47h-13.19l38.35-331.97h19.19l40.06,331.97h-13.88l-14.61-123.47H956.18z
			 M996.08,605.37c-10.84-90.19-17.32-149.7-19.06-174.82h-0.7c-0.69,23.93-10.23,102.29-18.04,174.82H996.08z"/>
		<path class="st1" d="M1097.54,657.25v17.95c0,37.97,9.83,57.72,28.57,57.72c19.08,0,28.54-15.48,28.54-67
			c0-42.1-6.49-61.3-30.15-87.68c-24.34-27.35-36.03-42.81-36.03-91.53c0-40.33,8.25-76.78,38.65-76.29
			c25.73,0.49,37.27,22.34,37.27,70.77v13.03h-13.17V481.7c0-32.1-4.75-53.8-24.45-53.8c-20.03,0-25.13,25.6-25.13,55.73
			c0,38.43,5.43,50.35,27.33,75.12c29.24,32.88,38.86,50.36,38.86,105.05c0,46.24-6.95,86.59-41.41,86.59
			c-31.43,0-42.05-30.99-42.05-74.73v-18.42H1097.54z"/>
		<path class="st1" d="M1211.56,431.98h-37.34v-17.56h87.19v17.56h-36.68v314.41h-13.17V431.98z"/>
		<path class="st1" d="M1290.09,414.42v263.64c0,30.67,7.83,54.31,28.58,54.31c21.09,0,28.57-19.78,28.57-53.82V414.42h13.51v262.65
			c0,50.24-15.44,73.32-42.42,73.32c-26.94,0-41.4-22.98-41.4-71.86V414.42H1290.09z"/>
		<path class="st1" d="M1396.54,414.42h33.92c50.34,0,50.93,52.33,50.93,95.96v135c0,51.18-4.82,101.01-53.95,101.01h-30.9V414.42z
			 M1409.71,728.92h16.34c32.36,0,41.82-23.81,41.82-76.57V505.92c0-46.36-5.78-74.01-41.16-74.01h-17V728.92z"/>
		<path class="st1" d="M1525.89,414.42v331.97h-13.17V414.42H1525.89z"/>
		<path class="st1" d="M1643.86,489.26v179.85c0,52.92-14.49,81.28-43.83,81.28c-33.67,0-42.75-34.7-42.75-81.26V489.74
			c0-49.03,13.22-79.31,43.8-79.31C1634.03,410.43,1643.86,448.49,1643.86,489.26z M1570.81,491.1v177.68
			c0,47.27,11.88,64.08,29.93,64.08c18.74,0,29.6-16.79,29.6-66.53V491.57c0-44.33-11.19-63.6-29.94-63.6
			C1580.01,427.97,1570.81,446.73,1570.81,491.1z"/>
		<path class="st1" d="M1675.03,657.25v17.95c0,37.97,9.83,57.72,28.57,57.72c19.08,0,28.54-15.48,28.54-67
			c0-42.1-6.49-61.3-30.15-87.68c-24.34-27.35-36.03-42.81-36.03-91.53c0-40.33,8.25-76.78,38.65-76.29
			c25.73,0.49,37.27,22.34,37.27,70.77v13.03h-13.17V481.7c0-32.1-4.75-53.8-24.45-53.8c-20.03,0-25.13,25.6-25.13,55.73
			c0,38.43,5.43,50.35,27.33,75.12c29.24,32.88,38.86,50.36,38.86,105.05c0,46.24-6.95,86.59-41.41,86.59
			c-31.43,0-42.05-30.99-42.05-74.73v-18.42H1675.03z"/>
	</g>
</g>
</svg>
