<?xml version="1.0" encoding="utf-8"?>
<!-- Generator: Adobe Illustrator 16.0.0, SVG Export Plug-In . SVG Version: 6.00 Build 0)  -->
<!DOCTYPE svg PUBLIC "-//W3C//DTD SVG 1.1//EN" "http://www.w3.org/Graphics/SVG/1.1/DTD/svg11.dtd">
<svg version="1.1" xmlns="http://www.w3.org/2000/svg" xmlns:xlink="http://www.w3.org/1999/xlink" x="0px" y="0px" width="256px"
	 height="256px" viewBox="0 0 256 256" enable-background="new 0 0 256 256" xml:space="preserve">
<symbol  id="New_Symbol" viewBox="-14.566 -13.946 29.133 27.892">
	<path fill="#47381C" d="M14.567,0c0-7.703-6.521-13.945-14.566-13.945c-8.046,0-14.567,6.242-14.567,13.945S-8.046,13.946,0,13.946
		C8.046,13.946,14.567,7.703,14.567,0z"/>
	<path opacity="0.9" fill="#122216" d="M0,13.946c-8.046,0-14.567-6.243-14.567-13.946S-8.046-13.946,0-13.946
		c8.046,0,14.566,6.242,14.566,13.945S8.046,13.946,0,13.946z M7.402-5.958C6.959-6.463,6.445-6.89,5.86-7.214
		C2.279-9.2-4.946-8.734-7.755-5.298C-10.7-1.693-9.344,4.47-5.929,7.295c2.98,2.465,9.231,2.915,12.415,0.36
		C10.134,4.729,10.459-2.474,7.402-5.958z"/>
</symbol>
<symbol  id="New_Symbol_1" viewBox="-14.566 -13.946 29.133 27.892">
	<path fill="#45643D" d="M14.567,0c0-7.703-6.521-13.945-14.566-13.945c-8.046,0-14.567,6.242-14.567,13.945S-8.046,13.946,0,13.946
		C8.046,13.946,14.567,7.703,14.567,0z"/>
	<path opacity="0.9" fill="#122216" d="M0,13.946c-8.046,0-14.567-6.243-14.567-13.946S-8.046-13.946,0-13.946
		c8.046,0,14.566,6.242,14.566,13.945S8.046,13.946,0,13.946z M7.402-5.958C6.959-6.463,6.445-6.89,5.86-7.214
		C2.279-9.2-4.946-8.734-7.755-5.298C-10.7-1.693-9.344,4.47-5.929,7.295c2.98,2.465,9.231,2.915,12.415,0.36
		C10.134,4.729,10.459-2.474,7.402-5.958z"/>
</symbol>
<symbol  id="New_Symbol_2" viewBox="-14.566 -13.946 29.133 27.892">
	<path fill="#575B32" d="M14.567,0c0-7.703-6.521-13.945-14.566-13.945c-8.046,0-14.567,6.242-14.567,13.945S-8.046,13.946,0,13.946
		C8.046,13.946,14.567,7.703,14.567,0z"/>
	<path opacity="0.8" fill="#122216" d="M0,13.946c-8.046,0-14.567-6.243-14.567-13.946S-8.046-13.946,0-13.946
		c8.046,0,14.566,6.242,14.566,13.945S8.046,13.946,0,13.946z M7.402-5.958C6.959-6.463,6.445-6.89,5.86-7.214
		C2.279-9.2-4.946-8.734-7.755-5.298C-10.7-1.693-9.344,4.47-5.929,7.295c2.98,2.465,9.231,2.915,12.415,0.36
		C10.134,4.729,10.459-2.474,7.402-5.958z"/>
</symbol>
<g id="Stone" display="none">
	<polygon display="inline" fill="#3D3D3D" stroke="#000000" stroke-miterlimit="10" points="141.811,51.387 162.167,60.018 
		179.441,106.048 179.441,146.134 189.459,149.395 187.027,178.93 169.463,187.561 85.425,184.358 87.316,135.009 	"/>
	<polygon display="inline" fill="#787878" stroke="#000000" stroke-miterlimit="10" points="77.318,142.873 103.575,73.443 
		124.417,54.431 141.811,51.387 158.114,83.993 149.737,112.761 143.612,112.378 143.612,142.873 	"/>
	<polygon display="inline" fill="#C9C9C9" points="108.124,74.979 126.228,58.484 138.929,55.607 142.711,64.238 135.415,59.378 
		127.398,59.826 	"/>
	<polyline display="inline" fill="#999999" points="147.89,76.994 141.676,88.975 122.411,96.109 135.989,103.925 143.194,105.08 
		147.163,85.66 149.708,87.38 148.944,77.163 	"/>
	<polygon display="inline" fill="#292929" points="162.348,94.286 156.401,116.79 149.286,115.766 150.868,159.368 165.5,163.114 
		172.254,139.037 169.239,129.702 163.068,141.594 165.949,101.83 	"/>
	<polygon display="inline" fill="#6E6E6E" stroke="#000000" stroke-miterlimit="10" points="66.376,126.289 70.75,170.456 
		81.58,189.502 99.163,186.618 139.041,188.563 158.791,173.37 151.782,138.879 153.185,127.73 	"/>
	<polygon display="inline" fill="#4F4F4F" points="135.946,151.148 138.494,185.771 145.246,178.689 	"/>
	<polygon display="inline" fill="#4F4F4F" points="151.387,130.491 142.723,136.352 137.371,148.329 148.413,140.548 
		153.68,162.581 155.464,161.619 150.623,139.848 	"/>
	<polygon display="inline" fill="#4F4F4F" points="76.384,143.923 81.99,187.466 98.298,184.668 80.546,145.235 	"/>
	<polygon display="inline" fill="#4F4F4F" points="116.646,185.706 119.703,159.521 124.374,186.45 	"/>
	<polygon display="inline" fill="#4F4F4F" points="97.789,148.208 101.611,160.886 103.14,175.487 104.924,160.36 102.545,150.131 
		107.642,150.043 	"/>
	<polygon display="inline" fill="#969696" stroke="#000000" stroke-miterlimit="10" points="77.984,115.846 66.149,125.537 
		75.043,140.733 111.794,146.657 113.778,151.109 111.931,158.979 115.563,151.34 114.19,144.547 135.088,146.611 141.888,136.028 
		152.957,127.503 145.949,114.65 107.642,108.705 	"/>
	<polygon display="inline" fill="#C7C7C7" points="108.122,110.49 142.775,117.526 146.033,127.984 134.993,137.602 
		131.329,121.097 107.642,114.376 88.59,115.951 	"/>
	<polygon display="inline" fill="#5E5E5E" stroke="#000000" stroke-miterlimit="10" points="169.467,166.019 170.501,180.094 
		167.214,188.584 150.91,191.819 137.939,188.759 130.823,173.021 132.626,163.752 	"/>
	<polygon display="inline" fill="#3B3B3B" points="139.968,178.879 138.481,188.191 148.007,190.355 140.575,187.143 
		140.779,182.486 	"/>
	<polyline display="inline" fill="#3B3B3B" points="132.784,166.268 131.524,173.13 136.163,182.967 133.101,173.044 
		133.641,168.498 136.478,172.912 133.235,166.006 132.695,165.874 	"/>
	<polygon display="inline" fill="#3B3B3B" points="160.953,179.055 157.981,189.502 166.719,187.753 168.271,183.505 
		164.865,184.969 	"/>
	<polygon display="inline" fill="#3B3B3B" points="168.61,168.815 162.26,177.35 167.71,172.977 169.196,177.786 	"/>
	<polygon display="inline" fill="#949494" stroke="#000000" stroke-miterlimit="10" points="140.056,178.171 160.683,178.171 
		169.51,166.019 164.094,156.7 149.202,153.043 132.77,163.752 	"/>
	<path display="inline" fill="#C7C7C7" d="M149.332,154.355c-0.134,0-14.996,9.616-14.996,9.616l5.449,11.148l-1.981-10.623
		l12.61-8.699l12.926,2.229l-13.467-3.672H149.332z"/>
</g>
<g id="Berries" display="none">
	<g id="Layer_3" display="inline">
		<path fill="#717272" d="M216.308,129.907c-0.588-1.556-0.957-3.033,0.658-5.297c0.457-0.64,1.103-1.325,1.41-2.057
			c0.895-2.139,1.251-4.522,2.092-6.698c1.054-2.727,2.123-5.434,2.16-8.403c0.104-8.361-1.149-16.518-8.952-21.019
			c1.968,1.221,1.651,7.654,1.641,9.723c-0.017,3.463-0.636,7.92-3.712,10.057c-2.497,1.734-4.545,1.86-7.388,1.551
			c-3.341-0.365-13.69,3.337-16.042,0.739c-1.11-1.228-1.26-5.765-1.886-7.475c-0.893-2.436-2.855-4.49-4.437-6.619
			c-3.564-4.8-7.328-5.732-12.995-6.192c-2.229-1.543-5.19-0.252-7.419,0.304c-1.49,0.371-3.046,0.104-4.527,0.429
			c-3.697,0.811-7.699,1.498-11.258,2.74c-3.846,1.343-7.386,3.439-11.325,4.541c-1.761,0.493-3.498,1.159-5.321,1.401
			c-1.785,0.239-3.336-0.223-5.082-0.329c-3.07-0.183-6.273-0.382-9.324,0.27c-0.226,0.049-0.445,0.104-0.658,0.165
			c-2.924,0.841-4.761,2.879-6.724,5.131c-1.266,1.454-2.494,2.679-3.395,4.399c-0.634,1.21-1.201,2.828-2.25,3.755
			c-1.038,0.917-2.386,0.842-3.695,1.056c-2.953,0.481-5.836,1.556-8.331,3.214c-1.75,1.164-3.649,2.738-4.803,4.517
			c-0.765,1.178-0.939,2.522-1.427,3.817c-1.225,3.251-2.325,7.309-5.572,9.083c-3.684,2.014-7.352,3.104-10.563,6.004
			c-3.821,3.449-7.26,7.479-10.914,11.117c-3.926,3.91-9.241,11.051-15.729,7.283c1.712,4.123,3.708,9.697,6.87,12.928
			c4.701,4.805,9.935,0.67,15.245,2.596c2.569,0.932,4.265,2.744,7.201,2.512c3.33,1.129,4.475,3.408,8.644,3.186
			c3.389-0.18,5.635-2.875,8.974-3.076c0.794,1.82,2.862,3.521,4.28,4.896c2.913,2.822,3.123,1.215,6.611,0.863
			c4.308-0.438,14.177,3.518,15.426-2.305c6.607,6.541,18.835,4.377,25.221-1.248c1.563-1.377,3.173-3.814,5.261-4.391
			c1.862-0.514,4.112,0.35,6.14-0.828c1.621-0.943,2.896-2.393,4.705-3.375c0.538,0.473,0.982,0.291,1.38,1.166
			c0.354-0.082,0.616-0.1,1.005-0.143c0.103-1.637,2.215-2.236,3.61-1.613c1.751,0.779,1.471,2.545,2.293,4.094
			c2.228,4.195,7.546,4.412,11.631,4.145c4.792-0.313,6.356-2.232,7.637-6.822c0.021-1.67,2.156-1.992,3.395-2.861
			c2.729-1.922,1.426-4.756,3.43-6.945c1.412-1.541,4.329-3.373,6.175-4.402c2.321-1.297,4.923-2.229,6.541-4.461
			c1.615-2.232,0.686-5.543,2.66-7.695c1.464-1.596,4.039-2.361,5.963-3.178c2.689-1.143,6.104-2.646,6.394-5.928
			C217.387,132.445,216.778,131.152,216.308,129.907z"/>
		<g opacity="0.8">
			
				<use xlink:href="#New_Symbol_2"  width="29.133" height="27.892" x="-14.566" y="-13.946" transform="matrix(0.2542 0.0192 0.0192 -0.2542 133.3369 141.6592)" overflow="visible"/>
			
				<use xlink:href="#New_Symbol_2"  width="29.133" height="27.892" x="-14.566" y="-13.946" transform="matrix(0.2034 0.0154 0.0154 -0.2034 142.0996 136.6006)" overflow="visible"/>
			
				<use xlink:href="#New_Symbol_2"  width="29.133" height="27.892" x="-14.566" y="-13.946" transform="matrix(0.1942 0.0147 0.0147 -0.1942 154.3848 121.7715)" overflow="visible"/>
			
				<use xlink:href="#New_Symbol_2"  width="29.133" height="27.892" x="-14.566" y="-13.946" transform="matrix(0.2715 0.0205 0.0205 -0.2715 60.0156 142.8643)" overflow="visible"/>
			
				<use xlink:href="#New_Symbol_2"  width="29.133" height="27.892" x="-14.566" y="-13.946" transform="matrix(0.1838 0.0139 0.0139 -0.1838 81.6621 158.1602)" overflow="visible"/>
			
				<use xlink:href="#New_Symbol_2"  width="29.133" height="27.892" x="-14.566" y="-13.946" transform="matrix(0.182 0.0137 0.0137 -0.182 119.6123 136.1973)" overflow="visible"/>
			
				<use xlink:href="#New_Symbol_2"  width="29.133" height="27.892" x="-14.566" y="-13.946" transform="matrix(0.3678 0.0278 0.0278 -0.3678 149.5977 149.2734)" overflow="visible"/>
			
				<use xlink:href="#New_Symbol_2"  width="29.133" height="27.892" x="-14.566" y="-13.946" transform="matrix(0.4011 0.0303 0.0303 -0.4011 178.4609 142.1592)" overflow="visible"/>
			
				<use xlink:href="#New_Symbol_2"  width="29.133" height="27.892" x="-14.566" y="-13.946" transform="matrix(0.3621 0.0273 0.0273 -0.3621 159.6074 133.5557)" overflow="visible"/>
			
				<use xlink:href="#New_Symbol_2"  width="29.133" height="27.892" x="-14.566" y="-13.946" transform="matrix(0.4502 0.034 0.034 -0.4502 131.9258 156.502)" overflow="visible"/>
			
				<use xlink:href="#New_Symbol_2"  width="29.133" height="27.892" x="-14.566" y="-13.946" transform="matrix(0.3686 0.0278 0.0278 -0.3686 140.5576 145.5625)" overflow="visible"/>
			
				<use xlink:href="#New_Symbol_2"  width="29.133" height="27.892" x="-14.566" y="-13.946" transform="matrix(0.3461 0.0261 0.0261 -0.3461 104.7065 143.8994)" overflow="visible"/>
			
				<use xlink:href="#New_Symbol_2"  width="29.133" height="27.892" x="-14.566" y="-13.946" transform="matrix(0.2484 0.0188 0.0188 -0.2484 84.1499 163.3789)" overflow="visible"/>
			
				<use xlink:href="#New_Symbol_2"  width="29.133" height="27.892" x="-14.566" y="-13.946" transform="matrix(0.5678 0.0429 0.0429 -0.5678 100.9966 166.9932)" overflow="visible"/>
			
				<use xlink:href="#New_Symbol_2"  width="29.133" height="27.892" x="-14.566" y="-13.946" transform="matrix(0.3279 0.0248 0.0248 -0.3279 155.1113 143.2305)" overflow="visible"/>
			
				<use xlink:href="#New_Symbol_2"  width="29.133" height="27.892" x="-14.566" y="-13.946" transform="matrix(0.5058 0.0382 0.0382 -0.5058 175.9688 154.6758)" overflow="visible"/>
			
				<use xlink:href="#New_Symbol_2"  width="29.133" height="27.892" x="-14.566" y="-13.946" transform="matrix(0.3457 0.0261 0.0261 -0.3457 188.4277 136.1963)" overflow="visible"/>
			
				<use xlink:href="#New_Symbol_2"  width="29.133" height="27.892" x="-14.566" y="-13.946" transform="matrix(0.2381 0.018 0.018 -0.2381 66.9263 158.1182)" overflow="visible"/>
			
				<use xlink:href="#New_Symbol_2"  width="29.133" height="27.892" x="-14.566" y="-13.946" transform="matrix(0.2658 0.0201 0.0201 -0.2658 169.1982 129.0479)" overflow="visible"/>
			
				<use xlink:href="#New_Symbol_2"  width="29.133" height="27.892" x="-14.566" y="-13.946" transform="matrix(0.2555 0.0193 0.0193 -0.2555 176.5967 118.2852)" overflow="visible"/>
			
				<use xlink:href="#New_Symbol_2"  width="29.133" height="27.892" x="-14.566" y="-13.946" transform="matrix(0.1485 0.0112 0.0112 -0.1485 187.1123 142.1758)" overflow="visible"/>
			
				<use xlink:href="#New_Symbol_2"  width="29.133" height="27.892" x="-14.566" y="-13.946" transform="matrix(0.3253 0.0246 0.0246 -0.3253 161.877 119.4102)" overflow="visible"/>
			
				<use xlink:href="#New_Symbol_2"  width="29.133" height="27.892" x="-14.566" y="-13.946" transform="matrix(0.2799 0.0211 0.0211 -0.2799 101.9731 133.0957)" overflow="visible"/>
			
				<use xlink:href="#New_Symbol_2"  width="29.133" height="27.892" x="-14.566" y="-13.946" transform="matrix(0.3576 0.027 0.027 -0.3576 66.6143 166.8096)" overflow="visible"/>
			
				<use xlink:href="#New_Symbol_2"  width="29.133" height="27.892" x="-14.566" y="-13.946" transform="matrix(0.4761 0.036 0.036 -0.4761 48.1211 152.3467)" overflow="visible"/>
			
				<use xlink:href="#New_Symbol_2"  width="29.133" height="27.892" x="-14.566" y="-13.946" transform="matrix(0.2076 0.0157 0.0157 -0.2076 88.2271 156.1465)" overflow="visible"/>
			
				<use xlink:href="#New_Symbol_2"  width="29.133" height="27.892" x="-14.566" y="-13.946" transform="matrix(0.2095 0.0158 0.0158 -0.2095 92.2026 130.2061)" overflow="visible"/>
			
				<use xlink:href="#New_Symbol_2"  width="29.133" height="27.892" x="-14.566" y="-13.946" transform="matrix(0.1949 0.0147 0.0147 -0.1949 96.6294 152.5957)" overflow="visible"/>
			
				<use xlink:href="#New_Symbol_2"  width="29.133" height="27.892" x="-14.566" y="-13.946" transform="matrix(0.1894 0.0143 0.0143 -0.1894 83.8564 150.2559)" overflow="visible"/>
			
				<use xlink:href="#New_Symbol_2"  width="29.133" height="27.892" x="-14.566" y="-13.946" transform="matrix(0.4652 0.0351 0.0351 -0.4652 113.7783 161.0176)" overflow="visible"/>
			
				<use xlink:href="#New_Symbol_2"  width="29.133" height="27.892" x="-14.566" y="-13.946" transform="matrix(0.2399 0.0181 0.0181 -0.2399 168.4375 118.769)" overflow="visible"/>
			
				<use xlink:href="#New_Symbol_2"  width="29.133" height="27.892" x="-14.566" y="-13.946" transform="matrix(0.335 0.0253 0.0253 -0.335 150.6055 135.8184)" overflow="visible"/>
			
				<use xlink:href="#New_Symbol_2"  width="29.133" height="27.892" x="-14.566" y="-13.946" transform="matrix(0.4154 0.0314 0.0314 -0.4154 134.1221 93.6089)" overflow="visible"/>
			
				<use xlink:href="#New_Symbol_2"  width="29.133" height="27.892" x="-14.566" y="-13.946" transform="matrix(0.212 0.016 0.016 -0.212 162.373 140.4756)" overflow="visible"/>
			
				<use xlink:href="#New_Symbol_2"  width="29.133" height="27.892" x="-14.566" y="-13.946" transform="matrix(0.4688 0.0354 0.0354 -0.4688 142.4746 91.2012)" overflow="visible"/>
			
				<use xlink:href="#New_Symbol_2"  width="29.133" height="27.892" x="-14.566" y="-13.946" transform="matrix(0.3226 0.0244 0.0244 -0.3226 109.1445 154.8838)" overflow="visible"/>
			
				<use xlink:href="#New_Symbol_2"  width="29.133" height="27.892" x="-14.566" y="-13.946" transform="matrix(0.2159 0.0163 0.0163 -0.2159 119.7817 125.5483)" overflow="visible"/>
			
				<use xlink:href="#New_Symbol_2"  width="29.133" height="27.892" x="-14.566" y="-13.946" transform="matrix(0.2232 0.0169 0.0169 -0.2232 142.1006 128.2817)" overflow="visible"/>
			
				<use xlink:href="#New_Symbol_2"  width="29.133" height="27.892" x="-14.566" y="-13.946" transform="matrix(0.4217 0.0318 0.0318 -0.4217 140.0361 162.2744)" overflow="visible"/>
			
				<use xlink:href="#New_Symbol_2"  width="29.133" height="27.892" x="-14.566" y="-13.946" transform="matrix(0.2468 0.0186 0.0186 -0.2468 172.248 146.2188)" overflow="visible"/>
			
				<use xlink:href="#New_Symbol_2"  width="29.133" height="27.892" x="-14.566" y="-13.946" transform="matrix(0.5211 0.0394 0.0394 -0.5211 155.5342 91.0449)" overflow="visible"/>
			
				<use xlink:href="#New_Symbol_2"  width="29.133" height="27.892" x="-14.566" y="-13.946" transform="matrix(0.5771 0.0436 0.0436 -0.5771 171.9658 96.9902)" overflow="visible"/>
			
				<use xlink:href="#New_Symbol_2"  width="29.133" height="27.892" x="-14.566" y="-13.946" transform="matrix(0.2344 0.0177 0.0177 -0.2344 150.791 128.2896)" overflow="visible"/>
			
				<use xlink:href="#New_Symbol_2"  width="29.133" height="27.892" x="-14.566" y="-13.946" transform="matrix(0.3834 0.029 0.029 -0.3834 201.1211 133.2979)" overflow="visible"/>
			
				<use xlink:href="#New_Symbol_2"  width="29.133" height="27.892" x="-14.566" y="-13.946" transform="matrix(0.4289 0.0324 0.0324 -0.4289 209.4834 132.0518)" overflow="visible"/>
			
				<use xlink:href="#New_Symbol_2"  width="29.133" height="27.892" x="-14.566" y="-13.946" transform="matrix(0.44 0.0332 0.0332 -0.44 196.2871 146.9727)" overflow="visible"/>
			
				<use xlink:href="#New_Symbol_2"  width="29.133" height="27.892" x="-14.566" y="-13.946" transform="matrix(0.1994 0.0151 0.0151 -0.1994 176.2803 126.0322)" overflow="visible"/>
			
				<use xlink:href="#New_Symbol_2"  width="29.133" height="27.892" x="-14.566" y="-13.946" transform="matrix(0.2612 0.0197 0.0197 -0.2612 128.0542 149.001)" overflow="visible"/>
			
				<use xlink:href="#New_Symbol_2"  width="29.133" height="27.892" x="-14.566" y="-13.946" transform="matrix(0.3928 0.0297 0.0297 -0.3928 102.4844 158.2178)" overflow="visible"/>
			
				<use xlink:href="#New_Symbol_2"  width="29.133" height="27.892" x="-14.566" y="-13.946" transform="matrix(0.3372 0.0255 0.0255 -0.3372 97.3062 122.4604)" overflow="visible"/>
			
				<use xlink:href="#New_Symbol_2"  width="29.133" height="27.892" x="-14.566" y="-13.946" transform="matrix(0.3327 0.0251 0.0251 -0.3327 77.9849 172.1572)" overflow="visible"/>
			
				<use xlink:href="#New_Symbol_2"  width="29.133" height="27.892" x="-14.566" y="-13.946" transform="matrix(0.1818 0.0137 0.0137 -0.1818 74.1392 146.7051)" overflow="visible"/>
			
				<use xlink:href="#New_Symbol_2"  width="29.133" height="27.892" x="-14.566" y="-13.946" transform="matrix(0.3155 0.0238 0.0238 -0.3155 60.8335 139.3047)" overflow="visible"/>
			
				<use xlink:href="#New_Symbol_2"  width="29.133" height="27.892" x="-14.566" y="-13.946" transform="matrix(0.3437 0.026 0.026 -0.3437 75.5977 136.2676)" overflow="visible"/>
			
				<use xlink:href="#New_Symbol_2"  width="29.133" height="27.892" x="-14.566" y="-13.946" transform="matrix(0.2579 0.0195 0.0195 -0.2579 109.2852 148.9678)" overflow="visible"/>
			
				<use xlink:href="#New_Symbol_2"  width="29.133" height="27.892" x="-14.566" y="-13.946" transform="matrix(0.37 0.0279 0.0279 -0.37 115.5356 119.9712)" overflow="visible"/>
			
				<use xlink:href="#New_Symbol_2"  width="29.133" height="27.892" x="-14.566" y="-13.946" transform="matrix(0.3066 0.0232 0.0232 -0.3066 150.2939 114.1196)" overflow="visible"/>
			
				<use xlink:href="#New_Symbol_2"  width="29.133" height="27.892" x="-14.566" y="-13.946" transform="matrix(0.282 0.0213 0.0213 -0.282 141.0996 116.9067)" overflow="visible"/>
			
				<use xlink:href="#New_Symbol_2"  width="29.133" height="27.892" x="-14.566" y="-13.946" transform="matrix(0.2738 0.0207 0.0207 -0.2738 94.1445 159.501)" overflow="visible"/>
			
				<use xlink:href="#New_Symbol_2"  width="29.133" height="27.892" x="-14.566" y="-13.946" transform="matrix(0.3077 0.0232 0.0232 -0.3077 115.9624 147.5703)" overflow="visible"/>
			
				<use xlink:href="#New_Symbol_2"  width="29.133" height="27.892" x="-14.566" y="-13.946" transform="matrix(0.5176 0.0391 0.0391 -0.5176 119.6973 106.6782)" overflow="visible"/>
			
				<use xlink:href="#New_Symbol_2"  width="29.133" height="27.892" x="-14.566" y="-13.946" transform="matrix(0.3242 0.0245 0.0245 -0.3242 110.9663 165.9824)" overflow="visible"/>
			
				<use xlink:href="#New_Symbol_2"  width="29.133" height="27.892" x="-14.566" y="-13.946" transform="matrix(0.3941 0.0298 0.0298 -0.3941 108.8066 115.9819)" overflow="visible"/>
			
				<use xlink:href="#New_Symbol_2"  width="29.133" height="27.892" x="-14.566" y="-13.946" transform="matrix(0.1898 0.0143 0.0143 -0.1898 112.3755 131.1357)" overflow="visible"/>
			
				<use xlink:href="#New_Symbol_2"  width="29.133" height="27.892" x="-14.566" y="-13.946" transform="matrix(0.346 0.0261 0.0261 -0.346 123.9316 157.3252)" overflow="visible"/>
			
				<use xlink:href="#New_Symbol_2"  width="29.133" height="27.892" x="-14.566" y="-13.946" transform="matrix(0.2274 0.0172 0.0172 -0.2274 125.8872 129.4971)" overflow="visible"/>
			
				<use xlink:href="#New_Symbol_2"  width="29.133" height="27.892" x="-14.566" y="-13.946" transform="matrix(0.3464 0.0262 0.0262 -0.3464 148.2441 156.4365)" overflow="visible"/>
			
				<use xlink:href="#New_Symbol_2"  width="29.133" height="27.892" x="-14.566" y="-13.946" transform="matrix(0.1786 0.0135 0.0135 -0.1786 134.9727 124.853)" overflow="visible"/>
			
				<use xlink:href="#New_Symbol_2"  width="29.133" height="27.892" x="-14.566" y="-13.946" transform="matrix(0.4872 0.0368 0.0368 -0.4872 140.123 99.7598)" overflow="visible"/>
			
				<use xlink:href="#New_Symbol_2"  width="29.133" height="27.892" x="-14.566" y="-13.946" transform="matrix(0.3191 0.0241 0.0241 -0.3191 156.6504 111.4414)" overflow="visible"/>
			
				<use xlink:href="#New_Symbol_2"  width="29.133" height="27.892" x="-14.566" y="-13.946" transform="matrix(0.2483 0.0188 0.0188 -0.2483 127.7466 120.9976)" overflow="visible"/>
			
				<use xlink:href="#New_Symbol_2"  width="29.133" height="27.892" x="-14.566" y="-13.946" transform="matrix(0.3005 0.0227 0.0227 -0.3005 95.1958 165.1094)" overflow="visible"/>
			
				<use xlink:href="#New_Symbol_2"  width="29.133" height="27.892" x="-14.566" y="-13.946" transform="matrix(0.1876 0.0142 0.0142 -0.1876 96.124 147.7744)" overflow="visible"/>
			
				<use xlink:href="#New_Symbol_2"  width="29.133" height="27.892" x="-14.566" y="-13.946" transform="matrix(0.417 0.0315 0.0315 -0.417 124.4771 163.293)" overflow="visible"/>
			
				<use xlink:href="#New_Symbol_2"  width="29.133" height="27.892" x="-14.566" y="-13.946" transform="matrix(0.1793 0.0135 0.0135 -0.1793 113.4409 139.7373)" overflow="visible"/>
			
				<use xlink:href="#New_Symbol_2"  width="29.133" height="27.892" x="-14.566" y="-13.946" transform="matrix(0.2534 0.0191 0.0191 -0.2534 115.877 154.2988)" overflow="visible"/>
			
				<use xlink:href="#New_Symbol_2"  width="29.133" height="27.892" x="-14.566" y="-13.946" transform="matrix(0.2381 0.018 0.018 -0.2381 165.3418 150.1768)" overflow="visible"/>
			
				<use xlink:href="#New_Symbol_2"  width="29.133" height="27.892" x="-14.566" y="-13.946" transform="matrix(0.2925 0.0221 0.0221 -0.2925 178.5869 132.7217)" overflow="visible"/>
			
				<use xlink:href="#New_Symbol_2"  width="29.133" height="27.892" x="-14.566" y="-13.946" transform="matrix(0.4682 0.0354 0.0354 -0.4682 157.793 159.4277)" overflow="visible"/>
			
				<use xlink:href="#New_Symbol_2"  width="29.133" height="27.892" x="-14.566" y="-13.946" transform="matrix(0.3656 0.0276 0.0276 -0.3656 161.9102 125.5693)" overflow="visible"/>
			
				<use xlink:href="#New_Symbol_2"  width="29.133" height="27.892" x="-14.566" y="-13.946" transform="matrix(0.2526 0.0191 0.0191 -0.2526 169.5156 136.9004)" overflow="visible"/>
			
				<use xlink:href="#New_Symbol_2"  width="29.133" height="27.892" x="-14.566" y="-13.946" transform="matrix(0.4148 0.0313 0.0313 -0.4148 167.999 157.4854)" overflow="visible"/>
			
				<use xlink:href="#New_Symbol_2"  width="29.133" height="27.892" x="-14.566" y="-13.946" transform="matrix(0.3542 0.0267 0.0267 -0.3542 157.792 152.7197)" overflow="visible"/>
			
				<use xlink:href="#New_Symbol_2"  width="29.133" height="27.892" x="-14.566" y="-13.946" transform="matrix(0.4386 0.0331 0.0331 -0.4386 162.6572 103.8022)" overflow="visible"/>
			
				<use xlink:href="#New_Symbol_2"  width="29.133" height="27.892" x="-14.566" y="-13.946" transform="matrix(0.2442 0.0184 0.0184 -0.2442 186.7998 118.4258)" overflow="visible"/>
			
				<use xlink:href="#New_Symbol_1"  width="29.133" height="27.892" x="-14.566" y="-13.946" transform="matrix(0.288 0.0217 0.0217 -0.288 149.0156 122.8438)" overflow="visible"/>
			
				<use xlink:href="#New_Symbol_1"  width="29.133" height="27.892" x="-14.566" y="-13.946" transform="matrix(0.5224 0.0394 0.0394 -0.5224 130.8301 89.1743)" overflow="visible"/>
			
				<use xlink:href="#New_Symbol_1"  width="29.133" height="27.892" x="-14.566" y="-13.946" transform="matrix(0.2887 0.0218 0.0218 -0.2887 121.1313 96.8799)" overflow="visible"/>
			
				<use xlink:href="#New_Symbol_1"  width="29.133" height="27.892" x="-14.566" y="-13.946" transform="matrix(0.5682 0.0429 0.0429 -0.5682 126.3096 93.9634)" overflow="visible"/>
			
				<use xlink:href="#New_Symbol_1"  width="29.133" height="27.892" x="-14.566" y="-13.946" transform="matrix(0.654 0.0494 0.0494 -0.654 177.5293 107.2363)" overflow="visible"/>
			
				<use xlink:href="#New_Symbol_1"  width="29.133" height="27.892" x="-14.566" y="-13.946" transform="matrix(0.3016 0.0228 0.0228 -0.3016 142.6143 109.8042)" overflow="visible"/>
			
				<use xlink:href="#New_Symbol_1"  width="29.133" height="27.892" x="-14.566" y="-13.946" transform="matrix(0.5903 0.0446 0.0446 -0.5903 130.2734 101.3442)" overflow="visible"/>
			
				<use xlink:href="#New_Symbol_1"  width="29.133" height="27.892" x="-14.566" y="-13.946" transform="matrix(0.2227 0.0168 0.0168 -0.2227 199.5508 117.981)" overflow="visible"/>
			
				<use xlink:href="#New_Symbol"  width="29.133" height="27.892" x="-14.566" y="-13.946" transform="matrix(0.3672 0.0277 0.0277 -0.3672 164.5596 111.5659)" overflow="visible"/>
			
				<use xlink:href="#New_Symbol"  width="29.133" height="27.892" x="-14.566" y="-13.946" transform="matrix(0.3853 0.0291 0.0291 -0.3853 117.5703 171.5508)" overflow="visible"/>
			
				<use xlink:href="#New_Symbol"  width="29.133" height="27.892" x="-14.566" y="-13.946" transform="matrix(0.2264 0.0171 0.0171 -0.2264 135.0117 166.75)" overflow="visible"/>
			
				<use xlink:href="#New_Symbol"  width="29.133" height="27.892" x="-14.566" y="-13.946" transform="matrix(0.2848 0.0215 0.0215 -0.2848 93.7529 139.7012)" overflow="visible"/>
			
				<use xlink:href="#New_Symbol"  width="29.133" height="27.892" x="-14.566" y="-13.946" transform="matrix(0.4578 0.0346 0.0346 -0.4578 173.0586 168.3047)" overflow="visible"/>
			
				<use xlink:href="#New_Symbol"  width="29.133" height="27.892" x="-14.566" y="-13.946" transform="matrix(0.3836 0.029 0.029 -0.3836 124.9385 140.7695)" overflow="visible"/>
			
				<use xlink:href="#New_Symbol"  width="29.133" height="27.892" x="-14.566" y="-13.946" transform="matrix(0.4099 0.031 0.031 -0.4099 108.1318 175.0439)" overflow="visible"/>
			
				<use xlink:href="#New_Symbol_1"  width="29.133" height="27.892" x="-14.566" y="-13.946" transform="matrix(0.4784 0.0361 0.0361 -0.4784 96.811 173.0938)" overflow="visible"/>
			
				<use xlink:href="#New_Symbol_1"  width="29.133" height="27.892" x="-14.566" y="-13.946" transform="matrix(0.4784 0.0361 0.0361 -0.4784 127.2368 106.4028)" overflow="visible"/>
			
				<use xlink:href="#New_Symbol_1"  width="29.133" height="27.892" x="-14.566" y="-13.946" transform="matrix(0.4323 0.0326 0.0326 -0.4323 118.3457 112.9131)" overflow="visible"/>
			
				<use xlink:href="#New_Symbol_1"  width="29.133" height="27.892" x="-14.566" y="-13.946" transform="matrix(0.577 0.0436 0.0436 -0.577 125.2153 109.8555)" overflow="visible"/>
			
				<use xlink:href="#New_Symbol_1"  width="29.133" height="27.892" x="-14.566" y="-13.946" transform="matrix(0.4613 0.0348 0.0348 -0.4613 125.481 96.6973)" overflow="visible"/>
			
				<use xlink:href="#New_Symbol_1"  width="29.133" height="27.892" x="-14.566" y="-13.946" transform="matrix(0.4113 0.0311 0.0311 -0.4113 103.8628 162.8008)" overflow="visible"/>
			
				<use xlink:href="#New_Symbol_1"  width="29.133" height="27.892" x="-14.566" y="-13.946" transform="matrix(0.4461 0.0337 0.0337 -0.4461 87.1675 134.4805)" overflow="visible"/>
			
				<use xlink:href="#New_Symbol_1"  width="29.133" height="27.892" x="-14.566" y="-13.946" transform="matrix(0.244 0.0184 0.0184 -0.244 167.0107 143.876)" overflow="visible"/>
			
				<use xlink:href="#New_Symbol_1"  width="29.133" height="27.892" x="-14.566" y="-13.946" transform="matrix(0.4254 0.0321 0.0321 -0.4254 126.0889 91.291)" overflow="visible"/>
			
				<use xlink:href="#New_Symbol_1"  width="29.133" height="27.892" x="-14.566" y="-13.946" transform="matrix(0.7364 0.0556 0.0556 -0.7364 191.6045 111.4287)" overflow="visible"/>
			
				<use xlink:href="#New_Symbol_1"  width="29.133" height="27.892" x="-14.566" y="-13.946" transform="matrix(0.4115 0.0311 0.0311 -0.4115 123.9033 115.8818)" overflow="visible"/>
			
				<use xlink:href="#New_Symbol_1"  width="29.133" height="27.892" x="-14.566" y="-13.946" transform="matrix(0.3794 0.0286 0.0286 -0.3794 201.8408 122.0537)" overflow="visible"/>
			
				<use xlink:href="#New_Symbol_1"  width="29.133" height="27.892" x="-14.566" y="-13.946" transform="matrix(0.4921 0.0372 0.0372 -0.4921 202.4814 126.5469)" overflow="visible"/>
			
				<use xlink:href="#New_Symbol_1"  width="29.133" height="27.892" x="-14.566" y="-13.946" transform="matrix(0.381 0.0288 0.0288 -0.381 165.9111 93.8047)" overflow="visible"/>
			
				<use xlink:href="#New_Symbol_1"  width="29.133" height="27.892" x="-14.566" y="-13.946" transform="matrix(0.3216 0.0243 0.0243 -0.3216 153.7197 84.2148)" overflow="visible"/>
			
				<use xlink:href="#New_Symbol_1"  width="29.133" height="27.892" x="-14.566" y="-13.946" transform="matrix(0.381 0.0288 0.0288 -0.381 145.1963 98.7476)" overflow="visible"/>
			
				<use xlink:href="#New_Symbol_1"  width="29.133" height="27.892" x="-14.566" y="-13.946" transform="matrix(0.4433 0.0335 0.0335 -0.4433 129.9082 89.6646)" overflow="visible"/>
			
				<use xlink:href="#New_Symbol_1"  width="29.133" height="27.892" x="-14.566" y="-13.946" transform="matrix(0.188 0.0142 0.0142 -0.188 149.1992 120.6064)" overflow="visible"/>
			
				<use xlink:href="#New_Symbol_1"  width="29.133" height="27.892" x="-14.566" y="-13.946" transform="matrix(0.7252 0.0548 0.0548 -0.7252 198.2852 111.8228)" overflow="visible"/>
			
				<use xlink:href="#New_Symbol_1"  width="29.133" height="27.892" x="-14.566" y="-13.946" transform="matrix(0.3544 0.0268 0.0268 -0.3544 128.1328 94.1655)" overflow="visible"/>
			
				<use xlink:href="#New_Symbol_1"  width="29.133" height="27.892" x="-14.566" y="-13.946" transform="matrix(0.3516 0.0266 0.0266 -0.3516 124.2417 93.3091)" overflow="visible"/>
			
				<use xlink:href="#New_Symbol_1"  width="29.133" height="27.892" x="-14.566" y="-13.946" transform="matrix(0.368 0.0278 0.0278 -0.368 131.3662 116.9722)" overflow="visible"/>
			
				<use xlink:href="#New_Symbol"  width="29.133" height="27.892" x="-14.566" y="-13.946" transform="matrix(0.2785 0.021 0.021 -0.2785 147.4219 167.0781)" overflow="visible"/>
			
				<use xlink:href="#New_Symbol"  width="29.133" height="27.892" x="-14.566" y="-13.946" transform="matrix(0.3871 0.0292 0.0292 -0.3871 136.5771 152.0752)" overflow="visible"/>
			
				<use xlink:href="#New_Symbol"  width="29.133" height="27.892" x="-14.566" y="-13.946" transform="matrix(0.3585 0.0271 0.0271 -0.3585 82.041 141.2686)" overflow="visible"/>
			
				<use xlink:href="#New_Symbol"  width="29.133" height="27.892" x="-14.566" y="-13.946" transform="matrix(0.6369 0.0481 0.0481 -0.6369 49.9932 143.793)" overflow="visible"/>
			
				<use xlink:href="#New_Symbol"  width="29.133" height="27.892" x="-14.566" y="-13.946" transform="matrix(0.3361 0.0254 0.0254 -0.3361 132.4258 132.1133)" overflow="visible"/>
			
				<use xlink:href="#New_Symbol"  width="29.133" height="27.892" x="-14.566" y="-13.946" transform="matrix(0.4674 0.0353 0.0353 -0.4674 104.5029 123.4546)" overflow="visible"/>
			
				<use xlink:href="#New_Symbol"  width="29.133" height="27.892" x="-14.566" y="-13.946" transform="matrix(0.5133 0.0388 0.0388 -0.5133 75.9199 125.4312)" overflow="visible"/>
			
				<use xlink:href="#New_Symbol"  width="29.133" height="27.892" x="-14.566" y="-13.946" transform="matrix(0.3099 0.0234 0.0234 -0.3099 133.1973 110.1304)" overflow="visible"/>
			
				<use xlink:href="#New_Symbol"  width="29.133" height="27.892" x="-14.566" y="-13.946" transform="matrix(0.6497 0.0491 0.0491 -0.6497 183.6416 150.3027)" overflow="visible"/>
			
				<use xlink:href="#New_Symbol"  width="29.133" height="27.892" x="-14.566" y="-13.946" transform="matrix(0.4998 0.0377 0.0377 -0.4998 83.1846 121.8105)" overflow="visible"/>
			
				<use xlink:href="#New_Symbol"  width="29.133" height="27.892" x="-14.566" y="-13.946" transform="matrix(0.3778 0.0285 0.0285 -0.3778 107.2173 136.0918)" overflow="visible"/>
			
				<use xlink:href="#New_Symbol"  width="29.133" height="27.892" x="-14.566" y="-13.946" transform="matrix(0.4564 0.0345 0.0345 -0.4564 73.7832 152.1162)" overflow="visible"/>
			
				<use xlink:href="#New_Symbol_1"  width="29.133" height="27.892" x="-14.566" y="-13.946" transform="matrix(0.4061 0.0307 0.0307 -0.4061 87.0498 147.1289)" overflow="visible"/>
			
				<use xlink:href="#New_Symbol_1"  width="29.133" height="27.892" x="-14.566" y="-13.946" transform="matrix(0.3582 0.027 0.027 -0.3582 96.6724 132.6846)" overflow="visible"/>
			
				<use xlink:href="#New_Symbol_1"  width="29.133" height="27.892" x="-14.566" y="-13.946" transform="matrix(0.4013 0.0303 0.0303 -0.4013 71.2241 140.4551)" overflow="visible"/>
		</g>
	</g>
	<g display="inline">
		<g>
			<path fill="#278D37" d="M210.974,128.47c-1.216-2.565-3.485-4.061-5.889-5.644c-0.925-0.61-1.882-1.24-2.776-1.938
				c-6.541-5.091-13.886-12.062-12.607-20.853c0.336-2.313,1.247-4.628,2.128-6.867c0.598-1.517,1.215-3.086,1.642-4.628
				c0.426-1.532,0.417-3.325,0.408-5.222c-0.017-3.544-0.035-7.561,3.022-10.523l0.369-0.357l0.228,0.46
				c2.166,4.379,6.427,7.162,10.547,9.853c3.993,2.607,8.121,5.304,10.333,9.452c4.744,8.898,1.644,25.538-6.77,36.336l-0.374,0.48
				L210.974,128.47z"/>
			<path d="M197.162,73.064c4.326,8.747,16.453,11.003,20.885,19.315c4.639,8.7,1.53,25.323-6.734,35.93
				c-1.75-3.691-5.612-5.252-8.773-7.717c-5.975-4.65-13.75-11.682-12.467-20.502c0.556-3.829,2.699-7.615,3.76-11.449
				C195.097,84.089,192.652,77.434,197.162,73.064 M197.379,71.81l-0.738,0.715c-3.172,3.073-3.153,7.175-3.137,10.794
				c0.009,1.871,0.018,3.638-0.395,5.12c-0.422,1.524-1.035,3.083-1.629,4.591c-0.889,2.259-1.809,4.595-2.15,6.951
				c-1.307,8.981,6.127,16.049,12.748,21.202c0.906,0.707,1.87,1.341,2.801,1.955c2.357,1.554,4.585,3.021,5.756,5.492l0.521,1.1
				l0.748-0.961c8.494-10.902,11.61-27.729,6.805-36.744c-2.258-4.233-6.427-6.956-10.459-9.589
				c-4.078-2.664-8.295-5.418-10.416-9.705L197.379,71.81L197.379,71.81z"/>
		</g>
		<path fill="#225C29" stroke="#000000" stroke-width="0.75" stroke-miterlimit="10" d="M197.348,72.845
			c1.58,2.393,3.364,4.492,5.686,6.33c2.32,1.839,4.844,3.45,7.268,5.179c1.366,0.975,2.71,2,3.952,3.101
			c1.564,1.383,2.931,2.944,3.895,4.751c4.638,8.699,1.529,25.322-6.734,35.929c-0.026-0.057-0.063-0.105-0.094-0.161
			c0.517-2.583,1.767-5.177,1.853-7.712c0.101-2.997-0.367-5.599,0.646-8.644c2.334-7.014,4.094-13.487-0.271-19.591
			c-2.618-3.661-6.409-6.346-9.96-9.204c-1.821-1.467-3.574-2.869-5.164-4.548c-0.762-0.803-1.857-1.563-2.403-2.515
			c-0.299-0.524-0.754-0.908-0.532-1.563c0.256-0.76,1.064-1.128,1.672-1.639C197.223,72.654,197.285,72.75,197.348,72.845z"/>
	</g>
	<g display="inline">
		<g>
			<path fill="#278D37" d="M129.889,103.555c-0.651,0-1.312-0.06-1.961-0.177l-0.719-0.13l0.381-0.623
				c3.038-4.96,3.134-10.826,3.227-16.499c0.09-5.513,0.184-11.214,2.973-16.088c5.689-9.941,23.27-18.029,39.189-18.029
				c0.626,0,1.252,0.013,1.87,0.039l0.865,0.036l-0.464,0.731c-1.809,2.854-1.874,5.985-1.942,9.299
				c-0.026,1.279-0.054,2.603-0.188,3.915c-0.978,9.581-3.345,21.181-13.054,25.873c-2.555,1.235-5.478,1.929-8.304,2.6
				c-1.912,0.454-3.89,0.923-5.719,1.554c-1.817,0.625-3.621,1.834-5.532,3.113C137.29,101.325,133.959,103.555,129.889,103.555
				L129.889,103.555z"/>
			<path d="M172.979,52.509c0.619,0,1.237,0.013,1.85,0.039c-2.613,4.123-1.731,8.801-2.206,13.431
				c-0.892,8.74-3.04,20.77-12.774,25.474c-4.224,2.042-9.416,2.561-13.968,4.131c-4.932,1.698-9.664,7.472-15.991,7.472
				c-0.608,0-1.232-0.053-1.872-0.169c6.082-9.933,0.632-22.859,6.206-32.6C139.835,60.48,157.419,52.509,172.979,52.509
				 M172.979,51.509c-16.079,0-33.854,8.201-39.624,18.281c-2.853,4.985-2.947,10.751-3.038,16.328
				c-0.096,5.864-0.187,11.402-3.152,16.246l-0.764,1.247l1.438,0.26c0.679,0.123,1.369,0.185,2.05,0.185
				c4.222,0,7.77-2.375,10.9-4.471c1.883-1.26,3.661-2.451,5.416-3.056c1.806-0.623,3.771-1.089,5.672-1.54
				c2.853-0.677,5.803-1.377,8.406-2.636c9.933-4.8,12.343-16.562,13.334-26.272c0.137-1.332,0.164-2.666,0.19-3.955
				c0.067-3.243,0.131-6.306,1.865-9.042l0.927-1.462l-1.729-0.072C174.249,51.522,173.612,51.509,172.979,51.509L172.979,51.509z"
				/>
		</g>
		<path fill="#225C29" stroke="#000000" stroke-miterlimit="10" d="M127.676,102.859c1.412-3.092,2.396-6.177,2.773-9.593
			c0.379-3.418,0.398-6.873,0.601-10.311c0.114-1.94,0.292-3.891,0.614-5.8c0.401-2.398,1.107-4.729,2.32-6.848
			c5.834-10.194,24.616-18.407,40.604-17.737c-0.042,0.064-0.065,0.131-0.104,0.196c-2.938,1.246-6.356,1.807-8.974,3.425
			c-3.095,1.913-5.425,4.098-9.148,5.185c-8.576,2.502-16.24,5.183-19.627,13.381c-2.029,4.917-2.327,10.285-2.953,15.542
			c-0.322,2.697-0.62,5.287-1.304,7.909c-0.324,1.255-0.396,2.794-1.008,3.947c-0.341,0.633-0.438,1.319-1.243,1.551
			c-0.931,0.268-1.817-0.248-2.722-0.478C127.563,103.105,127.621,102.982,127.676,102.859z"/>
	</g>
	<g display="inline">
		<g>
			<path fill="#814B98" d="M174.976,117.027c-6.73,0-12.427-5.262-12.968-11.979c-0.575-7.157,4.779-13.448,11.937-14.024
				c0.354-0.028,0.708-0.042,1.058-0.042c6.73,0,12.427,5.262,12.967,11.979c0.575,7.157-4.779,13.448-11.937,14.025
				C175.678,117.013,175.325,117.027,174.976,117.027z"/>
			<path d="M175.002,91.48c6.461,0,11.941,4.967,12.469,11.519c0.554,6.894-4.585,12.931-11.479,13.486
				c-0.341,0.027-0.681,0.041-1.017,0.041c-6.46,0-11.941-4.967-12.47-11.52c-0.554-6.893,4.586-12.931,11.479-13.486
				C174.325,91.494,174.665,91.48,175.002,91.48 M175.002,90.48L175.002,90.48c-0.364,0-0.733,0.015-1.098,0.044
				c-7.432,0.599-12.992,7.131-12.396,14.563c0.563,6.976,6.478,12.439,13.467,12.439c0.363,0,0.732-0.015,1.097-0.044
				c7.432-0.598,12.992-7.131,12.396-14.563C187.906,95.944,181.991,90.48,175.002,90.48L175.002,90.48z"/>
		</g>
		<path fill="#A67BB5" d="M172.649,96.242c-0.158-0.219-0.365-0.421-0.528-0.566c-0.249-0.22-0.827-0.545-1.155-0.317
			c0.599,0.297,0.741,0.887,0.774,1.517c-0.424-0.233-0.817-0.451-1.337-0.301c-0.465,0.135-0.688,0.542-1.036,0.782
			c0.263-0.323,0.301-1.063,0.419-1.462c0.185-0.623,0.661-1.015,1.223-1.274c0.215-0.098,1.115-0.365,1.091-0.666
			c0.021,0.262,0.074,0.532-0.034,0.77c0.177-0.408,0.42-0.238,0.696-0.413c0.222-0.142,0.467-0.492,0.694-0.666
			c0.783-0.603,1.674-1.037,2.64-1.186c0.556-0.086,1.118-0.134,1.68-0.167c0.419-0.024,1.224-0.211,1.614-0.064
			c-1.673-0.629-3.5-0.922-5.4-0.769c-6.893,0.555-12.032,6.592-11.479,13.486c0.088,1.079,0.321,2.109,0.662,3.088
			c-0.244-1.555-0.372-3.095-0.056-4.604c0.296-1.421,0.811-2.819,1.602-4.041c0.391-0.605,0.865-1.184,1.417-1.65
			c0.27-0.228,0.562-0.458,0.865-0.639c0.348-0.208,0.699-0.171,0.983-0.5c-0.19,0.738,0.225,1.588,0.849,1.988
			c0.767,0.492,1.74,0.12,2.471-0.249c0.551-0.276,1.749-0.838,1.565-1.655C172.835,96.536,172.754,96.385,172.649,96.242z"/>
		<path fill="#643372" d="M165.268,111.891c2.511,3.093,6.452,4.938,10.725,4.596c6.894-0.555,12.032-6.593,11.479-13.486
			c-0.238-2.971-1.501-5.614-3.408-7.618c0.49,1.034,0.845,2.115,1.073,2.941c0.848,3.097-0.064,6.235-1.523,8.997
			C180.69,112.855,170.49,115.432,165.268,111.891z"/>
	</g>
	<g display="inline">
		<g>
			<path fill="#814B98" d="M124.171,109.625c-7.289,0-13.707-5.483-15.262-13.038c-1.793-8.718,3.446-17.189,11.681-18.884
				c0.963-0.198,1.947-0.299,2.924-0.299c7.289,0,13.709,5.483,15.263,13.038c0.868,4.218,0.135,8.503-2.065,12.068
				c-2.205,3.574-5.62,5.995-9.614,6.816C126.134,109.524,125.149,109.625,124.171,109.625z"/>
			<g>
				<path d="M123.515,77.904c6.937,0,13.238,5.18,14.773,12.638c1.741,8.462-3.314,16.653-11.291,18.293
					c-0.946,0.195-1.893,0.289-2.826,0.289c-6.935,0-13.237-5.18-14.772-12.638c-1.741-8.461,3.314-16.652,11.292-18.294
					C121.636,77.999,122.582,77.905,123.515,77.904 M123.516,76.904L123.516,76.904c-1.013,0-2.03,0.104-3.026,0.309
					c-8.504,1.75-13.919,10.487-12.07,19.475c1.603,7.786,8.227,13.437,15.751,13.437c1.012,0,2.03-0.104,3.028-0.31
					c4.13-0.85,7.659-3.351,9.938-7.043c2.268-3.673,3.023-8.088,2.13-12.432C137.665,82.555,131.041,76.904,123.516,76.904
					L123.516,76.904z"/>
			</g>
		</g>
		<path fill="#A67BB5" d="M119.868,84.237c-0.219-0.249-0.494-0.47-0.71-0.628c-0.324-0.238-1.053-0.561-1.399-0.232
			c0.748,0.284,1.006,0.996,1.147,1.77c-0.535-0.23-1.031-0.444-1.614-0.187c-0.521,0.23-0.717,0.766-1.086,1.112
			c0.255-0.437,0.181-1.358,0.257-1.87c0.117-0.796,0.612-1.349,1.23-1.747c0.234-0.151,1.246-0.608,1.17-0.976
			c0.065,0.32,0.171,0.648,0.081,0.958c0.142-0.53,0.452-0.352,0.75-0.607c0.237-0.208,0.467-0.675,0.707-0.923
			c0.821-0.854,1.793-1.515,2.902-1.833c0.636-0.183,1.287-0.322,1.938-0.439c0.487-0.088,1.398-0.432,1.876-0.303
			c-2.055-0.549-4.24-0.658-6.438-0.206c-7.977,1.642-13.033,9.833-11.292,18.295c0.272,1.325,0.711,2.568,1.262,3.733
			c-0.53-1.892-0.926-3.781-0.796-5.696c0.122-1.801,0.503-3.603,1.233-5.227c0.362-0.804,0.826-1.587,1.396-2.24
			c0.281-0.32,0.585-0.645,0.914-0.912c0.373-0.306,0.793-0.309,1.071-0.755c-0.105,0.94,0.516,1.935,1.308,2.344
			c0.975,0.504,2.055-0.092,2.853-0.65c0.598-0.418,1.913-1.281,1.569-2.268C120.132,84.576,120.013,84.401,119.868,84.237z"/>
		<path fill="#643372" d="M113.719,104.63c3.43,3.483,8.334,5.224,13.278,4.206c7.977-1.641,13.032-9.832,11.291-18.293
			c-0.751-3.647-2.645-6.746-5.193-8.965c0.736,1.214,1.323,2.503,1.72,3.496c1.482,3.718,0.915,7.732-0.355,11.354
			C131.918,103.688,120.393,108.292,113.719,104.63z"/>
	</g>
	<g display="inline">
		<g>
			<path fill="#CD5298" d="M57.638,168.49c-0.462,0-0.926-0.018-1.395-0.053c-4.869-0.367-9.302-2.607-12.485-6.311
				s-4.733-8.424-4.365-13.293c0.715-9.479,8.713-16.902,18.208-16.902c0.462,0,0.926,0.018,1.395,0.053
				c4.869,0.367,9.303,2.609,12.486,6.311c3.183,3.703,4.732,8.424,4.365,13.293C75.13,161.066,67.132,168.49,57.638,168.49z"/>
			<path d="M57.6,132.432c0.45,0,0.901,0.017,1.357,0.051c9.792,0.74,17.129,9.275,16.39,19.066
				c-0.705,9.336-8.499,16.441-17.709,16.441c-0.45,0-0.901-0.018-1.357-0.051c-9.791-0.738-17.128-9.275-16.389-19.066
				C40.596,139.537,48.39,132.433,57.6,132.432 M57.602,131.432v1V131.432H57.6c-9.755,0.001-17.972,7.629-18.706,17.365
				c-0.378,5.002,1.215,9.852,4.484,13.656c3.27,3.803,7.825,6.105,12.827,6.482c0.476,0.037,0.958,0.055,1.433,0.055
				c9.754,0,17.971-7.627,18.707-17.365c0.378-5.002-1.215-9.852-4.484-13.654c-3.27-3.805-7.825-6.107-12.827-6.484
				C58.557,131.449,58.076,131.432,57.602,131.432L57.602,131.432z"/>
		</g>
		<path fill="#D185B7" d="M56.032,138.82c-0.173-0.34-0.42-0.67-0.618-0.912c-0.3-0.361-1.04-0.945-1.549-0.697
			c0.774,0.547,0.843,1.408,0.754,2.297c-0.546-0.42-1.053-0.813-1.812-0.717c-0.681,0.088-1.082,0.609-1.624,0.869
			c0.438-0.395,0.654-1.424,0.908-1.959c0.396-0.832,1.149-1.277,1.997-1.516c0.321-0.092,1.645-0.27,1.675-0.695
			c-0.026,0.371-0.012,0.762-0.217,1.072c0.338-0.533,0.641-0.24,1.067-0.426c0.343-0.15,0.763-0.588,1.122-0.783
			c1.229-0.672,2.573-1.084,3.963-1.08c0.798,0,1.598,0.057,2.392,0.135c0.594,0.059,1.764-0.025,2.277,0.266
			c-2.207-1.252-4.707-2.064-7.404-2.268c-9.791-0.739-18.328,6.6-19.067,16.389c-0.115,1.535-0.013,3.031,0.247,4.479
			c0.001-2.234,0.16-4.422,0.935-6.471c0.729-1.928,1.759-3.773,3.136-5.316c0.681-0.762,1.475-1.469,2.35-2.002
			c0.43-0.26,0.888-0.518,1.355-0.705c0.534-0.215,1.021-0.086,1.49-0.484c-0.429,0.992-0.031,2.275,0.754,2.975
			c0.965,0.859,2.415,0.551,3.521,0.195c0.83-0.27,2.637-0.793,2.56-1.979C56.229,139.273,56.147,139.045,56.032,138.82z"/>
		<path fill="#973270" d="M42.247,159.135c2.845,4.889,7.965,8.346,14.033,8.805c9.792,0.738,18.328-6.6,19.067-16.391
			c0.319-4.221-0.87-8.203-3.102-11.434c0.458,1.557,0.718,3.152,0.854,4.361c0.508,4.531-1.46,8.73-4.112,12.283
			C63.669,163.881,48.795,165.25,42.247,159.135z"/>
	</g>
	<g display="inline">
		<g>
			<path fill="#DE5398" d="M77.291,135.311c-3.478-0.063-6.725-1.403-9.146-3.777c-2.427-2.383-3.731-5.517-3.673-8.827
				c0.119-6.696,5.954-12.143,13.008-12.143l0.249,0.002c3.477,0.062,6.725,1.403,9.145,3.777c2.427,2.381,3.731,5.516,3.673,8.825
				c-0.119,6.696-5.954,12.145-13.007,12.145L77.291,135.311z"/>
			<path d="M77.48,111.063c0.08,0,0.16,0,0.24,0.002c6.924,0.123,12.442,5.538,12.326,12.094
				c-0.115,6.481-5.692,11.653-12.507,11.653c-0.08,0-0.16-0.002-0.24-0.002c-6.925-0.123-12.443-5.539-12.327-12.095
				C65.087,116.235,70.665,111.063,77.48,111.063 M77.482,110.063H77.48c-7.325,0-13.384,5.668-13.508,12.634
				c-0.061,3.449,1.296,6.712,3.823,9.192c2.512,2.464,5.881,3.856,9.487,3.921l0.257,0.002c7.325,0,13.384-5.668,13.507-12.636
				c0.061-3.448-1.296-6.712-3.823-9.191c-2.512-2.464-5.88-3.856-9.486-3.92L77.482,110.063L77.482,110.063z"/>
		</g>
		<path fill="#ED8CB9" d="M75.921,115.401c-0.136-0.22-0.323-0.431-0.473-0.583c-0.225-0.232-0.771-0.593-1.119-0.408
			c0.568,0.336,0.651,0.906,0.625,1.502c-0.401-0.26-0.773-0.501-1.305-0.409c-0.475,0.084-0.736,0.447-1.106,0.642
			c0.292-0.281,0.401-0.975,0.558-1.341c0.244-0.57,0.757-0.896,1.343-1.087c0.221-0.073,1.146-0.241,1.15-0.526
			c-0.004,0.248,0.023,0.509-0.109,0.723c0.215-0.368,0.441-0.185,0.733-0.324c0.235-0.114,0.513-0.421,0.757-0.564
			c0.837-0.495,1.768-0.821,2.747-0.872c0.562-0.029,1.126-0.021,1.688,0c0.42,0.016,1.239-0.084,1.614,0.09
			c-1.605-0.751-3.397-1.198-5.306-1.231c-6.924-0.124-12.631,5.093-12.748,11.65c-0.019,1.026,0.116,2.021,0.359,2.976
			c-0.092-1.49-0.071-2.955,0.39-4.351c0.434-1.313,1.083-2.583,1.989-3.662c0.449-0.535,0.979-1.037,1.573-1.424
			c0.291-0.19,0.603-0.38,0.925-0.521c0.366-0.165,0.714-0.097,1.028-0.38c-0.26,0.678,0.072,1.519,0.653,1.955
			c0.717,0.536,1.724,0.276,2.488-0.003c0.574-0.21,1.824-0.628,1.72-1.417C76.078,115.696,76.012,115.547,75.921,115.401z"/>
		<path fill="#AF316F" d="M67.056,129.468c2.204,3.154,5.953,5.267,10.244,5.343c6.924,0.123,12.631-5.094,12.747-11.651
			c0.05-2.827-0.951-5.438-2.656-7.507c0.387,1.021,0.635,2.074,0.782,2.876c0.544,3.002-0.668,5.878-2.389,8.347
			C82.333,131.822,71.918,133.299,67.056,129.468z"/>
	</g>
	<g display="inline">
		<g>
			<path fill="#814B98" d="M88.984,150.395c-5.509,0-10.111-4.965-10.26-11.066c-0.152-6.238,4.307-11.425,9.939-11.563l0.229-0.002
				c5.511,0,10.115,4.964,10.264,11.066c0.073,3.012-0.914,5.871-2.78,8.053c-1.879,2.197-4.423,3.441-7.162,3.508L88.984,150.395z"
				/>
			<path d="M88.893,128.264c5.271-0.001,9.621,4.688,9.764,10.578c0.146,5.971-4.086,10.92-9.454,11.049
				c-0.073,0.002-0.146,0.004-0.219,0.004c-5.267,0-9.617-4.688-9.76-10.578c-0.146-5.972,4.085-10.92,9.451-11.051
				C88.748,128.264,88.82,128.264,88.893,128.264 M88.893,127.264L88.893,127.264c-0.081,0-0.161,0-0.242,0.002
				c-5.908,0.145-10.585,5.561-10.426,12.074c0.154,6.371,4.981,11.555,10.759,11.555c0.081,0,0.162-0.002,0.243-0.004
				c2.883-0.068,5.557-1.377,7.53-3.684c1.946-2.275,2.976-5.254,2.899-8.389C99.501,132.446,94.673,127.264,88.893,127.264
				L88.893,127.264z"/>
		</g>
		<path fill="#A67BB5" d="M87.438,132.277c-0.112-0.198-0.265-0.383-0.386-0.516c-0.184-0.202-0.62-0.513-0.882-0.332
			c0.452,0.286,0.538,0.801,0.538,1.346c-0.319-0.223-0.617-0.43-1.025-0.326c-0.365,0.094-0.554,0.433-0.833,0.623
			c0.216-0.266,0.276-0.902,0.384-1.241c0.169-0.526,0.553-0.842,1.001-1.036c0.169-0.074,0.879-0.26,0.872-0.521
			c0.006,0.228,0.036,0.464-0.058,0.662c0.154-0.343,0.334-0.183,0.558-0.32c0.178-0.11,0.38-0.4,0.564-0.54
			c0.632-0.479,1.34-0.809,2.096-0.889c0.434-0.047,0.873-0.059,1.308-0.06c0.327,0.001,0.958-0.12,1.253,0.026
			c-1.271-0.627-2.675-0.971-4.153-0.936c-5.366,0.131-9.598,5.08-9.453,11.051c0.023,0.936,0.164,1.836,0.385,2.695
			c-0.125-1.352-0.162-2.686,0.146-3.973c0.289-1.209,0.746-2.389,1.409-3.402c0.327-0.503,0.719-0.978,1.165-1.352
			c0.219-0.184,0.455-0.367,0.698-0.508c0.278-0.162,0.551-0.111,0.784-0.381c-0.178,0.625,0.109,1.381,0.576,1.756
			c0.573,0.463,1.344,0.191,1.925-0.092c0.437-0.209,1.39-0.633,1.281-1.347C87.571,132.539,87.515,132.406,87.438,132.277z"/>
		<path fill="#643372" d="M81.079,145.391c1.821,2.791,4.799,4.582,8.124,4.5c5.368-0.129,9.6-5.078,9.454-11.049
			c-0.063-2.574-0.932-4.917-2.327-6.74c0.336,0.916,0.567,1.865,0.708,2.588c0.529,2.717-0.306,5.377-1.55,7.684
			C92.996,146.998,84.982,148.705,81.079,145.391z"/>
	</g>
	<g display="inline">
		<g>
			<path fill="#CD5298" d="M151.328,123.705c-7.577,0-14.26-4.559-17.024-11.615c-1.781-4.546-1.686-9.513,0.27-13.988
				c1.955-4.474,5.536-7.919,10.082-9.699c2.142-0.839,4.383-1.265,6.662-1.265c7.577,0,14.259,4.56,17.023,11.616
				c1.781,4.546,1.686,9.513-0.27,13.987s-5.535,7.919-10.081,9.7C155.85,123.28,153.607,123.705,151.328,123.705z"/>
			<path d="M151.317,87.638c7.103,0,13.811,4.286,16.558,11.298c3.583,9.143-0.925,19.458-10.067,23.04
				c-2.129,0.834-4.323,1.229-6.479,1.229c-7.103,0-13.812-4.286-16.559-11.298c-3.583-9.142,0.925-19.458,10.068-23.039
				C146.968,88.034,149.161,87.638,151.317,87.638 M151.317,86.638c-2.342,0-4.646,0.437-6.845,1.299
				c-4.67,1.83-8.349,5.368-10.357,9.965s-2.107,9.7-0.276,14.37c2.84,7.249,9.704,11.933,17.489,11.933
				c2.343,0,4.646-0.437,6.845-1.298c4.67-1.83,8.349-5.369,10.356-9.965c2.009-4.596,2.107-9.7,0.276-14.37
				C165.967,91.322,159.102,86.638,151.317,86.638L151.317,86.638z"/>
		</g>
		<path fill="#D185B7" d="M144.95,95.848c-0.304-0.232-0.669-0.421-0.953-0.553c-0.426-0.198-1.346-0.402-1.696,0.043
			c0.934,0.157,1.368,0.903,1.673,1.742c-0.672-0.143-1.297-0.276-1.941,0.141c-0.576,0.374-0.711,1.019-1.085,1.488
			c0.223-0.547-0.029-1.568-0.031-2.159c-0.005-0.921,0.481-1.651,1.139-2.233c0.251-0.221,1.366-0.955,1.21-1.353
			c0.135,0.347,0.32,0.693,0.27,1.061c0.072-0.628,0.471-0.495,0.776-0.846c0.242-0.285,0.433-0.861,0.67-1.192
			c0.816-1.138,1.848-2.093,3.103-2.694c0.72-0.343,1.465-0.64,2.215-0.915c0.56-0.206,1.576-0.789,2.165-0.749
			c-2.531-0.17-5.136,0.183-7.655,1.17c-9.142,3.581-13.649,13.896-10.068,23.038c0.561,1.432,1.304,2.735,2.167,3.927
			c-0.97-2.012-1.775-4.054-1.969-6.235c-0.178-2.054-0.051-4.164,0.521-6.149c0.283-0.983,0.69-1.965,1.249-2.824
			c0.273-0.421,0.577-0.853,0.916-1.224c0.388-0.426,0.881-0.521,1.131-1.083c0.046,1.08,0.958,2.064,1.969,2.353
			c1.244,0.355,2.416-0.551,3.258-1.352c0.633-0.602,2.033-1.857,1.448-2.892C145.322,96.17,145.15,96,144.95,95.848z"/>
		<path fill="#973270" d="M141.343,120.129c4.683,3.172,10.799,4.066,16.465,1.846c9.143-3.582,13.65-13.897,10.067-23.04
			c-1.542-3.941-4.343-7.015-7.755-8.957c1.09,1.206,2.014,2.529,2.661,3.56c2.425,3.861,2.472,8.5,1.623,12.853
			C162.704,115.112,149.896,122.799,141.343,120.129z"/>
	</g>
	<g display="inline">
		<g>
			<path fill="#278D37" d="M114.756,121.528c-2.196,0-4.386-0.785-6.503-1.544c-1.75-0.627-3.404-1.22-4.884-1.3
				c-0.404-0.022-0.81-0.032-1.216-0.032c-1.114,0-2.264,0.071-3.375,0.14c-1.124,0.069-2.286,0.141-3.424,0.141
				c-1.289,0-2.405-0.094-3.412-0.288c-8.463-1.628-13.553-11.211-17.041-19.378c-0.477-1.116-0.879-2.27-1.269-3.385
				c-1.012-2.898-1.967-5.636-4.112-7.679L68.96,87.67l0.712-0.293c3.916-1.612,8.516-2.464,13.301-2.464
				c8.938,0,17.342,2.95,21.93,7.699c3.44,3.561,5.159,8.541,6.822,13.357c1.712,4.962,3.483,10.094,7.132,13.669l0.456,0.447
				l-0.543,0.335C117.563,121.166,116.25,121.528,114.756,121.528z"/>
			<path d="M82.974,85.413c8.464,0,16.887,2.699,21.571,7.546c6.879,7.12,6.66,19.879,13.963,27.036
				c-1.212,0.748-2.473,1.032-3.751,1.032c-3.912,0-7.991-2.662-11.361-2.844c-0.413-0.022-0.828-0.032-1.243-0.032
				c-2.256,0-4.552,0.28-6.8,0.28c-1.122,0-2.23-0.07-3.317-0.279c-8.444-1.625-13.496-11.638-16.676-19.083
				c-1.686-3.944-2.4-8.282-5.497-11.23C73.861,86.193,78.424,85.413,82.974,85.413 M82.974,84.413
				c-4.851,0-9.516,0.865-13.492,2.501l-1.424,0.586l1.116,1.063c2.058,1.959,2.994,4.642,3.985,7.482
				c0.393,1.124,0.798,2.286,1.282,3.417c3.537,8.28,8.711,18,17.406,19.672c1.038,0.2,2.185,0.297,3.506,0.297
				c1.154,0,2.324-0.072,3.455-0.142c1.104-0.068,2.247-0.139,3.345-0.139c0.423,0,0.812,0.01,1.188,0.031
				c1.408,0.076,3.028,0.657,4.743,1.272c2.158,0.773,4.39,1.574,6.672,1.574c1.589,0,2.988-0.387,4.276-1.181l1.087-0.671
				l-0.912-0.895c-3.564-3.493-5.315-8.567-7.009-13.475c-1.68-4.868-3.417-9.901-6.935-13.542
				C100.584,87.421,92.043,84.413,82.974,84.413L82.974,84.413z"/>
		</g>
		<path fill="#225C29" stroke="#000000" stroke-miterlimit="10" d="M118.748,119.884c-1.922-2.352-3.534-4.809-4.798-7.712
			c-1.266-2.904-2.281-5.934-3.425-8.902c-0.646-1.674-1.341-3.342-2.127-4.936c-0.988-2.001-2.178-3.869-3.673-5.417
			c-7.2-7.452-23.243-9.828-34.681-5.12c0.048,0.046,0.084,0.098,0.131,0.145c2.499,0.339,5.149-0.049,7.522,0.697
			c2.805,0.883,5.133,2.202,8.158,2.197c6.964-0.011,13.317,0.37,18.156,6.698c2.903,3.796,4.674,8.435,6.653,12.891
			c1.015,2.287,1.984,4.483,3.24,6.612c0.601,1.018,1.098,2.352,1.878,3.205c0.43,0.47,0.701,1.047,1.353,1.042
			c0.754-0.003,1.252-0.686,1.842-1.12C118.9,120.072,118.824,119.978,118.748,119.884z"/>
	</g>
	<g display="inline">
		<g>
			<path fill="#278D37" d="M158.188,135.723c-2.241-5.383-0.76-13.181,3.233-17.027c1.852-1.782,4.392-2.808,6.85-3.799
				c2.542-1.027,5.171-2.088,7.047-3.986l0.218-0.22l0.169,0.259c1.021,1.559,0.271,3.42-0.391,5.062
				c-0.347,0.861-0.674,1.673-0.739,2.381c-0.068,0.721-0.046,1.467-0.024,2.188c0.032,1.072,0.065,2.18-0.189,3.264
				c-0.966,4.093-5.887,6.917-10.065,8.917c-0.569,0.273-1.153,0.512-1.733,0.748c-1.486,0.604-2.89,1.176-3.964,2.291l-0.264,0.275
				L158.188,135.723z"/>
			<path d="M175.495,111.086c1.453,2.221-0.972,5.141-1.17,7.283c-0.17,1.804,0.21,3.64-0.208,5.418
				c-0.966,4.095-6.112,6.921-9.931,8.75c-2.022,0.969-4.228,1.49-5.769,3.09c-2.188-5.256-0.712-13.006,3.177-16.751
				C165.311,115.298,171.756,114.869,175.495,111.086 M175.574,110.294l-0.435,0.44c-1.84,1.861-4.444,2.913-6.963,3.93
				c-2.479,1.001-5.043,2.036-6.929,3.851c-4.061,3.911-5.567,11.834-3.292,17.305l0.293,0.703l0.529-0.549
				c1.037-1.078,2.417-1.639,3.878-2.234c0.574-0.233,1.168-0.475,1.746-0.753c4.229-2.025,9.212-4.889,10.201-9.085
				c0.263-1.117,0.229-2.242,0.196-3.33c-0.022-0.746-0.043-1.451,0.023-2.156c0.062-0.672,0.383-1.468,0.722-2.312
				c0.685-1.699,1.46-3.625,0.368-5.292L175.574,110.294L175.574,110.294z"/>
		</g>
		<path fill="#225C29" stroke="#000000" stroke-width="0.5" stroke-miterlimit="10" d="M175.445,110.978
			c-1.223,1.014-2.49,1.886-3.979,2.609c-1.49,0.726-3.037,1.335-4.558,2.005c-0.857,0.378-1.713,0.779-2.531,1.22
			c-1.029,0.556-1.993,1.201-2.801,1.979c-3.89,3.743-5.363,11.494-3.177,16.75c0.023-0.023,0.052-0.043,0.075-0.066
			c0.213-1.207,0.062-2.455,0.479-3.617c0.495-1.375,1.202-2.539,1.25-3.98c0.112-3.32,0.414-6.367,3.693-8.939
			c1.968-1.543,4.343-2.582,6.629-3.712c1.175-0.58,2.3-1.133,3.396-1.821c0.526-0.328,1.209-0.622,1.654-1.029
			c0.243-0.225,0.54-0.377,0.548-0.688c0.013-0.36-0.324-0.569-0.534-0.831C175.542,110.895,175.494,110.937,175.445,110.978z"/>
	</g>
	<g display="inline">
		<g>
			<path fill="#CD516E" d="M115.005,139.686c-8.183,0-15.289-6.223-16.53-14.475c-1.39-9.244,4.863-17.875,13.938-19.241
				c0.811-0.122,1.635-0.184,2.45-0.184c8.182,0,15.287,6.223,16.527,14.475c1.39,9.243-4.861,17.873-13.936,19.24
				C116.644,139.623,115.82,139.686,115.005,139.686z"/>
			<path d="M114.864,106.287c7.876,0,14.804,5.876,16.033,14.049c1.351,8.984-4.7,17.344-13.516,18.672
				c-0.797,0.119-1.592,0.178-2.375,0.178c-7.877,0-14.806-5.877-16.035-14.049c-1.351-8.986,4.701-17.346,13.518-18.672
				C113.286,106.345,114.08,106.287,114.864,106.287 M114.864,105.287L114.864,105.287c-0.84,0-1.69,0.063-2.525,0.189
				c-9.348,1.406-15.789,10.292-14.357,19.809c1.277,8.494,8.596,14.9,17.024,14.9c0.839,0,1.688-0.064,2.524-0.189
				c9.347-1.406,15.786-10.293,14.356-19.809C130.608,111.692,123.291,105.287,114.864,105.287L114.864,105.287z"/>
		</g>
		<path fill="#D28398" d="M111.196,112.78c-0.223-0.272-0.509-0.519-0.733-0.697c-0.339-0.267-1.114-0.643-1.514-0.314
			c0.797,0.336,1.033,1.099,1.138,1.919c-0.569-0.268-1.097-0.519-1.75-0.278c-0.585,0.217-0.833,0.77-1.258,1.115
			c0.306-0.446,0.287-1.419,0.401-1.953c0.181-0.833,0.756-1.388,1.457-1.776c0.266-0.148,1.4-0.577,1.341-0.968
			c0.052,0.341,0.146,0.691,0.028,1.013c0.19-0.552,0.518-0.348,0.857-0.602c0.273-0.206,0.555-0.685,0.832-0.934
			c0.951-0.858,2.056-1.503,3.287-1.783c0.707-0.162,1.426-0.272,2.145-0.364c0.538-0.068,1.554-0.383,2.068-0.225
			c-2.208-0.68-4.587-0.904-7.016-0.538c-8.817,1.325-14.869,9.686-13.518,18.671c0.212,1.407,0.61,2.736,1.135,3.99
			c-0.456-2.016-0.764-4.023-0.499-6.03c0.25-1.888,0.784-3.764,1.687-5.435c0.447-0.827,1.003-1.626,1.669-2.285
			c0.328-0.322,0.68-0.648,1.056-0.913c0.429-0.303,0.886-0.286,1.219-0.741c-0.176,0.982,0.439,2.06,1.277,2.53
			c1.031,0.579,2.249,0.006,3.156-0.541c0.679-0.41,2.171-1.25,1.859-2.306C111.463,113.149,111.345,112.959,111.196,112.78z"/>
		<path fill="#97344F" d="M103.158,133.916c3.519,3.836,8.759,5.912,14.223,5.092c8.815-1.328,14.866-9.688,13.516-18.672
			c-0.582-3.875-2.448-7.228-5.088-9.689c0.728,1.313,1.284,2.698,1.653,3.762c1.377,3.985,0.494,8.177-1.127,11.922
			C123.088,133.838,110.206,138.104,103.158,133.916z"/>
	</g>
	<g display="inline">
		<g>
			<path fill="#814B98" d="M134.389,136.639c-4.28,0-7.851-3.578-7.958-7.976c-0.109-4.503,3.369-8.254,7.752-8.361l0.194-0.002
				c4.282,0,7.853,3.578,7.959,7.976c0.054,2.179-0.722,4.248-2.184,5.826c-1.466,1.584-3.443,2.482-5.571,2.535L134.389,136.639z"
				/>
			<path d="M134.377,120.799c4.036,0,7.358,3.316,7.459,7.488c0.104,4.234-3.15,7.75-7.267,7.85
				c-0.061,0.002-0.12,0.002-0.181,0.002c-4.033,0-7.356-3.315-7.458-7.488c-0.103-4.234,3.149-7.748,7.265-7.849
				C134.256,120.8,134.317,120.799,134.377,120.799 M134.378,119.799c-0.069,0-0.139,0.001-0.207,0.003
				c-4.659,0.114-8.355,4.094-8.24,8.874c0.114,4.666,3.908,8.463,8.458,8.463l0.205-0.002c2.263-0.055,4.367-1.012,5.926-2.695
				c1.551-1.674,2.373-3.869,2.316-6.179C142.723,123.596,138.929,119.799,134.378,119.799L134.378,119.799z"/>
		</g>
		<path fill="#A67BB5" d="M133.24,123.647c-0.085-0.139-0.201-0.27-0.294-0.364c-0.141-0.143-0.475-0.362-0.676-0.234
			c0.345,0.203,0.41,0.568,0.41,0.953c-0.245-0.156-0.472-0.303-0.786-0.229c-0.28,0.065-0.426,0.307-0.64,0.441
			c0.165-0.188,0.213-0.639,0.297-0.88c0.129-0.373,0.425-0.597,0.769-0.736c0.131-0.054,0.674-0.186,0.669-0.371
			c0.005,0.161,0.028,0.329-0.045,0.47c0.12-0.243,0.258-0.131,0.429-0.229c0.135-0.078,0.292-0.284,0.434-0.383
			c0.486-0.341,1.029-0.576,1.609-0.633c0.331-0.034,0.669-0.043,1.003-0.044c0.25,0.001,0.734-0.086,0.96,0.017
			c-0.975-0.443-2.05-0.684-3.184-0.658c-4.116,0.101-7.37,3.617-7.267,7.852c0.017,0.664,0.123,1.302,0.292,1.91
			c-0.094-0.959-0.12-1.904,0.117-2.818c0.223-0.857,0.576-1.695,1.085-2.415c0.253-0.355,0.554-0.693,0.896-0.959
			c0.168-0.13,0.349-0.261,0.537-0.36c0.212-0.116,0.421-0.082,0.601-0.272c-0.138,0.444,0.083,0.979,0.439,1.245
			c0.438,0.328,1.03,0.133,1.478-0.068c0.336-0.148,1.067-0.451,0.983-0.957C133.343,123.834,133.301,123.739,133.24,123.647z"/>
		<path fill="#643372" d="M128.344,132.955c1.393,1.979,3.675,3.242,6.226,3.182c4.116-0.1,7.371-3.615,7.267-7.85
			c-0.044-1.826-0.709-3.485-1.775-4.777c0.257,0.65,0.432,1.322,0.541,1.835c0.401,1.926-0.243,3.811-1.201,5.45
			C137.483,134.078,131.334,135.303,128.344,132.955z"/>
	</g>
	<g display="inline">
		<g>
			<path fill="#CD5298" d="M196.521,137.531c-8.055,0-15.068-5.173-17.454-12.871c-1.445-4.664-0.988-9.612,1.287-13.932
				s6.097-7.495,10.76-8.94c1.765-0.547,3.588-0.825,5.418-0.825c8.053,0,15.066,5.172,17.453,12.871
				c1.446,4.663,0.989,9.611-1.286,13.931c-2.275,4.32-6.098,7.496-10.761,8.941C200.174,137.254,198.352,137.531,196.521,137.531z"
				/>
			<path d="M196.532,101.464c7.586,0,14.611,4.894,16.976,12.519c2.908,9.378-2.339,19.339-11.718,22.246
				c-1.753,0.543-3.525,0.803-5.269,0.803c-7.586,0-14.613-4.895-16.977-12.52c-2.907-9.379,2.339-19.339,11.718-22.246
				C193.016,101.723,194.789,101.464,196.532,101.464 M196.533,100.464L196.533,100.464c-1.882,0-3.754,0.285-5.566,0.847
				c-4.791,1.485-8.718,4.747-11.055,9.185c-2.338,4.438-2.808,9.521-1.322,14.312c2.451,7.909,9.657,13.224,17.932,13.224
				c1.88,0,3.752-0.285,5.564-0.848c4.791-1.484,8.718-4.746,11.056-9.186c2.338-4.438,2.807-9.521,1.321-14.312
				C212.012,105.778,204.806,100.464,196.533,100.464L196.533,100.464z"/>
		</g>
		<path fill="#D185B7" d="M190.867,109.235c-0.285-0.253-0.637-0.469-0.91-0.62c-0.41-0.228-1.313-0.499-1.696-0.081
			c0.922,0.225,1.301,1,1.545,1.859c-0.661-0.191-1.275-0.369-1.948,0c-0.601,0.331-0.782,0.964-1.189,1.405
			c0.262-0.529,0.085-1.566,0.125-2.156c0.063-0.92,0.6-1.612,1.299-2.145c0.266-0.203,1.431-0.854,1.304-1.262
			c0.11,0.355,0.27,0.714,0.191,1.078c0.118-0.621,0.507-0.459,0.838-0.788c0.263-0.267,0.491-0.827,0.754-1.14
			c0.898-1.076,1.997-1.954,3.292-2.462c0.741-0.291,1.507-0.532,2.272-0.751c0.574-0.164,1.631-0.672,2.215-0.59
			c-2.511-0.354-5.133-0.191-7.718,0.61c-9.378,2.907-14.625,12.867-11.718,22.246c0.455,1.469,1.101,2.822,1.875,4.073
			c-0.82-2.078-1.478-4.172-1.51-6.361c-0.029-2.062,0.251-4.157,0.967-6.096c0.354-0.96,0.833-1.909,1.45-2.725
			c0.305-0.4,0.638-0.809,1.003-1.155c0.416-0.396,0.917-0.454,1.208-0.997c-0.036,1.08,0.805,2.128,1.792,2.489
			c1.214,0.445,2.447-0.374,3.348-1.112c0.675-0.553,2.163-1.705,1.652-2.779C191.217,109.584,191.057,109.402,190.867,109.235z"/>
		<path fill="#973270" d="M185.503,133.191c4.442,3.504,10.476,4.84,16.287,3.037c9.379-2.906,14.626-12.867,11.718-22.246
			c-1.253-4.043-3.821-7.312-7.083-9.498c0.999,1.281,1.823,2.668,2.395,3.744c2.138,4.027,1.848,8.658,0.684,12.937
			C207.172,129.74,193.842,136.477,185.503,133.191z"/>
	</g>
	<g display="inline">
		<g>
			<path fill="#814B98" d="M191.236,150.578c-4.28,0-7.85-3.576-7.956-7.973c-0.11-4.504,3.368-8.256,7.752-8.363l0.193-0.002
				c4.281,0,7.853,3.578,7.96,7.975c0.053,2.18-0.723,4.25-2.185,5.828c-1.465,1.582-3.443,2.482-5.57,2.533L191.236,150.578z"/>
			<path d="M191.226,134.74c4.035-0.002,7.358,3.314,7.46,7.488c0.104,4.236-3.15,7.748-7.268,7.848
				c-0.061,0.002-0.122,0.002-0.182,0.002c-4.033,0-7.355-3.313-7.456-7.484c-0.104-4.236,3.149-7.75,7.265-7.852
				C191.104,134.74,191.166,134.74,191.226,134.74 M191.226,133.739L191.226,133.739l-0.205,0.003
				c-4.66,0.115-8.356,4.096-8.24,8.875c0.113,4.666,3.906,8.461,8.456,8.461c0.068,0,0.138,0,0.206-0.002
				c2.264-0.055,4.368-1.012,5.926-2.693c1.551-1.674,2.374-3.869,2.317-6.18C199.571,137.537,195.776,133.739,191.226,133.739
				L191.226,133.739z"/>
		</g>
		<path fill="#A67BB5" d="M190.09,137.588c-0.086-0.141-0.202-0.27-0.294-0.365c-0.142-0.141-0.476-0.361-0.677-0.232
			c0.345,0.203,0.411,0.568,0.411,0.953c-0.246-0.156-0.472-0.303-0.787-0.229c-0.279,0.064-0.425,0.307-0.64,0.441
			c0.166-0.189,0.214-0.641,0.297-0.881c0.13-0.373,0.426-0.596,0.77-0.736c0.13-0.053,0.675-0.186,0.669-0.369
			c0.005,0.16,0.028,0.328-0.044,0.469c0.118-0.242,0.256-0.131,0.427-0.229c0.136-0.078,0.292-0.283,0.434-0.383
			c0.486-0.342,1.03-0.576,1.609-0.633c0.333-0.033,0.669-0.043,1.004-0.045c0.25,0,0.733-0.086,0.96,0.018
			c-0.974-0.443-2.05-0.684-3.184-0.658c-4.117,0.102-7.37,3.615-7.268,7.85c0.018,0.664,0.124,1.305,0.293,1.912
			c-0.093-0.961-0.12-1.904,0.117-2.818c0.223-0.859,0.575-1.695,1.085-2.416c0.252-0.355,0.553-0.693,0.896-0.959
			c0.168-0.131,0.349-0.26,0.536-0.359c0.213-0.117,0.422-0.082,0.602-0.271c-0.138,0.441,0.082,0.979,0.439,1.244
			c0.439,0.328,1.029,0.133,1.478-0.068c0.335-0.148,1.066-0.453,0.982-0.957C190.192,137.775,190.15,137.68,190.09,137.588z"/>
		<path fill="#643372" d="M185.194,146.898c1.393,1.975,3.674,3.24,6.224,3.178c4.117-0.1,7.371-3.611,7.268-7.848
			c-0.045-1.826-0.708-3.484-1.776-4.777c0.258,0.65,0.433,1.322,0.541,1.836c0.401,1.926-0.243,3.811-1.199,5.451
			C194.333,148.02,188.183,149.244,185.194,146.898z"/>
	</g>
	<g display="inline">
		<g>
			<path fill="#278D37" d="M134.193,143.258c-1.21,0-2.412-0.631-3.574-1.242c-0.822-0.432-1.599-0.84-2.297-0.977
				c-0.71-0.141-1.454-0.193-2.174-0.246c-1.069-0.076-2.176-0.154-3.229-0.518c-3.975-1.375-6.286-6.557-7.855-10.918
				c-0.213-0.594-0.391-1.197-0.566-1.797c-0.452-1.539-0.878-2.994-1.88-4.175l-0.247-0.291l0.365-0.11
				c1.211-0.366,2.546-0.551,3.968-0.551c4.988,0,10.07,2.206,12.645,5.49c1.586,2.021,2.35,4.653,3.089,7.199
				c0.764,2.633,1.555,5.355,3.252,7.414l0.197,0.238l-0.275,0.143C135.176,143.143,134.698,143.258,134.193,143.258z"/>
			<path d="M116.705,122.684c4.721,0,9.86,2.095,12.448,5.395c3.184,4.059,2.959,10.514,6.345,14.617
				c-0.427,0.221-0.863,0.313-1.305,0.313c-1.996,0-4.094-1.877-5.823-2.215c-1.776-0.35-3.643-0.16-5.369-0.754
				c-3.975-1.375-6.267-6.781-7.701-10.766c-0.759-2.109-1.054-4.354-2.491-6.05C114.026,122.856,115.349,122.684,116.705,122.684
				 M116.706,122.184L116.706,122.184c-1.446,0-2.806,0.189-4.041,0.562l-0.73,0.22l0.493,0.582c0.967,1.142,1.387,2.57,1.831,4.084
				c0.174,0.594,0.354,1.209,0.571,1.812c1.588,4.413,3.934,9.659,8.008,11.069c1.084,0.373,2.207,0.453,3.293,0.531
				c0.744,0.053,1.448,0.104,2.143,0.24c0.663,0.131,1.424,0.531,2.229,0.953c1.189,0.625,2.418,1.271,3.69,1.271
				c0.546,0,1.062-0.123,1.534-0.367l0.551-0.285l-0.395-0.479c-1.665-2.018-2.448-4.715-3.205-7.324
				c-0.745-2.568-1.517-5.223-3.132-7.283C126.927,124.428,121.766,122.184,116.706,122.184L116.706,122.184z"/>
		</g>
		<path fill="#225C29" stroke="#000000" stroke-width="0.5" stroke-miterlimit="10" d="M135.61,142.656
			c-0.885-1.32-1.623-2.67-2.193-4.225c-0.572-1.553-1.02-3.154-1.535-4.736c-0.287-0.891-0.601-1.782-0.958-2.642
			c-0.446-1.079-0.992-2.104-1.683-2.986c-3.333-4.248-10.894-6.498-16.344-4.854c0.021,0.025,0.039,0.056,0.06,0.082
			c1.179,0.333,2.435,0.309,3.549,0.844c1.318,0.63,2.405,1.451,3.835,1.645c3.291,0.449,6.291,1.056,8.517,4.58
			c1.338,2.112,2.132,4.58,3.023,6.967c0.459,1.229,0.896,2.406,1.469,3.564c0.273,0.557,0.496,1.266,0.856,1.75
			c0.199,0.266,0.322,0.574,0.63,0.615c0.357,0.047,0.599-0.268,0.881-0.445C135.684,142.758,135.646,142.709,135.61,142.656z"/>
	</g>
	<g display="inline">
		<g>
			<path fill="#CD5298" d="M146.278,156.357c-6.365,0-11.751-4.975-12.26-11.324c-0.544-6.768,4.519-12.716,11.286-13.26
				c0.336-0.027,0.669-0.04,1-0.04c6.363,0,11.748,4.974,12.259,11.325c0.543,6.768-4.52,12.717-11.286,13.26
				C146.942,156.346,146.608,156.357,146.278,156.357z"/>
			<path d="M146.305,132.233c6.093,0,11.264,4.687,11.761,10.864c0.521,6.504-4.325,12.199-10.828,12.723
				c-0.322,0.025-0.642,0.037-0.959,0.037c-6.095,0-11.266-4.684-11.762-10.865c-0.522-6.502,4.325-12.197,10.828-12.721
				C145.667,132.246,145.987,132.233,146.305,132.233 M146.306,131.233c-0.346,0-0.695,0.015-1.041,0.042
				c-3.411,0.273-6.512,1.859-8.73,4.467c-2.218,2.605-3.288,5.92-3.015,9.33c0.53,6.609,6.135,11.785,12.759,11.785
				c0.345,0,0.694-0.014,1.039-0.041c7.041-0.566,12.31-6.756,11.745-13.799C158.53,136.41,152.927,131.233,146.306,131.233
				L146.306,131.233z"/>
		</g>
		<path fill="#D185B7" d="M144.076,136.732c-0.148-0.205-0.345-0.396-0.499-0.533c-0.235-0.209-0.781-0.516-1.089-0.301
			c0.564,0.281,0.698,0.838,0.731,1.432c-0.4-0.221-0.774-0.426-1.263-0.283c-0.438,0.127-0.647,0.51-0.976,0.738
			c0.246-0.307,0.281-1.004,0.394-1.381c0.175-0.588,0.623-0.957,1.154-1.201c0.201-0.094,1.051-0.346,1.028-0.629
			c0.02,0.246,0.069,0.502-0.033,0.727c0.167-0.385,0.395-0.225,0.657-0.391c0.21-0.133,0.439-0.463,0.655-0.627
			c0.738-0.569,1.578-0.978,2.49-1.119c0.524-0.081,1.055-0.126,1.584-0.157c0.396-0.022,1.154-0.198,1.521-0.06
			c-1.576-0.595-3.3-0.871-5.092-0.727c-6.502,0.523-11.351,6.219-10.828,12.723c0.082,1.018,0.306,1.988,0.625,2.912
			c-0.231-1.467-0.353-2.92-0.054-4.344c0.28-1.34,0.766-2.658,1.511-3.813c0.369-0.57,0.816-1.115,1.336-1.555
			c0.256-0.215,0.529-0.432,0.818-0.604c0.327-0.195,0.659-0.162,0.928-0.471c-0.181,0.695,0.212,1.498,0.801,1.875
			c0.722,0.463,1.641,0.111,2.33-0.234c0.519-0.262,1.651-0.793,1.478-1.563C144.252,137.01,144.175,136.869,144.076,136.732z"/>
		<path fill="#973270" d="M137.121,151.484c2.369,2.918,6.087,4.66,10.116,4.336c6.503-0.523,11.35-6.219,10.828-12.723
			c-0.227-2.803-1.417-5.293-3.215-7.186c0.462,0.977,0.797,1.996,1.011,2.775c0.801,2.922-0.06,5.883-1.435,8.486
			C151.67,152.396,142.049,154.826,137.121,151.484z"/>
	</g>
	<g display="inline">
		<g>
			<path fill="#814B98" d="M121.792,177.918c-9.831,0-18.023-8-18.263-17.832c-0.119-4.881,1.669-9.518,5.037-13.053
				s7.91-5.549,12.791-5.666c0.152-0.004,0.304-0.006,0.456-0.006c9.831,0,18.023,8,18.263,17.832
				c0.119,4.881-1.669,9.516-5.036,13.051c-3.367,3.537-7.91,5.549-12.791,5.668C122.095,177.916,121.943,177.918,121.792,177.918z"
				/>
			<path d="M121.812,141.861c9.617,0,17.528,7.678,17.763,17.344c0.24,9.816-7.523,17.969-17.339,18.207
				c-0.148,0.004-0.296,0.006-0.443,0.006c-9.617,0-17.527-7.678-17.763-17.344c-0.24-9.816,7.523-17.969,17.34-18.207
				C121.516,141.863,121.664,141.861,121.812,141.861 M121.812,140.861L121.812,140.861c-0.156,0-0.312,0.002-0.468,0.006
				c-5.015,0.121-9.681,2.189-13.141,5.822c-3.459,3.631-5.297,8.395-5.174,13.408c0.246,10.102,8.663,18.32,18.763,18.32
				c0.155,0,0.312-0.002,0.468-0.006c5.014-0.121,9.681-2.189,13.14-5.822c3.46-3.633,5.297-8.395,5.175-13.408
				C140.329,149.08,131.912,140.861,121.812,140.861L121.812,140.861z"/>
		</g>
		<path fill="#A67BB5" d="M119.087,148.465c-0.206-0.322-0.483-0.627-0.704-0.846c-0.335-0.332-1.13-0.838-1.611-0.541
			c0.824,0.467,0.979,1.316,0.979,2.209c-0.585-0.361-1.127-0.701-1.874-0.531c-0.668,0.154-1.016,0.715-1.529,1.027
			c0.396-0.438,0.509-1.482,0.709-2.041c0.311-0.865,1.016-1.385,1.835-1.707c0.311-0.123,1.61-0.432,1.598-0.859
			c0.01,0.373,0.064,0.76-0.108,1.09c0.284-0.564,0.613-0.305,1.02-0.531c0.327-0.182,0.7-0.66,1.037-0.889
			c1.158-0.793,2.453-1.336,3.838-1.473c0.794-0.076,1.595-0.102,2.394-0.102c0.596-0.002,1.751-0.203,2.29,0.037
			c-2.319-1.025-4.888-1.584-7.592-1.52c-9.816,0.24-17.579,8.393-17.339,18.209c0.038,1.537,0.289,3.016,0.691,4.43
			c-0.222-2.225-0.281-4.418,0.285-6.533c0.533-1.99,1.374-3.93,2.591-5.6c0.602-0.826,1.321-1.609,2.139-2.227
			c0.402-0.303,0.832-0.605,1.279-0.838c0.509-0.268,1.007-0.188,1.434-0.631c-0.328,1.031,0.196,2.27,1.046,2.885
			c1.047,0.758,2.458,0.309,3.523-0.156c0.799-0.35,2.544-1.051,2.349-2.223C119.328,148.896,119.225,148.676,119.087,148.465z"/>
		<path fill="#643372" d="M107.395,170.049c3.318,4.582,8.757,7.512,14.84,7.363c9.816-0.238,17.58-8.391,17.339-18.207
			c-0.104-4.23-1.683-8.076-4.226-11.068c0.611,1.504,1.029,3.064,1.285,4.254c0.956,4.459-0.584,8.834-2.869,12.633
			C129.184,172.639,114.52,175.482,107.395,170.049z"/>
	</g>
	<g display="inline">
		<g>
			<path fill="#CE5280" d="M171.18,167.131c-8.035,0-15.045-5.156-17.441-12.834c-1.455-4.66-1.009-9.609,1.258-13.934
				c2.267-4.326,6.081-7.508,10.741-8.963c1.776-0.555,3.611-0.836,5.454-0.836c8.037,0,15.046,5.158,17.442,12.836
				c1.455,4.66,1.009,9.609-1.258,13.934s-6.082,7.508-10.742,8.963C174.857,166.852,173.023,167.131,171.18,167.131z"/>
			<path d="M171.191,131.064c7.572,0,14.591,4.877,16.965,12.486c2.927,9.371-2.299,19.342-11.672,22.268
				c-1.764,0.551-3.549,0.813-5.305,0.813c-7.571,0-14.589-4.875-16.964-12.482c-2.927-9.373,2.299-19.346,11.671-22.271
				C167.65,131.326,169.436,131.064,171.191,131.064 M171.191,130.064L171.191,130.064c-1.894,0-3.779,0.289-5.603,0.858
				c-4.788,1.495-8.707,4.765-11.035,9.208c-2.329,4.443-2.787,9.527-1.292,14.314c2.462,7.887,9.663,13.186,17.918,13.186
				c1.894,0,3.779-0.287,5.603-0.857c4.788-1.496,8.708-4.766,11.036-9.207c2.329-4.443,2.787-9.527,1.292-14.314
				C186.649,135.365,179.448,130.064,171.191,130.064L171.191,130.064z"/>
		</g>
		<path fill="#D88F9A" d="M165.507,138.848c-0.287-0.254-0.637-0.469-0.91-0.619c-0.413-0.229-1.315-0.496-1.696-0.078
			c0.922,0.223,1.302,0.998,1.548,1.857c-0.663-0.189-1.277-0.367-1.948,0.002c-0.601,0.332-0.781,0.965-1.188,1.408
			c0.261-0.529,0.081-1.566,0.12-2.156c0.06-0.92,0.597-1.613,1.295-2.148c0.266-0.203,1.43-0.855,1.302-1.264
			c0.111,0.355,0.271,0.713,0.194,1.078c0.116-0.621,0.506-0.461,0.833-0.789c0.264-0.268,0.493-0.828,0.755-1.143
			c0.894-1.078,1.992-1.958,3.285-2.467c0.741-0.294,1.505-0.537,2.272-0.757c0.572-0.166,1.627-0.675,2.212-0.595
			c-2.511-0.348-5.134-0.18-7.716,0.626c-9.373,2.927-14.599,12.897-11.672,22.271c0.458,1.467,1.105,2.818,1.882,4.068
			c-0.824-2.078-1.484-4.168-1.521-6.359c-0.035-2.061,0.242-4.154,0.953-6.096c0.352-0.959,0.828-1.91,1.445-2.729
			c0.302-0.4,0.635-0.811,1-1.156c0.415-0.396,0.917-0.457,1.205-1c-0.032,1.082,0.81,2.127,1.798,2.486
			c1.215,0.441,2.448-0.379,3.344-1.119c0.674-0.555,2.16-1.709,1.65-2.781C165.857,139.195,165.697,139.014,165.507,138.848z"/>
		<path fill="#A93863" d="M160.191,162.813c4.448,3.494,10.485,4.82,16.293,3.006c9.373-2.926,14.599-12.896,11.672-22.268
			c-1.262-4.043-3.835-7.307-7.103-9.484c1.002,1.279,1.831,2.664,2.404,3.738c2.144,4.025,1.863,8.654,0.71,12.934
			C181.854,159.318,168.536,166.08,160.191,162.813z"/>
	</g>
</g>
<g id="Layer_4" display="none">
	<path display="inline" opacity="0.43" d="M84.328,163.978c6.279,4.269,13.729,6.118,21.186,6.804
		c5.089,0.469,9.654,0.721,14.72,0.089c4.773-0.595,9.639-1.597,14.073-3.321c1.645-0.64,3.35-1.1,4.85-2.024
		c1.466-0.905,2.797-2.006,4.227-2.964c1.422-0.954,2.641-1.728,3.629-3.193c0.934-1.385,2.166-2.287,2.895-3.823
		c0.738-1.558,1.286-3.199,1.728-4.864c0.468-1.763,0.516-3.443,0.368-5.252c-0.052-0.638-1.175-6.473-1.056-6.551
		c-1.675,1.102-4.469-0.591-6.196-1.016c-2.065-0.508-4.169-0.837-6.272-1.143c-14.566-2.115-29.615-1.194-44.254-0.414
		c-3.481,0.186-6.953,0.514-10.435,0.678c-1.514,0.072-3.033,0.025-4.544,0.096c-0.94,0.044-1.763,0.636-2.671,0.651
		c-0.597,0.01-1.109-0.443-1.597-0.744c-0.349-0.216-0.541,2.579-0.543,2.665c-0.038,1.135-0.069,2.27-0.082,3.404
		c-0.041,3.532-0.462,7.857,1.193,11.125C77.622,158.279,80.683,161.5,84.328,163.978z"/>
	<g display="inline">
		<path fill="#B98124" d="M151.75,147.063c0,11.822-17.294,21.406-38.625,21.406c-21.332,0-38.625-9.584-38.625-21.406
			c0,0,0.021-8.023,0.01-8.496s77.24-1.348,77.24-1.348V147.063z"/>
		<ellipse fill="#FAF29D" cx="113.125" cy="139.063" rx="38.625" ry="21.406"/>
		<ellipse fill="#EABC24" cx="113.125" cy="138.094" rx="38.625" ry="20.438"/>
		<linearGradient id="SVGID_1_" gradientUnits="userSpaceOnUse" x1="81.9629" y1="133.3291" x2="144.2878" y2="140.9816">
			<stop  offset="0.0699" style="stop-color:#FDD496"/>
			<stop  offset="0.2796" style="stop-color:#FFCC07"/>
			<stop  offset="0.5322" style="stop-color:#B37D11"/>
			<stop  offset="0.7688" style="stop-color:#AD7713"/>
			<stop  offset="1" style="stop-color:#EBC604"/>
		</linearGradient>
		<path fill="#D6A815" stroke="url(#SVGID_1_)" stroke-width="2" stroke-miterlimit="10" d="M143.688,137.156
			c0,8.675-13.684,15.688-30.563,15.688s-30.563-7.013-30.563-15.688s13.684-15.688,30.563-15.688S143.688,128.481,143.688,137.156z
			"/>
	</g>
	<path display="inline" opacity="0.43" d="M84.328,148.978c6.279,4.269,13.729,6.118,21.186,6.804
		c5.089,0.469,9.654,0.721,14.72,0.089c4.773-0.595,9.639-1.597,14.073-3.321c1.645-0.64,3.35-1.1,4.85-2.024
		c1.466-0.905,2.797-2.006,4.227-2.964c1.422-0.954,2.641-1.728,3.629-3.193c0.934-1.385,2.166-2.287,2.895-3.823
		c0.738-1.558,1.286-3.199,1.728-4.864c0.468-1.763,0.516-3.443,0.368-5.252c-0.052-0.638-1.175-6.472-1.056-6.55
		c-1.675,1.101-4.469-0.591-6.196-1.016c-2.065-0.508-4.169-0.837-6.272-1.142c-14.566-2.116-29.615-1.195-44.254-0.414
		c-3.481,0.186-6.953,0.514-10.435,0.678c-1.514,0.072-3.033,0.025-4.544,0.095c-0.94,0.044-1.763,0.636-2.671,0.651
		c-0.597,0.01-1.109-0.443-1.597-0.744c-0.349-0.215-0.541,2.579-0.543,2.665c-0.038,1.135-0.069,2.269-0.082,3.404
		c-0.041,3.532-0.462,7.857,1.193,11.125C77.622,143.279,80.683,146.5,84.328,148.978z"/>
	<g display="inline">
		<path fill="#B98124" d="M151.75,131.656c0,11.822-17.294,21.406-38.625,21.406c-21.332,0-38.625-9.584-38.625-21.406
			c0,0,0.021-8.023,0.01-8.496s77.24-1.348,77.24-1.348V131.656z"/>
		<ellipse fill="#FAF29D" cx="113.125" cy="123.656" rx="38.625" ry="21.406"/>
		<ellipse fill="#EABC24" cx="113.125" cy="122.688" rx="38.625" ry="20.438"/>
		<linearGradient id="SVGID_2_" gradientUnits="userSpaceOnUse" x1="81.9624" y1="117.9238" x2="144.2873" y2="125.5764">
			<stop  offset="0.0699" style="stop-color:#FDD496"/>
			<stop  offset="0.2796" style="stop-color:#FFCC07"/>
			<stop  offset="0.5322" style="stop-color:#B37D11"/>
			<stop  offset="0.7688" style="stop-color:#AD7713"/>
			<stop  offset="1" style="stop-color:#EBC604"/>
		</linearGradient>
		<path fill="#D6A815" stroke="url(#SVGID_2_)" stroke-width="2" stroke-miterlimit="10" d="M143.688,121.75
			c0,8.675-13.684,15.688-30.563,15.688s-30.563-7.013-30.563-15.688s13.684-15.688,30.563-15.688S143.688,113.075,143.688,121.75z"
			/>
	</g>
	<path display="inline" opacity="0.43" d="M84.328,132.978c6.279,4.269,13.729,6.118,21.186,6.804
		c5.089,0.469,9.654,0.721,14.72,0.089c4.773-0.595,9.639-1.597,14.073-3.321c1.645-0.64,3.35-1.1,4.85-2.024
		c1.466-0.905,2.797-2.006,4.227-2.964c1.422-0.954,2.641-1.728,3.629-3.193c0.934-1.385,2.166-2.287,2.895-3.823
		c0.738-1.558,1.286-3.199,1.728-4.864c0.468-1.763,0.516-3.443,0.368-5.253c-0.052-0.637-1.175-6.472-1.056-6.55
		c-1.675,1.101-4.469-0.591-6.196-1.016c-2.065-0.508-4.169-0.837-6.272-1.142c-14.566-2.116-29.615-1.195-44.254-0.414
		c-3.481,0.186-6.953,0.514-10.435,0.678c-1.514,0.072-3.033,0.025-4.544,0.095c-0.94,0.044-1.763,0.636-2.671,0.651
		c-0.597,0.01-1.109-0.443-1.597-0.744c-0.349-0.215-0.541,2.579-0.543,2.665c-0.038,1.135-0.069,2.269-0.082,3.405
		c-0.041,3.532-0.462,7.857,1.193,11.125C77.622,127.279,80.683,130.5,84.328,132.978z"/>
	<g display="inline">
		<path fill="#B98124" d="M151.75,116.25c0,11.822-17.294,21.406-38.625,21.406c-21.332,0-38.625-9.584-38.625-21.406
			c0,0,0.021-8.023,0.01-8.496s77.24-1.348,77.24-1.348V116.25z"/>
		<ellipse fill="#FAF29D" cx="113.125" cy="108.25" rx="38.625" ry="21.406"/>
		<ellipse fill="#EABC24" cx="113.125" cy="107.281" rx="38.625" ry="20.438"/>
		<linearGradient id="SVGID_3_" gradientUnits="userSpaceOnUse" x1="81.9624" y1="102.5171" x2="144.2863" y2="110.1695">
			<stop  offset="0.0699" style="stop-color:#FDD496"/>
			<stop  offset="0.2796" style="stop-color:#FFCC07"/>
			<stop  offset="0.5322" style="stop-color:#B37D11"/>
			<stop  offset="0.7688" style="stop-color:#AD7713"/>
			<stop  offset="1" style="stop-color:#EBC604"/>
		</linearGradient>
		<path fill="#D6A815" stroke="url(#SVGID_3_)" stroke-width="2" stroke-miterlimit="10" d="M143.688,106.344
			c0,8.675-13.684,15.688-30.563,15.688s-30.563-7.013-30.563-15.688s13.684-15.688,30.563-15.688S143.688,97.669,143.688,106.344z"
			/>
	</g>
	<path display="inline" opacity="0.43" d="M84.328,116.978c6.279,4.268,13.729,6.118,21.186,6.804
		c5.089,0.468,9.654,0.72,14.72,0.088c4.773-0.595,9.639-1.597,14.073-3.321c1.645-0.64,3.35-1.099,4.85-2.024
		c1.466-0.905,2.797-2.006,4.227-2.964c1.422-0.954,2.641-1.727,3.629-3.193c0.934-1.384,2.166-2.287,2.895-3.823
		c0.738-1.558,1.286-3.199,1.728-4.864c0.468-1.763,0.516-3.443,0.368-5.253c-0.052-0.637-1.175-6.472-1.056-6.55
		c-1.675,1.101-4.469-0.591-6.196-1.016c-2.065-0.508-4.169-0.837-6.272-1.142c-14.566-2.116-29.615-1.195-44.254-0.414
		c-3.481,0.186-6.953,0.514-10.435,0.678c-1.514,0.072-3.033,0.025-4.544,0.095c-0.94,0.044-1.763,0.636-2.671,0.651
		c-0.597,0.01-1.109-0.443-1.597-0.744c-0.349-0.215-0.541,2.579-0.543,2.665c-0.038,1.135-0.069,2.269-0.082,3.405
		c-0.041,3.532-0.462,7.857,1.193,11.125C77.622,111.28,80.683,114.5,84.328,116.978z"/>
	<g display="inline">
		<path fill="#B98124" d="M151.75,100.531c0,11.822-17.294,21.406-38.625,21.406c-21.332,0-38.625-9.584-38.625-21.406
			c0,0,0.021-8.023,0.01-8.496s77.24-1.348,77.24-1.348V100.531z"/>
		<ellipse fill="#FAF29D" cx="113.125" cy="92.531" rx="38.625" ry="21.406"/>
		<ellipse fill="#EABC24" cx="113.125" cy="91.563" rx="38.625" ry="20.438"/>
		<linearGradient id="SVGID_4_" gradientUnits="userSpaceOnUse" x1="81.9624" y1="86.7979" x2="144.2873" y2="94.4504">
			<stop  offset="0.0699" style="stop-color:#FDD496"/>
			<stop  offset="0.2796" style="stop-color:#FFCC07"/>
			<stop  offset="0.5322" style="stop-color:#B37D11"/>
			<stop  offset="0.7688" style="stop-color:#AD7713"/>
			<stop  offset="1" style="stop-color:#EBC604"/>
		</linearGradient>
		<path fill="#D6A815" stroke="url(#SVGID_4_)" stroke-width="2" stroke-miterlimit="10" d="M143.688,90.625
			c0,8.675-13.684,15.688-30.563,15.688S82.563,99.3,82.563,90.625s13.684-15.688,30.563-15.688S143.688,81.95,143.688,90.625z"/>
	</g>
	<path display="inline" opacity="0.43" d="M84.328,101.978c6.279,4.268,13.729,6.118,21.186,6.804
		c5.089,0.468,9.654,0.72,14.72,0.088c4.773-0.595,9.639-1.597,14.073-3.321c1.645-0.64,3.35-1.099,4.85-2.024
		c1.466-0.905,2.797-2.006,4.227-2.964c1.422-0.954,2.641-1.727,3.629-3.193c0.934-1.384,2.166-2.287,2.895-3.823
		c0.738-1.558,1.286-3.199,1.728-4.864c0.468-1.763,0.516-3.443,0.368-5.253c-0.052-0.637-1.175-6.472-1.056-6.55
		c-1.675,1.101-4.469-0.591-6.196-1.016c-2.065-0.508-4.169-0.837-6.272-1.142c-14.566-2.116-29.615-1.195-44.254-0.414
		c-3.481,0.186-6.953,0.514-10.435,0.678c-1.514,0.072-3.033,0.025-4.544,0.095c-0.94,0.044-1.763,0.636-2.671,0.651
		c-0.597,0.01-1.109-0.443-1.597-0.744c-0.349-0.215-0.541,2.579-0.543,2.665c-0.038,1.135-0.069,2.269-0.082,3.405
		c-0.041,3.532-0.462,7.857,1.193,11.125C77.622,96.28,80.683,99.5,84.328,101.978z"/>
	<g display="inline">
		<path fill="#B98124" d="M151.75,85.031c0,11.822-17.294,21.406-38.625,21.406c-21.332,0-38.625-9.584-38.625-21.406
			c0,0,0.021-8.023,0.01-8.496s77.24-1.348,77.24-1.348V85.031z"/>
		<ellipse fill="#FAF29D" cx="113.125" cy="77.031" rx="38.625" ry="21.406"/>
		<ellipse fill="#EABC24" cx="113.125" cy="76.063" rx="38.625" ry="20.438"/>
		<linearGradient id="SVGID_5_" gradientUnits="userSpaceOnUse" x1="81.9624" y1="71.2988" x2="144.2863" y2="78.9512">
			<stop  offset="0.0699" style="stop-color:#FDD496"/>
			<stop  offset="0.2796" style="stop-color:#FFCC07"/>
			<stop  offset="0.5322" style="stop-color:#B37D11"/>
			<stop  offset="0.7688" style="stop-color:#AD7713"/>
			<stop  offset="1" style="stop-color:#EBC604"/>
		</linearGradient>
		<path fill="#D6A815" stroke="url(#SVGID_5_)" stroke-width="2" stroke-miterlimit="10" d="M143.688,75.125
			c0,8.675-13.684,15.688-30.563,15.688S82.563,83.8,82.563,75.125s13.684-15.688,30.563-15.688S143.688,66.45,143.688,75.125z"/>
	</g>
	<path display="inline" opacity="0.43" d="M126.328,188.978c6.279,4.269,13.729,6.118,21.186,6.804
		c5.089,0.469,9.654,0.721,14.72,0.089c4.773-0.595,9.639-1.597,14.073-3.321c1.645-0.64,3.35-1.1,4.85-2.024
		c1.466-0.905,2.797-2.006,4.227-2.964c1.422-0.954,2.641-1.728,3.629-3.193c0.934-1.385,2.166-2.287,2.895-3.823
		c0.738-1.558,1.286-3.199,1.728-4.864c0.468-1.763,0.516-3.443,0.368-5.252c-0.052-0.638-1.175-6.473-1.056-6.551
		c-1.675,1.102-4.469-0.591-6.196-1.016c-2.065-0.508-4.169-0.837-6.272-1.143c-14.566-2.115-29.615-1.194-44.254-0.414
		c-3.481,0.186-6.952,0.514-10.435,0.678c-1.514,0.072-3.033,0.025-4.544,0.096c-0.94,0.044-1.763,0.636-2.671,0.651
		c-0.597,0.01-1.109-0.443-1.597-0.744c-0.349-0.216-0.541,2.579-0.543,2.665c-0.038,1.135-0.069,2.27-0.082,3.404
		c-0.041,3.532-0.462,7.857,1.193,11.125C119.622,183.279,122.683,186.5,126.328,188.978z"/>
	<g display="inline">
		<path fill="#B98124" d="M193.694,172.469c0,11.822-17.294,21.406-38.625,21.406c-21.332,0-38.625-9.584-38.625-21.406
			c0,0,0.021-8.023,0.01-8.496s77.24-1.348,77.24-1.348V172.469z"/>
		<ellipse fill="#FAF29D" cx="155.069" cy="164.469" rx="38.625" ry="21.406"/>
		<ellipse fill="#EABC24" cx="155.069" cy="163.5" rx="38.625" ry="20.438"/>
		<linearGradient id="SVGID_6_" gradientUnits="userSpaceOnUse" x1="123.9072" y1="158.7363" x2="186.2312" y2="166.3887">
			<stop  offset="0.0699" style="stop-color:#FDD496"/>
			<stop  offset="0.2796" style="stop-color:#FFCC07"/>
			<stop  offset="0.5322" style="stop-color:#B37D11"/>
			<stop  offset="0.7688" style="stop-color:#AD7713"/>
			<stop  offset="1" style="stop-color:#EBC604"/>
		</linearGradient>
		<path fill="#D6A815" stroke="url(#SVGID_6_)" stroke-width="2" stroke-miterlimit="10" d="M185.632,162.563
			c0,8.675-13.684,15.688-30.563,15.688s-30.563-7.013-30.563-15.688s13.684-15.688,30.563-15.688S185.632,153.888,185.632,162.563z
			"/>
	</g>
	<path display="inline" opacity="0.54" d="M130.715,160.207c0.672,2.124,1.53,4.263,3.106,5.896c2.2,2.278,5.643,3.659,8.724,4.22
		c2.868,0.521,5.772,0.739,8.677,0.948c2.548,0.184,4.765,1.104,7.28,1.491c2.749,0.423,5.544,0.326,8.301,0.056
		c2.441-0.239,5.455-1.364,7.866-1.131c-1.682-0.163-3.558-1.323-5.19-1.824c-2.553-0.784-4.474-2.313-6.792-3.503
		c-2.14-1.098-4.515-1.573-6.606-2.857c-3.892-2.389-8.409-5.173-11.191-8.883c-2.184-2.912-2.118-6.89-3.608-10.152
		c-2.538-5.553-6.234-10.453-8.496-16.171c-1.251-3.164-1.676-6.571-1.79-9.949c-0.048-1.424-0.116-2.836-0.111-4.26
		c0.005-1.367,0.049-1.706,1.188-2.628c0.931-0.752,1.961-1.344,2.924-2.05c1.651-1.211,3.264-2.867,4.236-4.684
		c-1.002,0.982-2.721,1.66-3.96,2.186c-2.215,0.94-4.4,2.511-6.832,2.958c-1.162,0.213-2.378,0.363-3.565,0.577
		c-0.708,0.127-1.542,0.031-2.217,0.307c-0.597,0.244-1.028,1.081-1.682,0.906c1.114-0.231,7.321-1.165,4.322,0.994
		c-2.042,1.47-1.794,4.55-3.76,6.258c-1.291,1.122-3.005,2.025-4.131,3.302c1.289-0.249,2.503-0.174,3.814-0.213
		c1.675-0.049,5.775-1.293,5.573,1.426c-0.072,0.971-0.97,1.792-1.726,2.287c-1.994,1.307-4.725,1.325-7.019,1.588
		c-0.492,0.056-0.978,0.008-1.461,0.085c-0.673,0.108-1.235,0.427-1.914,0.101c1.514,0.728,3.467,0.269,4.926,1.278
		c2.042,1.413-0.134,4.613-1.17,6.014c-0.579,0.783-1.415,1.557-2.285,2.002c-0.966,0.494-2.121,0.521-2.991,1.212
		c0.435,0.095,0.882-0.192,1.342-0.206c0.43-0.012,0.947-0.021,1.379,0.004c0.886,0.053,1.667,0.222,2.518,0.395
		c1.467,0.299,2.944,0.039,4.383-0.279c1.02-0.226,2.068-0.873,3.039-1.039c1.304-0.223,3.133-0.778,3.187,1.037
		c0.029,1.033-0.767,2.69-1.628,3.298c-1.707,1.202-3.738,0.99-5.705,1.11c-2.084,0.128-4.211,0.463-6.309,0.665
		c0.98,0.429,2.16,0.168,3.236,0.214c1.541,0.066,4.853-0.514,2.952,2.091c-0.982,1.346-2.01,2.651-3.083,3.927
		c-0.791,0.939-1.494,1.793-2.495,2.523c-1.077,0.785-1.975,0.736-3.156,1.1c1.563,0.445,2.959,0.096,4.519,0.138
		c1.523,0.04,3.323,0.229,4.654-0.753c0.187,0.859-1.177,1.667-1.672,2.23c-0.787,0.896-1.711,1.862-2.005,3.054
		c0.466-0.721,1.032-1.329,1.646-1.936c1.293-1.276,2.977-2.763,4.874-2.926c4.612-0.396,1.624,2.543,0.309,4.296
		c0.895-1.193,2.106-2.396,3.186-3.44c0.703-0.68,2.189-2.09,3.236-1.166c1.14,1.007-2.384,3.396-2.954,3.934
		c-0.769,0.725-1.35,1.527-1.829,2.466c0.422-0.828,1.22-1.78,2.261-1.511C130.381,157.566,130.38,159.148,130.715,160.207z"/>
	<g display="inline">
		<path fill="#B98124" d="M178.632,171.009c-9.59,6.912-27.478-1.511-39.951-18.814c-12.476-17.305-14.814-36.937-5.224-43.85
			c0,0,6.521-4.676,6.897-4.96c0.378-0.285,46.263,61.868,46.263,61.868L178.632,171.009z"/>
		
			<ellipse transform="matrix(0.5848 0.8112 -0.8112 0.5848 176.9951 -75.7923)" fill="#FAF29D" cx="162.534" cy="134.998" rx="38.625" ry="21.406"/>
		
			<ellipse transform="matrix(0.5848 0.8112 -0.8112 0.5848 176.8601 -76.6655)" fill="#EABC24" cx="163.32" cy="134.431" rx="38.625" ry="20.438"/>
		
			<linearGradient id="SVGID_7_" gradientUnits="userSpaceOnUse" x1="114.4922" y1="130.083" x2="176.8171" y2="137.7355" gradientTransform="matrix(0.5848 0.8112 -0.8112 0.5848 187.5293 -62.5791)">
			<stop  offset="0.0699" style="stop-color:#FDD496"/>
			<stop  offset="0.2796" style="stop-color:#FFCC07"/>
			<stop  offset="0.5322" style="stop-color:#B37D11"/>
			<stop  offset="0.7688" style="stop-color:#AD7713"/>
			<stop  offset="1" style="stop-color:#EBC604"/>
		</linearGradient>
		<path fill="#D6A815" stroke="url(#SVGID_7_)" stroke-width="2" stroke-miterlimit="10" d="M181.953,158.675
			c-7.038,5.072-20.728-1.926-30.599-15.618c-9.87-13.691-12.184-28.893-5.147-33.966c7.037-5.073,20.728,1.926,30.599,15.619
			C186.677,138.4,188.99,153.602,181.953,158.675z"/>
	</g>
</g>
<g id="Layer_5">
	<path opacity="0.5" d="M156.746,185.699v-29.825c0-15.027-15.107-27.211-33.746-27.211h-11.68
		c-18.636,0-33.745,12.184-33.745,27.211v29.825H156.746z"/>
	<circle opacity="0.5" cx="116.789" cy="90.225" r="27.838"/>
	<path opacity="0.5" d="M159.417,128.966h-11.094c-1.582,0-3.122,0.132-4.639,0.318c12.217,1.916,21.61,13.205,21.61,26.89V186
		h26.17v-29.826C191.465,141.147,177.116,128.966,159.417,128.966z"/>
	<path opacity="0.5" d="M151.638,63.915c-3.7,0-7.217,0.76-10.411,2.123c7.434,4.022,12.645,13.336,12.645,24.187
		c0,10.851-5.211,20.165-12.645,24.187c3.194,1.363,6.711,2.123,10.411,2.123c14.6,0,26.437-11.779,26.437-26.31
		C178.074,75.693,166.234,63.915,151.638,63.915z"/>
	
		<linearGradient id="SVGID_8_" gradientUnits="userSpaceOnUse" x1="-461.1191" y1="358.6289" x2="-388.747" y2="311.63" gradientTransform="matrix(1 0 0 -1 539.04 500.3398)">
		<stop  offset="0" style="stop-color:#CFCECE"/>
		<stop  offset="0.1077" style="stop-color:#DEDEDE"/>
		<stop  offset="0.2266" style="stop-color:#EAEAEA"/>
		<stop  offset="0.3172" style="stop-color:#EFEEEE"/>
		<stop  offset="0.5138" style="stop-color:#DBDBDB"/>
		<stop  offset="0.6559" style="stop-color:#D0D0D0"/>
		<stop  offset="0.7329" style="stop-color:#D6D6D6"/>
		<stop  offset="0.838" style="stop-color:#E2E1E1"/>
		<stop  offset="0.9587" style="stop-color:#F8F7F7"/>
		<stop  offset="1" style="stop-color:#FFFFFF"/>
	</linearGradient>
	<path fill="url(#SVGID_8_)" d="M152.248,185.699v-29.825c0-15.027-15.107-27.211-33.746-27.211h-11.68
		c-18.636,0-33.746,12.184-33.746,27.211v29.825H152.248z"/>
	
		<linearGradient id="SVGID_9_" gradientUnits="userSpaceOnUse" x1="-450.0977" y1="425.2783" x2="-403.3993" y2="394.9521" gradientTransform="matrix(1 0 0 -1 539.04 500.3398)">
		<stop  offset="0" style="stop-color:#CFCECE"/>
		<stop  offset="0.1077" style="stop-color:#DEDEDE"/>
		<stop  offset="0.2266" style="stop-color:#EAEAEA"/>
		<stop  offset="0.3172" style="stop-color:#EFEEEE"/>
		<stop  offset="0.5138" style="stop-color:#DBDBDB"/>
		<stop  offset="0.6559" style="stop-color:#D0D0D0"/>
		<stop  offset="0.7329" style="stop-color:#D6D6D6"/>
		<stop  offset="0.838" style="stop-color:#E2E1E1"/>
		<stop  offset="0.9587" style="stop-color:#F8F7F7"/>
		<stop  offset="1" style="stop-color:#FFFFFF"/>
	</linearGradient>
	<circle fill="url(#SVGID_9_)" cx="112.291" cy="90.225" r="27.838"/>
	
		<linearGradient id="SVGID_10_" gradientUnits="userSpaceOnUse" x1="-398.5723" y1="372.1699" x2="-349.9246" y2="316.2072" gradientTransform="matrix(1 0 0 -1 539.04 500.3398)">
		<stop  offset="0.0645" style="stop-color:#989797"/>
		<stop  offset="0.3446" style="stop-color:#73787C"/>
		<stop  offset="0.5161" style="stop-color:#636B6F"/>
		<stop  offset="0.618" style="stop-color:#676F72"/>
		<stop  offset="0.7213" style="stop-color:#747A7E"/>
		<stop  offset="0.8253" style="stop-color:#878D90"/>
		<stop  offset="0.9291" style="stop-color:#A4A6A7"/>
		<stop  offset="0.9946" style="stop-color:#BBBABA"/>
	</linearGradient>
	<path fill="url(#SVGID_10_)" d="M154.92,128.966h-11.095c-1.582,0-3.121,0.132-4.639,0.318c12.218,1.916,21.61,13.205,21.61,26.89
		V186h26.17v-29.826C186.967,141.147,172.618,128.966,154.92,128.966z"/>
	
		<linearGradient id="SVGID_11_" gradientUnits="userSpaceOnUse" x1="-407.355" y1="429.9189" x2="-373.6005" y2="391.0893" gradientTransform="matrix(1 0 0 -1 539.04 500.3398)">
		<stop  offset="0.0645" style="stop-color:#989797"/>
		<stop  offset="0.3446" style="stop-color:#73787C"/>
		<stop  offset="0.5161" style="stop-color:#636B6F"/>
		<stop  offset="0.618" style="stop-color:#676F72"/>
		<stop  offset="0.7213" style="stop-color:#747A7E"/>
		<stop  offset="0.8253" style="stop-color:#878D90"/>
		<stop  offset="0.9291" style="stop-color:#A4A6A7"/>
		<stop  offset="0.9946" style="stop-color:#BBBABA"/>
	</linearGradient>
	<path fill="url(#SVGID_11_)" d="M147.14,63.915c-3.699,0-7.216,0.76-10.411,2.123c7.434,4.022,12.646,13.336,12.646,24.187
		c0,10.851-5.212,20.165-12.646,24.187c3.195,1.363,6.712,2.123,10.411,2.123c14.601,0,26.438-11.779,26.438-26.31
		C173.577,75.693,161.737,63.915,147.14,63.915z"/>
</g>
</svg>
