<?xml version="1.0" encoding="utf-8"?>
<!-- Generator: Adobe Illustrator 16.0.0, SVG Export Plug-In . SVG Version: 6.00 Build 0)  -->
<!DOCTYPE svg PUBLIC "-//W3C//DTD SVG 1.1//EN" "http://www.w3.org/Graphics/SVG/1.1/DTD/svg11.dtd">
<svg version="1.1" id="Layer_1" xmlns="http://www.w3.org/2000/svg" xmlns:xlink="http://www.w3.org/1999/xlink" x="0px" y="0px"
	 width="256px" height="256px" viewBox="0 0 256 256" enable-background="new 0 0 256 256" xml:space="preserve">
<path opacity="0.58" d="M136.954,175.633c-14.431,7.386-29.133,14.452-43.535,21.726c-11.03,5.571-23.538,14.034-36.065,14.033
	c-18.753-0.001-33.685-14.27-40.201-30.668c-0.876-2.205-1.401-4.512-1.811-6.843c-0.45-0.393,10.119-10.71,11.157-11.554
	c4.564-3.708,9.755-6.439,15.275-8.432c12.842-4.635,26.643-5.777,39.833-9.082c5.858-1.468,12.53-3.033,17.92-5.836
	c20.879-10.856,40.94-24.405,60.17-38.16c16.975-12.142,32.075-22.067,50.545-31.33c7.57-3.795,21.46-9.646,29.852-5.492
	c3.66,1.812,5.58,5.422,6.789,9.16c1.146,3.543,2.577,7.217,2.7,10.903c0.145,4.312-0.81,8.72-0.966,13.037
	c-0.181,4.987-3.467,10.481-5.762,14.747c-2.739,5.09-6.331,9.51-10.73,13.277c-5.776,4.946-12.555,8.141-19.282,11.572
	C187.522,149.62,162.265,162.678,136.954,175.633z"/>
<path fill="#AB6B2D" stroke="#000000" stroke-width="3" stroke-miterlimit="10" d="M71.779,198.683l156.077-77.375l-0.249,0.135
	c13.069-7.029,21.953-20.833,21.953-36.71c0-23.007-18.649-41.658-41.658-41.658c-6.168,0-12.024,1.34-17.29,3.746l0.172-0.078
	L38.332,122.483"/>
<path fill="#C97D37" d="M79.402,117.482c2.382,1.529,51.999-7.226,36.096-13.711c6.412-2.166,49.949-1.786,39.121-18.917
	c6.04-2.963,51.353-1.182,39.137-20.083c1.553,2.402,16.896-2.339,17.752-5.603c6.985,4.188,12.496,1.322,17.762,8.077
	c4.025,5.163,3.62,14.019,3.507,20.158c-0.15,8.106-1.347,30.91-14.921,26.376c0.614-23.119-37.398,20.688-44.684,20.388
	c7.477-24.308-34.525,13.284-34.854,15.801c3.02-23.064-30.897,15.556-33.852,23.164c-0.337-0.081-2.532-0.027-2.837,0.097
	c2.958-11.418,4.168-26.778-1.844-37.372c-0.026-0.045-0.052-0.09-0.079-0.139C95.664,128.558,86.847,122.198,79.402,117.482z"/>
<circle fill="#D59759" stroke="#000000" stroke-width="3" stroke-miterlimit="10" cx="55.449" cy="160.586" r="41.658"/>
<g>
	<path fill="#E0AF79" d="M72.061,132.912c0,0-0.274-0.133-0.807-0.391c-0.266-0.128-0.597-0.288-0.989-0.478
		c-0.391-0.194-0.88-0.328-1.41-0.528c-2.128-0.764-5.427-1.484-9.641-1.498c-1.051-0.046-2.16,0.079-3.317,0.132
		c-0.578,0.052-1.167,0.143-1.769,0.214c-0.603,0.063-1.214,0.159-1.833,0.293c-2.485,0.44-5.132,1.168-7.795,2.293
		c-2.653,1.122-5.358,2.646-7.67,4.784c-0.271,0.262-0.624,0.54-0.832,0.791c-0.283,0.313-0.568,0.628-0.855,0.944
		c-0.306,0.316-0.549,0.635-0.785,0.953c-0.243,0.317-0.488,0.637-0.734,0.957c-0.926,1.383-1.834,2.835-2.54,4.438
		c-1.492,3.16-2.452,6.734-2.9,10.479c-0.414,3.742-0.375,7.697,0.472,11.566l0.152,0.728l0.019,0.091
		c0.02,0.087-0.007-0.016,0.006,0.03l0.053,0.189l0.106,0.381c0.145,0.496,0.274,1.055,0.444,1.465
		c0.295,0.875,0.682,1.796,1.112,2.69c0.871,1.784,1.981,3.479,3.297,5.033c2.639,3.101,6.058,5.682,9.943,7.396
		c3.875,1.718,8.213,2.589,12.493,2.302c4.292-0.27,8.42-1.801,11.846-4.477c6.876-5.365,11.374-14.541,10.717-23.329
		c-0.162-2.184-0.652-4.319-1.463-6.316c-0.822-1.992-2.002-3.819-3.441-5.432c-0.715-0.811-1.52-1.545-2.355-2.245l-0.077-0.067
		c-0.045-0.038,0.13,0.094,0.012,0.007l-0.184-0.134l-0.368-0.267l-0.735-0.532c-0.482-0.338-0.865-0.502-1.294-0.772
		c-1.811-0.977-3.862-1.601-5.94-1.803c-8.41-0.786-17.167,4.705-20.457,12.145c-1.688,3.712-1.834,7.854-0.55,11.553
		c0.356,0.913,0.712,1.827,1.208,2.683l0.171,0.326l0.085,0.164l0.043,0.081c0.105,0.162-0.097-0.129-0.052-0.068l0.476,0.658
		l0.475,0.657c0.156,0.196,0.289,0.26,0.428,0.401c0.272,0.246,0.5,0.526,0.902,0.748c0.364,0.228,0.689,0.515,1.111,0.662
		c0.774,0.4,1.641,0.649,2.52,0.844c1.775,0.372,3.679,0.296,5.5-0.023c1.824-0.327,3.604-0.894,5.225-1.692
		c1.608-0.809,3.075-1.826,4.206-3.038l0.409-0.461l0.103-0.115l0.052-0.058c0.001,0.004,0.069-0.088,0.017-0.007l0.203-0.29
		l0.402-0.577l0.292-0.5c0.391-0.686,0.74-1.462,0.97-2.235c0.985-3.104,0.592-6.534-0.922-9.07
		c-0.753-1.264-1.782-2.305-2.991-2.937c-1.198-0.661-2.567-0.864-3.893-0.781c-2.652,0.223-5.192,1.616-6.95,3.154
		c-0.881,0.805-1.554,1.744-1.941,2.745c-0.394,1-0.455,2.057-0.29,3.021c0.338,1.948,1.672,3.445,3.09,4.045
		c1.456,0.637,2.906,0.209,3.814-0.397c0.944-0.61,1.453-1.354,1.811-1.812c0.318-0.497,0.482-0.754,0.482-0.754
		s-0.144,0.27-0.424,0.791c-0.325,0.488-0.774,1.278-1.712,1.996c-0.462,0.36-1.058,0.678-1.775,0.857
		c-0.717,0.176-1.565,0.161-2.403-0.121c-1.669-0.55-3.309-2.138-3.855-4.396c-0.27-1.117-0.277-2.392,0.116-3.621
		c0.384-1.23,1.117-2.394,2.071-3.386c0.982-1.021,2.111-1.818,3.391-2.536c1.284-0.698,2.746-1.278,4.375-1.489
		c1.617-0.197,3.421-0.034,5.048,0.749c1.64,0.748,3.046,2.036,4.078,3.579c2.065,3.107,2.682,7.235,1.639,11.158
		c-0.257,0.99-0.624,1.931-1.117,2.887l-0.394,0.725l-0.38,0.597l-0.19,0.299l-0.286,0.363l-0.507,0.628
		c-1.4,1.631-3.125,2.916-4.993,3.956c-1.876,1.035-3.941,1.747-6.105,2.208c-2.165,0.442-4.468,0.62-6.822,0.213
		c-1.171-0.215-2.356-0.52-3.494-1.056c-0.588-0.208-1.112-0.587-1.656-0.918c-0.544-0.295-1.071-0.784-1.586-1.271
		c-0.243-0.235-0.546-0.501-0.729-0.723l-0.494-0.642l-0.495-0.645c0.004,0.007-0.234-0.343-0.161-0.24l-0.056-0.097l-0.111-0.193
		l-0.221-0.389c-0.624-1.015-1.11-2.126-1.578-3.252c-1.801-4.568-1.646-10.051,0.382-14.71c1.997-4.69,5.552-8.624,9.896-11.366
		c4.334-2.735,9.63-4.347,15.054-3.834c2.703,0.251,5.36,1.024,7.813,2.33c0.604,0.354,1.31,0.732,1.818,1.088l0.739,0.528
		l0.369,0.264l0.185,0.133l0.19,0.146l0.096,0.08c1.028,0.848,2.024,1.75,2.924,2.755c1.809,1.997,3.319,4.309,4.371,6.816
		c1.041,2.51,1.671,5.182,1.872,7.861c0.177,2.683-0.033,5.362-0.559,7.954c-0.548,2.588-1.405,5.088-2.521,7.455
		c-2.261,4.716-5.521,8.93-9.69,12.116c-2.061,1.583-4.429,2.914-6.893,3.789c-2.47,0.891-5.052,1.369-7.611,1.491
		c-5.129,0.248-10.146-0.877-14.585-2.938c-4.438-2.069-8.357-5.08-11.297-8.793c-1.474-1.85-2.709-3.861-3.662-5.973
		c-0.47-1.057-0.885-2.121-1.231-3.271c-0.203-0.586-0.293-1.066-0.429-1.587l-0.095-0.384l-0.047-0.191
		c-0.005-0.018-0.043-0.185-0.036-0.163l-0.019-0.103l-0.147-0.818c-1.527-8.728,0.023-17.231,3.511-24.023
		c0.846-1.715,1.905-3.274,2.992-4.751c0.605-0.699,1.196-1.496,1.799-2.077c0.301-0.303,0.601-0.604,0.898-0.904
		c0.361-0.375,0.691-0.594,1.035-0.894c2.719-2.256,5.702-3.715,8.567-4.756c2.875-1.031,5.664-1.664,8.27-1.942
		c0.647-0.097,1.286-0.156,1.914-0.183c0.626-0.034,1.237-0.087,1.835-0.103c1.199,0.021,2.339-0.034,3.419,0.082
		c4.331,0.27,7.61,1.313,9.712,2.238c0.521,0.244,1.002,0.417,1.377,0.641c0.377,0.22,0.694,0.404,0.949,0.553
		C71.797,132.759,72.061,132.912,72.061,132.912z"/>
</g>
</svg>
